<?xml version="1.0" encoding="utf-8"?>
<!-- Generator: Adobe Illustrator 22.0.1, SVG Export Plug-In . SVG Version: 6.00 Build 0)  -->
<svg version="1.1" xmlns="http://www.w3.org/2000/svg" xmlns:xlink="http://www.w3.org/1999/xlink" x="0px" y="0px"
	 viewBox="0 0 1869.4 507.9" style="enable-background:new 0 0 1869.4 507.9;" xml:space="preserve">
<style type="text/css">
	.st0{display:none;}
	.st1{display:inline;}
	.st2{fill:none;stroke:#15be8a;stroke-miterlimit:10;}
	.st3{fill:#15be8a;}
</style>
<g id="Capa_1" class="st0">
	
		<image style="display:inline;overflow:visible;" width="1920" height="1160" xlink:href="20E5C8E4.jpg"  transform="matrix(1 0 0 1 -525.9814 -449.9397)">
	</image>
</g>
<g id="Capa_5" class="st0">
	<rect x="-122" y="-30.9" class="st1" width="1108" height="543"/>
</g>
<g id="Capa_3">
</g>
<g id="Capa_4">
</g>
<g id="Capa_2">
	<g>
		<g>
			<polyline class="st2" points="-47.5,117.6 -18.5,107.6 216.5,112.6 329.5,84.6 410.5,31.6 625.5,13.6 405.5,134.6 529.5,162.6 
				660.5,167.6 784.5,157.6 918.5,227.6 			"/>
			<polyline class="st2" points="912.5,97.6 529.5,162.6 510.5,250.6 522.5,431.6 645.5,403.6 779.5,436.6 872.5,446.6 918.5,381.6 
							"/>
			<polyline class="st2" points="913.5,292.6 824.5,320.6 784.5,157.6 657.5,227.6 645.5,403.6 			"/>
			<polyline class="st2" points="-18.5,107.6 63.5,207.6 200.5,207.6 379.5,237.6 349.5,406.6 187.5,364.6 185.5,428.6 -39.5,335.6 
				-58.5,298.6 			"/>
			<polyline class="st2" points="189.5,484.6 216.5,112.6 477.5,453.6 189.5,382.6 -47.5,350.6 			"/>
			<polyline class="st2" points="-52.5,239.6 63.5,207.6 185.5,428.6 			"/>
			<polyline class="st2" points="-52.5,267.6 187.5,364.6 -39.5,335.6 63.5,207.6 -47.5,259.6 			"/>
			<polyline class="st2" points="918.5,107.6 761.5,190.6 918.5,157.6 781.5,484.6 922.5,280.6 			"/>
			<polyline class="st2" points="922.5,343.6 824.5,320.6 657.5,227.6 660.5,167.6 824.5,320.6 872.5,446.6 			"/>
			<polygon class="st2" points="612.5,197.6 657.5,227.6 522.5,431.6 			"/>
			<polyline class="st2" points="410.5,31.6 703.5,298.6 922.5,359.6 			"/>
			<polyline class="st2" points="410.5,36.6 405.5,134.6 187.5,480.6 -18.5,102.6 			"/>
			<line class="st2" x1="329.5" y1="89.6" x2="625.5" y2="13.6"/>
			<polyline class="st2" points="405.5,134.6 381.5,443.6 327.4,85.7 152.5,180.6 -58.5,157.6 			"/>
			<line class="st2" x1="329.5" y1="84.6" x2="187.5" y2="480.6"/>
			<polyline class="st2" points="-39.5,335.6 135.5,480.6 187.5,364.6 			"/>
			<polyline class="st2" points="152.5,180.6 152.8,185.5 167.5,484.6 			"/>
			<line class="st2" x1="152.5" y1="175.6" x2="-70.5" y2="391.6"/>
			<polyline class="st2" points="231.5,480.6 386.5,443.6 589.5,493.6 			"/>
			<line class="st2" x1="512.5" y1="250.6" x2="657.5" y2="227.6"/>
			<polyline class="st2" points="187.5,359.6 379.5,237.6 510.5,250.6 349.5,406.6 152.5,185.6 			"/>
			<polyline class="st2" points="756.5,185.6 477.5,453.6 510.5,252.6 660.5,167.6 			"/>
			<polyline class="st2" points="786.5,157.6 610,200.1 376.5,237.6 			"/>
			<line class="st2" x1="642.5" y1="403.6" x2="510.5" y2="252.6"/>
			<polyline class="st2" points="346.5,406.6 187.5,426.6 202.5,207.6 351.5,406.6 519.5,431.6 381.9,236.7 			"/>
			<line class="st2" x1="67.5" y1="207.6" x2="187.5" y2="364.6"/>
			<line class="st2" x1="-52.5" y1="391.6" x2="173.5" y2="480.6"/>
			<polyline class="st2" points="329.5,89.6 405.5,134.6 700.5,295.6 776.5,436.6 824.5,320.6 647.5,403.6 			"/>
			<line class="st2" x1="529.5" y1="167.6" x2="190.5" y2="382.8"/>
			<circle class="st3" cx="217" cy="113.1" r="5"/>
			<circle class="st3" cx="-18" cy="108.1" r="5"/>
			<circle class="st3" cx="-53" cy="241.1" r="5"/>
			<circle class="st3" cx="188" cy="481.1" r="5"/>
			<circle class="st3" cx="382" cy="444.1" r="5"/>
			<circle class="st3" cx="330" cy="85.1" r="5"/>
			<circle class="st3" cx="411" cy="32.1" r="5"/>
			<circle class="st3" cx="699" cy="296.1" r="5"/>
			<circle class="st3" cx="919" cy="378.1" r="5"/>
			<circle class="st3" cx="657" cy="227.1" r="5"/>
			<circle class="st3" cx="737" cy="361.1" r="5"/>
			<circle class="st3" cx="780" cy="492.1" r="5"/>
			<circle class="st3" cx="25" cy="301.1" r="5"/>
			<circle class="st3" cx="169" cy="481.1" r="5"/>
			<circle class="st3" cx="-59" cy="298.1" r="5"/>
			<circle class="st3" cx="-52" cy="392.1" r="5"/>
			<circle class="st3" cx="-71" cy="391.1" r="5"/>
			<circle class="st3" cx="478" cy="454.1" r="5"/>
			<circle class="st3" cx="762" cy="188.1" r="5"/>
			<circle class="st3" cx="921" cy="228.1" r="5"/>
			<circle class="st3" cx="914" cy="97.1" r="5"/>
			<circle class="st3" cx="626" cy="14.1" r="5"/>
			<circle class="st3" cx="406" cy="135.1" r="5"/>
			<circle class="st3" cx="530" cy="163.1" r="5"/>
			<circle class="st3" cx="612.5" cy="197.6" r="2.5"/>
			<circle class="st3" cx="660.5" cy="167.6" r="2.5"/>
			<circle class="st3" cx="784.5" cy="157.6" r="2.5"/>
			<circle class="st3" cx="918.5" cy="107.6" r="2.5"/>
			<circle class="st3" cx="919.5" cy="157.6" r="2.5"/>
			<circle class="st3" cx="824.5" cy="320.6" r="2.5"/>
			<circle class="st3" cx="922.5" cy="280.6" r="2.5"/>
			<circle class="st3" cx="776.5" cy="436.6" r="2.5"/>
			<circle class="st3" cx="922.5" cy="344.6" r="2.5"/>
			<circle class="st3" cx="924.5" cy="360.6" r="2.5"/>
			<circle class="st3" cx="872.5" cy="446.6" r="2.5"/>
			<circle class="st3" cx="379.5" cy="237.6" r="2.5"/>
			<circle class="st3" cx="349.5" cy="406.6" r="2.5"/>
			<circle class="st3" cx="185.5" cy="426.6" r="2.5"/>
			<circle class="st3" cx="231.5" cy="480.6" r="2.5"/>
			<circle class="st3" cx="200.5" cy="207.6" r="2.5"/>
			<circle class="st3" cx="187.5" cy="362.6" r="2.5"/>
			<circle class="st3" cx="63.5" cy="207.6" r="2.5"/>
			<circle class="st3" cx="-47.5" cy="118.6" r="2.5"/>
			<circle class="st3" cx="-58.5" cy="157.6" r="2.5"/>
			<circle class="st3" cx="-47.5" cy="260.6" r="2.5"/>
			<circle class="st3" cx="-53.5" cy="268.6" r="2.5"/>
			<circle class="st3" cx="-39.5" cy="333.6" r="2.5"/>
			<circle class="st3" cx="-47.5" cy="350.6" r="2.5"/>
			<circle class="st3" cx="135.5" cy="480.6" r="2.5"/>
			<circle class="st3" cx="645.5" cy="403.6" r="2.5"/>
			<circle class="st3" cx="589.5" cy="493.6" r="2.5"/>
			<circle class="st3" cx="522.5" cy="433.6" r="2.5"/>
			<circle class="st3" cx="510.5" cy="250.6" r="2.5"/>
			<circle class="st3" cx="153" cy="181.1" r="5"/>
		</g>
		<g>
			<polyline class="st2" points="934.5,384.6 963.5,394.6 1198.5,389.6 1311.5,417.6 1392.5,470.6 1607.5,488.6 1387.5,367.6 
				1511.5,339.6 1642.5,334.6 1766.5,344.6 1900.5,274.6 			"/>
			<polyline class="st2" points="1894.5,404.6 1511.5,339.6 1492.5,251.6 1504.5,70.6 1627.5,98.6 1761.5,65.6 1854.5,55.6 
				1900.5,120.6 			"/>
			<polyline class="st2" points="1895.5,209.6 1806.5,181.6 1766.5,344.6 1639.5,274.6 1627.5,98.6 			"/>
			<polyline class="st2" points="963.5,394.6 1045.5,294.6 1182.5,294.6 1361.5,264.6 1331.5,95.6 1169.5,137.6 1167.5,73.6 
				942.5,166.6 923.5,203.6 			"/>
			<polyline class="st2" points="1171.5,17.6 1198.5,389.6 1459.5,48.6 1171.5,119.6 934.5,151.6 			"/>
			<polyline class="st2" points="929.5,262.6 1045.5,294.6 1167.5,73.6 			"/>
			<polyline class="st2" points="929.5,234.6 1169.5,137.6 942.5,166.6 1045.5,294.6 934.5,242.6 			"/>
			<polyline class="st2" points="1900.5,394.6 1743.5,311.6 1900.5,344.6 1763.5,17.6 1904.5,221.6 			"/>
			<polyline class="st2" points="1904.5,158.6 1806.5,181.6 1639.5,274.6 1642.5,334.6 1806.5,181.6 1854.5,55.6 			"/>
			<polygon class="st2" points="1594.5,304.6 1639.5,274.6 1504.5,70.6 			"/>
			<polyline class="st2" points="1392.5,470.6 1685.5,203.6 1904.5,142.6 			"/>
			<polyline class="st2" points="1392.5,465.6 1387.5,367.6 1169.5,21.6 963.5,399.6 			"/>
			<line class="st2" x1="1311.5" y1="412.6" x2="1607.5" y2="488.6"/>
			<polyline class="st2" points="1387.5,367.6 1363.5,58.6 1309.4,416.4 1134.5,321.6 923.5,344.6 			"/>
			<line class="st2" x1="1311.5" y1="417.6" x2="1169.5" y2="21.6"/>
			<polyline class="st2" points="942.5,166.6 1117.5,21.6 1169.5,137.6 			"/>
			<polyline class="st2" points="1134.5,321.6 1134.8,316.6 1149.5,17.6 			"/>
			<line class="st2" x1="1134.5" y1="326.6" x2="911.5" y2="110.6"/>
			<polyline class="st2" points="1213.5,21.6 1368.5,58.6 1571.5,8.6 			"/>
			<line class="st2" x1="1494.5" y1="251.6" x2="1639.5" y2="274.6"/>
			<polyline class="st2" points="1169.5,142.6 1361.5,264.6 1492.5,251.6 1331.5,95.6 1134.5,316.6 			"/>
			<polyline class="st2" points="1738.5,316.6 1459.5,48.6 1492.5,249.6 1642.5,334.6 			"/>
			<polyline class="st2" points="1768.5,344.6 1592,302.1 1358.5,264.6 			"/>
			<line class="st2" x1="1624.5" y1="98.6" x2="1492.5" y2="249.6"/>
			<polyline class="st2" points="1328.5,95.6 1169.5,75.6 1184.5,294.6 1333.5,95.6 1501.5,70.6 1363.9,265.4 			"/>
			<line class="st2" x1="1049.5" y1="294.6" x2="1169.5" y2="137.6"/>
			<line class="st2" x1="929.5" y1="110.6" x2="1155.5" y2="21.6"/>
			<polyline class="st2" points="1311.5,412.6 1387.5,367.6 1682.5,206.6 1758.5,65.6 1806.5,181.6 1629.5,98.6 			"/>
			<line class="st2" x1="1511.5" y1="334.6" x2="1172.5" y2="119.3"/>
			<circle class="st3" cx="1199" cy="389.1" r="5"/>
			<circle class="st3" cx="964" cy="394.1" r="5"/>
			<circle class="st3" cx="929" cy="261.1" r="5"/>
			<circle class="st3" cx="1170" cy="21.1" r="5"/>
			<circle class="st3" cx="1364" cy="58.1" r="5"/>
			<circle class="st3" cx="1312" cy="417.1" r="5"/>
			<circle class="st3" cx="1393" cy="470.1" r="5"/>
			<circle class="st3" cx="1681" cy="206.1" r="5"/>
			<circle class="st3" cx="1901" cy="124.1" r="5"/>
			<circle class="st3" cx="1639" cy="275.1" r="5"/>
			<circle class="st3" cx="1719" cy="141.1" r="5"/>
			<circle class="st3" cx="1762" cy="10.1" r="5"/>
			<circle class="st3" cx="1007" cy="201.1" r="5"/>
			<circle class="st3" cx="1151" cy="21.1" r="5"/>
			<circle class="st3" cx="923" cy="204.1" r="5"/>
			<circle class="st3" cx="930" cy="110.1" r="5"/>
			<circle class="st3" cx="911" cy="111.1" r="5"/>
			<circle class="st3" cx="1460" cy="48.1" r="5"/>
			<circle class="st3" cx="1744" cy="314.1" r="5"/>
			<circle class="st3" cx="1903" cy="274.1" r="5"/>
			<circle class="st3" cx="1896" cy="405.1" r="5"/>
			<circle class="st3" cx="1608" cy="488.1" r="5"/>
			<circle class="st3" cx="1388" cy="367.1" r="5"/>
			<circle class="st3" cx="1512" cy="339.1" r="5"/>
			<circle class="st3" cx="1594.5" cy="304.6" r="2.5"/>
			<circle class="st3" cx="1642.5" cy="334.6" r="2.5"/>
			<circle class="st3" cx="1766.5" cy="344.6" r="2.5"/>
			<circle class="st3" cx="1900.5" cy="394.6" r="2.5"/>
			<circle class="st3" cx="1901.5" cy="344.6" r="2.5"/>
			<circle class="st3" cx="1806.5" cy="181.6" r="2.5"/>
			<circle class="st3" cx="1904.5" cy="221.6" r="2.5"/>
			<circle class="st3" cx="1758.5" cy="65.6" r="2.5"/>
			<circle class="st3" cx="1904.5" cy="157.6" r="2.5"/>
			<circle class="st3" cx="1906.5" cy="141.6" r="2.5"/>
			<circle class="st3" cx="1854.5" cy="55.6" r="2.5"/>
			<circle class="st3" cx="1361.5" cy="264.6" r="2.5"/>
			<circle class="st3" cx="1331.5" cy="95.6" r="2.5"/>
			<circle class="st3" cx="1167.5" cy="75.6" r="2.5"/>
			<circle class="st3" cx="1213.5" cy="21.6" r="2.5"/>
			<circle class="st3" cx="1182.5" cy="294.6" r="2.5"/>
			<circle class="st3" cx="1169.5" cy="139.6" r="2.5"/>
			<circle class="st3" cx="1045.5" cy="294.6" r="2.5"/>
			<circle class="st3" cx="934.5" cy="383.6" r="2.5"/>
			<circle class="st3" cx="923.5" cy="344.6" r="2.5"/>
			<circle class="st3" cx="934.5" cy="241.6" r="2.5"/>
			<circle class="st3" cx="928.5" cy="233.6" r="2.5"/>
			<circle class="st3" cx="942.5" cy="168.6" r="2.5"/>
			<circle class="st3" cx="934.5" cy="151.6" r="2.5"/>
			<circle class="st3" cx="1117.5" cy="21.6" r="2.5"/>
			<circle class="st3" cx="1627.5" cy="98.6" r="2.5"/>
			<circle class="st3" cx="1571.5" cy="8.6" r="2.5"/>
			<circle class="st3" cx="1504.5" cy="68.6" r="2.5"/>
			<circle class="st3" cx="1492.5" cy="251.6" r="2.5"/>
			<circle class="st3" cx="1135" cy="321.1" r="5"/>
		</g>
	</g>
</g>
</svg>
