<?xml version="1.0" encoding="UTF-8"?>
<svg width="328px" height="133px" viewBox="0 0 328 133" version="1.1" xmlns="http://www.w3.org/2000/svg" xmlns:xlink="http://www.w3.org/1999/xlink">
    <!-- Generator: Sketch 47 (45396) - http://www.bohemiancoding.com/sketch -->
    <title>logo</title>
    <desc>Created with Sketch.</desc>
    <defs></defs>
    <g id="Welcome" stroke="none" stroke-width="1" fill="none" fill-rule="evenodd">
        <g id="Build---Desktop" transform="translate(-263.000000, -210.000000)" fill="#18D399">
            <g id="Lead" transform="translate(262.000000, -175.000000)">
                <path d="M265.195357,446.592949 C272.045201,446.592949 277.597918,452.153285 277.597918,459.011749 C277.597918,465.870213 272.045201,471.430549 265.195357,471.430549 C258.344882,471.430549 252.792166,465.870213 252.792166,459.011749 C252.792166,452.153285 258.344882,446.592949 265.195357,446.592949 M265.195357,491.523093 C247.262173,491.523093 232.724875,476.967501 232.724875,459.011749 C232.724875,441.055997 247.262173,426.500405 265.195357,426.500405 L277.597918,426.500405 L277.597918,413.216397 L297.665209,413.216397 L297.665209,426.500405 L297.665209,426.600261 L297.665209,459.011749 C297.665209,476.967501 283.127911,491.523093 265.195357,491.523093 Z M136.455279,491.523282 C118.522095,491.523282 103.984797,476.967058 103.984797,459.011938 L103.984797,426.599818 L124.052088,426.599818 L124.052088,459.011938 C124.052088,465.870402 129.604804,471.430738 136.455279,471.430738 C143.305123,471.430738 148.85784,465.870402 148.85784,459.011938 L148.85784,426.599818 L168.92513,426.599818 L168.92513,459.011938 C168.92513,476.967058 154.387833,491.523282 136.455279,491.523282 Z M63.5047567,446.592949 C70.3552319,446.592949 75.9079482,452.152653 75.9079482,459.011749 C75.9079482,465.870213 70.3552319,471.430549 63.5047567,471.430549 C56.6542816,471.430549 51.1021965,465.870213 51.1021965,459.011749 C51.1021965,452.152653 56.6542816,446.592949 63.5047567,446.592949 M63.7370404,491.522461 C45.7502035,491.648861 31.0342745,476.446733 31.0342745,458.436629 L31.0342745,426.600261 L31.0342745,426.500405 L31.0342745,413.346589 L51.1021965,413.346589 L51.1021965,426.454901 C51.1021965,426.480181 50.0682816,426.500405 50.0935298,426.500405 L62.7630901,426.500405 C84.4670972,426.500405 99.5933099,444.095285 95.3471894,465.406957 C92.3956716,480.226725 79.3802106,491.412493 63.7370404,491.522461 Z M205,492 L205,414 L225,414 L225,492 L205,492 Z M177,492 L177,427 L197,427 L197,492 L177,492 Z M1,518 L329,518 L329,385 L1,385 L1,518 Z M177.049375,413 C177.016719,413.328906 177,413.662501 177,414 C177,419.522847 181.477153,424 187,424 C192.522847,424 197,419.522847 197,414 C197,413.662501 196.983281,413.328906 196.950625,413 L177.049375,413 Z M7.78425685,511.274531 L7.78425685,391.724842 L322.215743,391.724842 L322.215743,511.274531 L7.78425685,511.274531 Z" id="logo"></path>
            </g>
        </g>
    </g>
</svg>