<svg width="75" height="104" viewBox="0 0 75 104" xmlns="http://www.w3.org/2000/svg"><title>icn-fullbuild</title><g fill="none" fill-rule="evenodd"><path d="M59.137 101.093c1.434.094 2.929-.171 4.111-.986 1.183-.817 1.993-2.24 1.848-3.669a12.37 12.37 0 0 0-4.299 1.583c-.91.545-1.822 1.339-1.892 2.396" fill="#FFF"/><path d="M58.253 100.374c.078-1.193.906-2.135 2.208-2.914a13.025 13.025 0 0 1 4.527-1.667.654.654 0 0 1 .758.58c.166 1.624-.704 3.29-2.126 4.272-1.241.855-2.837 1.212-4.526 1.1a.654.654 0 0 1-.591-.813.653.653 0 0 1-.25-.558zm4.624-.806c.82-.566 1.387-1.434 1.54-2.324-1.154.276-2.266.729-3.284 1.339-.968.58-1.53 1.217-1.575 1.873 1.268.022 2.43-.275 3.319-.888zM6.85 69.768V75a.327.327 0 0 0 .655 0v-5.232a.327.327 0 0 0-.654 0z" fill="#01B784" fill-rule="nonzero"/><path d="M9.794 72.057H4.561a.327.327 0 1 0 0 .654h5.233a.327.327 0 1 0 0-.654z" fill="#01B784" fill-rule="nonzero"/><path d="M31.316 2.902L7.258 16.792a11.898 11.898 0 0 0-5.95 10.305v27.78c0 4.252 2.267 8.18 5.95 10.305l24.058 13.892a11.898 11.898 0 0 0 11.9 0l24.058-13.892a11.897 11.897 0 0 0 5.95-10.304v-27.78a11.9 11.9 0 0 0-5.95-10.305L43.216 2.903a11.898 11.898 0 0 0-11.9 0" fill="#FCFCFC"/><path d="M30.662 1.77a13.206 13.206 0 0 1 13.208 0l24.058 13.89a13.209 13.209 0 0 1 6.604 11.437v27.78c0 4.72-2.518 9.08-6.604 11.438L43.87 80.207a13.206 13.206 0 0 1-13.208 0L6.604 66.315A13.203 13.203 0 0 1 0 54.878v-27.78c0-4.72 2.517-9.08 6.604-11.438L30.662 1.77zm1.309 2.265L7.91 17.925a10.59 10.59 0 0 0-5.295 9.172v27.78c0 3.785 2.019 7.282 5.296 9.172L31.97 77.941a10.59 10.59 0 0 0 10.59 0l24.06-13.892a10.59 10.59 0 0 0 5.295-9.171v-27.78c0-3.784-2.02-7.28-5.296-9.172L42.562 4.036a10.59 10.59 0 0 0-10.591 0z" fill="#01B784" fill-rule="nonzero"/><path d="M37.266 51.63v-7.123c0-2.321 1.29-4.45 3.348-5.523a.654.654 0 1 0-.605-1.16 7.537 7.537 0 0 0-4.051 6.683v7.123a.654.654 0 1 0 1.308 0zM37.266 60.61v-5.124a.654.654 0 0 0-1.308 0v5.124a.654.654 0 0 0 1.308 0zM52.544 53.125v6.354a.327.327 0 1 0 .654 0v-6.354a.327.327 0 0 0-.654 0z" fill="#01B784" fill-rule="nonzero"/><path d="M56.047 55.974h-6.354a.327.327 0 0 0 0 .654h6.354a.327.327 0 0 0 0-.654zM70.858 8.647V15a.327.327 0 0 0 .654 0V8.647a.327.327 0 1 0-.654 0z" fill="#01B784" fill-rule="nonzero"/><path d="M74.362 11.496h-6.354a.327.327 0 0 0 0 .654h6.354a.327.327 0 1 0 0-.654zM15.504 103.302c3.005-1.177 4.72-2.232 7.745-4.548 3.476-2.661 5.362-7.122 5.3-11.817-.076-5.523-.574-8.794-2.265-12.139a1.308 1.308 0 1 0-2.335 1.18c1.465 2.898 1.913 5.84 1.983 10.994.052 3.913-1.498 7.58-4.274 9.704-2.848 2.181-4.37 3.117-7.108 4.19a1.308 1.308 0 1 0 .954 2.436zM32.39 91.937c.51-1.592.76-3.294.737-4.992a75.4 75.4 0 0 0-.06-2.278.654.654 0 1 0-1.308.057c.03.676.048 1.39.06 2.238.02 1.558-.208 3.12-.674 4.576a.654.654 0 0 0 1.246.399zM20.498 102.693c2.938-1.15 4.605-2.176 7.586-4.459a11.889 11.889 0 0 0 2.464-2.567.654.654 0 0 0-1.066-.758 10.582 10.582 0 0 1-2.193 2.287c-2.893 2.214-4.463 3.18-7.268 4.28a.654.654 0 0 0 .477 1.217zM59.982 100.866c-2.739-1.073-4.26-2.009-7.108-4.19-2.776-2.125-4.326-5.791-4.274-9.705.07-5.153.518-8.095 1.982-10.993a1.308 1.308 0 0 0-2.335-1.18c-1.69 3.345-2.188 6.616-2.263 12.138-.063 4.696 1.823 9.157 5.3 11.818 3.024 2.316 4.74 3.371 7.744 4.548a1.308 1.308 0 0 0 .954-2.436zM23.857 12.208v10.465a.327.327 0 0 0 .654 0V12.208a.327.327 0 1 0-.654 0z" fill="#01B784" fill-rule="nonzero"/><path d="M29.417 17.114H18.95a.327.327 0 1 0 0 .654h10.466a.327.327 0 0 0 0-.654zM55.027 100.287c-3.066.038-4.682-.121-6.303-.8-3.333-1.4-5.57-5.838-5.57-12.714a.654.654 0 0 0-1.309 0c0 7.354 2.488 12.29 6.373 13.92 1.837.77 3.587.942 6.826.902a.654.654 0 0 0-.017-1.308z" fill="#01B784" fill-rule="nonzero"/><path d="M12.676 101.241c-.29-1.407-.946-2.778-2.048-3.7-1.101-.922-2.69-1.323-4.028-.801a12.38 12.38 0 0 0 2.673 3.72c.767.731 1.775 1.4 2.813 1.184" fill="#FFF"/><path d="M12.219 102.284c-1.17.244-2.3-.303-3.397-1.35a13.033 13.033 0 0 1-2.814-3.918.654.654 0 0 1 .355-.886c1.522-.593 3.36-.2 4.685.909 1.157.968 1.926 2.412 2.268 4.07a.654.654 0 0 1-.626.786.653.653 0 0 1-.471.39zm-2.01-4.242c-.765-.64-1.753-.954-2.652-.863a11.734 11.734 0 0 0 2.167 2.808c.817.779 1.581 1.15 2.225 1.017-.316-1.227-.912-2.268-1.74-2.962z" fill="#01B784" fill-rule="nonzero"/><path d="M36.383 102.514c1.155-.855 2.126-2.024 2.501-3.41.376-1.387.074-2.996-.96-3.993a12.393 12.393 0 0 0-2.258 3.986c-.342 1.003-.527 2.199.104 3.05" fill="#FFF"/><path d="M35.244 102.537c-.712-.961-.688-2.215-.197-3.651a13.047 13.047 0 0 1 2.378-4.197.654.654 0 0 1 .953-.05c1.176 1.135 1.59 2.968 1.138 4.637-.394 1.454-1.383 2.757-2.744 3.764a.654.654 0 0 1-.977-.239.653.653 0 0 1-.551-.264zm3.009-3.603c.26-.963.132-1.992-.326-2.77a11.737 11.737 0 0 0-1.642 3.144c-.365 1.069-.382 1.918.008 2.447.982-.802 1.678-1.78 1.96-2.821z" fill="#01B784" fill-rule="nonzero"/><path d="M58.162 101.058c1.257-.694 2.372-1.728 2.925-3.053.554-1.326.465-2.962-.43-4.084a12.39 12.39 0 0 0-2.76 3.656c-.47.95-.809 2.112-.295 3.038" fill="#FFF"/><path d="M57.03 100.932c-.58-1.044-.393-2.283.28-3.645a13.043 13.043 0 0 1 2.907-3.85.654.654 0 0 1 .951.076c1.018 1.277 1.188 3.149.523 4.744-.581 1.392-1.732 2.556-3.212 3.374a.654.654 0 0 1-.937-.365.653.653 0 0 1-.512-.334zm3.454-3.179c.383-.92.39-1.957.038-2.788-.82.856-1.511 1.838-2.04 2.902-.5 1.013-.627 1.852-.31 2.428 1.078-.666 1.895-1.545 2.312-2.542z" fill="#01B784" fill-rule="nonzero"/><path d="M15.102 101.046c.435-1.368.536-2.885.027-4.228s-1.695-2.47-3.119-2.672a12.414 12.414 0 0 0 .508 4.554c.31 1.012.862 2.089 1.872 2.41" fill="#FFF"/><path d="M14.192 101.733c-1.14-.362-1.855-1.392-2.3-2.842a13.068 13.068 0 0 1-.534-4.794.654.654 0 0 1 .744-.599c1.618.23 3.026 1.472 3.639 3.088.534 1.41.497 3.046-.016 4.659a.654.654 0 0 1-.931.379.653.653 0 0 1-.602.109zm.325-4.683c-.353-.932-1.06-1.69-1.887-2.052a11.76 11.76 0 0 0 .513 3.51c.33 1.078.815 1.776 1.441 1.977.326-1.225.316-2.425-.067-3.435z" fill="#01B784" fill-rule="nonzero"/><path d="M6.524 103.392h58.885a1.308 1.308 0 1 0 0-2.616H6.524a1.308 1.308 0 1 0 0 2.616z" fill="#01B784" fill-rule="nonzero"/></g></svg>