<svg width="69" height="105" viewBox="0 0 69 105" xmlns="http://www.w3.org/2000/svg"><title>icn-design</title><g fill="none" fill-rule="evenodd"><path d="M57.57 64.1H5.896" stroke="#01B784" stroke-width="4" stroke-linecap="round" stroke-linejoin="round"/><path d="M14.96 82.053a40.475 40.475 0 0 1-3.053-3.282C8.643 74.86 5.842 70.117 3.766 65.06 1.336 59.144 0 53.043 0 47.704 0 36.68 5.728 26.642 14.938 20.962a31.267 31.267 0 0 1 16.458-4.655c17.34 0 31.396 14.057 31.396 31.397 0 13.148-7.855 29.488-18.314 37.18v8.474c0 4.07-3.3 7.371-7.37 7.371H25.685a7.371 7.371 0 0 1-7.372-7.371v-8.483a33.13 33.13 0 0 1-3.354-2.822zm45.216-34.35c0-15.894-12.885-28.78-28.78-28.78a28.65 28.65 0 0 0-15.085 4.266C7.866 28.397 2.616 37.597 2.616 47.704c0 4.978 1.264 10.746 3.57 16.361 1.978 4.818 4.642 9.33 7.73 13.03a37.864 37.864 0 0 0 2.855 3.07 30.339 30.339 0 0 0 3.602 2.967c.35.244.558.644.558 1.071v9.155a4.755 4.755 0 0 0 4.755 4.755h11.421a4.755 4.755 0 0 0 4.754-4.755v-9.146c0-.427.209-.827.559-1.072 10.015-7.006 17.756-22.884 17.756-35.436z" fill="#01B784" fill-rule="nonzero"/><path fill="#FCFCFC" d="M51.673 19.623h14.39v67.371h-14.39z"/><path d="M24.773 25.103a23.578 23.578 0 0 1 6.623-.946M11.912 64.104a50.154 50.154 0 0 1-.886-2.027C8.978 57.087 7.85 51.982 7.85 47.703c0-8.232 4.19-15.73 11.21-20.06.425-.262.858-.51 1.297-.744M26.163 84.05v-3.253l-2.79-1.952a25.22 25.22 0 0 1-2.98-2.457 32.598 32.598 0 0 1-2.46-2.646 41.004 41.004 0 0 1-3.384-4.727" stroke="#01B784" stroke-width="2" stroke-linecap="round" stroke-linejoin="round"/><path d="M57.224 64.1H4.897M27.471 100.075v2.617h7.85v-2.617" fill="#FFF"/><path stroke="#01B784" stroke-width="4" stroke-linecap="round" stroke-linejoin="round" d="M27.471 100.075v2.617h7.85v-2.617"/><path d="M19.622 87.648H43.17a.654.654 0 0 0 0-1.308H19.622a.654.654 0 1 0 0 1.308zM19.94 91.572h23.548a.654.654 0 1 0 0-1.308H19.94a.654.654 0 1 0 0 1.308zM19.94 95.497h23.548a.654.654 0 1 0 0-1.308H19.94a.654.654 0 1 0 0 1.308z" fill="#01B784" fill-rule="nonzero"/><path d="M25.5 89.61v9.157a.654.654 0 1 0 1.308 0V89.61a.654.654 0 1 0-1.308 0zM51.122 89.662a1.308 1.308 0 0 1-1.308-1.308V18.717c0-.722.586-1.308 1.308-1.308h16.385c.723 0 1.308.586 1.308 1.308v69.637c0 .723-.585 1.308-1.308 1.308H51.122zM66.2 87.046v-67.02H52.43v67.02H66.2z" fill="#01B784" fill-rule="nonzero"/><path d="M56.045 39.2V87.33a.654.654 0 0 0 1.308 0V39.199a.654.654 0 1 0-1.308 0zM61.278 53.635v33.696a.654.654 0 0 0 1.308 0V53.635a.654.654 0 1 0-1.308 0zM57.353 35.387v-8.192a.654.654 0 1 0-1.308 0v8.192a.654.654 0 1 0 1.308 0zM68.816 17.694V9.5c0-5.247-4.253-9.5-9.5-9.5a9.5 9.5 0 0 0-9.5 9.5v8.194a1.308 1.308 0 0 0 2.615 0V9.5a6.883 6.883 0 0 1 6.884-6.883A6.884 6.884 0 0 1 66.2 9.5v8.194a1.308 1.308 0 0 0 2.616 0z" fill-rule="nonzero" fill="#01B784"/><path d="M52.147 13.881h15.36a1.308 1.308 0 0 0 0-2.616h-15.36a1.308 1.308 0 0 0 0 2.616zM49.987 89.004l8.193 14.336a1.308 1.308 0 1 0 2.272-1.298l-8.193-14.336a1.308 1.308 0 1 0-2.272 1.298z" fill-rule="nonzero" fill="#01B784"/><path d="M66.372 87.706l-8.193 14.336a1.308 1.308 0 0 0 2.272 1.298l8.193-14.336a1.308 1.308 0 1 0-2.272-1.298zM57.224 17.66v-1.308a.654.654 0 1 0-1.309 0v1.308a.654.654 0 1 0 1.309 0z" fill-rule="nonzero" fill="#01B784"/><g fill-rule="nonzero" fill="#01B784"><path d="M55.261 96.805h8.15a.654.654 0 0 0 0-1.308h-8.15a.654.654 0 1 0 0 1.308z"/></g></g></svg>