<svg width="301" height="96" viewBox="0 0 301 96" xmlns="http://www.w3.org/2000/svg"><title>logo</title><g fill="none" fill-rule="evenodd"><path d="M196.03 0c-.003.132-.03.241-.03.375V94h22V0h-21.97zM162.36 0c-.215.935-.36 1.903-.36 2.938 0 3.435 1.188 6.301 3.56 8.605 2.376 2.305 5.33 3.457 8.871 3.457 3.536 0 6.515-1.152 8.936-3.457 2.42-2.304 3.633-5.17 3.633-8.605 0-1.031-.124-2.005-.34-2.938h-24.3zM163.143 22c-.068.668-.143 1.331-.143 2.077V94h22V22h-21.857zM131.731 22c-.07.586-.146 1.166-.146 1.822v36.017c0 9.677-4.364 14.512-13.085 14.512-8.726 0-13.086-4.835-13.086-14.512V22H83.145c-.07.586-.145 1.166-.145 1.822v40.202c0 5.212.904 9.747 2.714 13.605 1.811 3.862 4.293 7.071 7.45 9.628 3.152 2.559 6.91 4.49 11.275 5.79C108.8 94.349 113.487 95 118.5 95c5.01 0 9.697-.651 14.06-1.953 4.36-1.3 8.121-3.231 11.276-5.79 3.154-2.557 5.64-5.766 7.45-9.628 1.81-3.858 2.714-8.393 2.714-13.605V22h-22.269z" fill="#03312E"/><path d="M49.918 70.656c-3.036 3.08-6.884 4.622-11.552 4.622-4.668 0-8.52-1.494-11.552-4.482-3.034-2.986-4.55-7.094-4.55-12.322 0-2.426.394-4.692 1.19-6.79.792-2.102 1.912-3.923 3.36-5.462a15.977 15.977 0 0 1 5.11-3.64c1.96-.886 4.108-1.33 6.442-1.33 4.668 0 8.516 1.61 11.552 4.83 3.032 3.22 4.55 7.352 4.55 12.392 0 5.042-1.518 9.102-4.55 12.182m24.924-27.794c-1.82-4.622-4.296-8.564-7.422-11.832-3.128-3.266-6.792-5.812-10.992-7.632-4.2-1.82-8.68-2.73-13.442-2.73H22.402V.41H.03C.028.542 0 .65 0 .784v54.33c0 5.974.606 11.156 1.82 15.542C3.032 75.044 4.76 78.732 7 81.718c3.546 4.667 8.074 8.216 13.582 10.642C26.09 94.786 32.206 96 38.926 96c5.506 0 10.618-.91 15.332-2.73 4.712-1.822 8.796-4.364 12.252-7.632 3.452-3.266 6.162-7.232 8.12-11.902 1.962-4.666 2.942-9.8 2.942-15.402 0-5.692-.91-10.852-2.73-15.472" fill="#00B784"/><path d="M250.654 70.246c3.036 3.08 6.884 4.622 11.552 4.622 4.668 0 8.52-1.494 11.552-4.482 3.034-2.986 4.55-7.094 4.55-12.322 0-2.426-.394-4.692-1.19-6.79-.792-2.102-1.912-3.923-3.36-5.462a15.977 15.977 0 0 0-5.11-3.64c-1.96-.886-4.108-1.33-6.442-1.33-4.668 0-8.516 1.61-11.552 4.83-3.032 3.22-4.55 7.352-4.55 12.392 0 5.042 1.518 9.102 4.55 12.182M225.73 42.452c1.82-4.622 4.296-8.564 7.422-11.832 3.128-3.266 6.792-5.812 10.992-7.632 4.2-1.82 8.68-2.73 13.442-2.73h20.584V0h22.372c.002.132.03.24.03.374v54.33c0 5.974-.606 11.156-1.82 15.542-1.212 4.388-2.94 8.076-5.18 11.062-3.546 4.667-8.074 8.216-13.582 10.642-5.508 2.426-11.624 3.64-18.344 3.64-5.506 0-10.618-.91-15.332-2.73-4.712-1.822-8.796-4.364-12.252-7.632-3.452-3.266-6.162-7.232-8.12-11.902-1.962-4.666-2.942-9.8-2.942-15.402 0-5.692.91-10.852 2.73-15.472" fill="#03312E"/></g></svg>