<svg width="98" height="159" viewBox="0 0 98 159" xmlns="http://www.w3.org/2000/svg" xmlns:xlink="http://www.w3.org/1999/xlink"><title>icn-design</title><defs><path id="a" d="M0 159h97.724V0H0z"/></defs><g fill="none" fill-rule="evenodd"><path d="M80.514 85.255c0 16.23-9.848 37.806-23.896 47.634v11.934a7.91 7.91 0 0 1-7.91 7.91H33.806a7.91 7.91 0 0 1-7.91-7.91v-11.946a41.277 41.277 0 0 1-4.902-4.036 50.86 50.86 0 0 1-3.854-4.144c-4.23-5.07-7.766-11.142-10.354-17.446C3.734 99.819 2 92.065 2 85.255c0-14.136 7.472-26.526 18.68-33.438a39.075 39.075 0 0 1 20.578-5.818c21.68 0 39.256 17.576 39.256 39.256z" fill="#FFF"/><path d="M80.514 85.255c0-21.68-17.576-39.256-39.256-39.256a39.075 39.075 0 0 0-20.578 5.818C9.472 58.729 2 71.119 2 85.255c0 6.81 1.734 14.564 4.786 21.996 2.588 6.304 6.124 12.376 10.354 17.446a50.86 50.86 0 0 0 3.854 4.144 41.277 41.277 0 0 0 4.902 4.036v11.946a7.91 7.91 0 0 0 7.91 7.91h14.902a7.91 7.91 0 0 0 7.91-7.91v-11.934c14.048-9.828 23.896-31.404 23.896-47.634z" stroke="#01B784" stroke-width="4" stroke-linecap="round" stroke-linejoin="round"/><path d="M32.615 55.766a30.828 30.828 0 0 1 8.642-1.234M15.835 106.652c-.404-.87-.79-1.75-1.156-2.644-2.672-6.512-4.144-13.172-4.144-18.754 0-10.742 5.466-20.526 14.624-26.174.554-.342 1.12-.666 1.694-.97M34.43 132.678v-4.244l-3.64-2.548a32.843 32.843 0 0 1-3.89-3.206 42.642 42.642 0 0 1-3.21-3.452 53.391 53.391 0 0 1-4.414-6.166" stroke="#01B784" stroke-width="2" stroke-linecap="round" stroke-linejoin="round"/><path d="M74.955 106.648H6.681" fill="#FFF"/><path d="M74.955 106.648H6.681" stroke="#01B784" stroke-width="4" stroke-linecap="round" stroke-linejoin="round"/><path fill="#FFF" d="M36.137 153.586V157h10.242v-3.414"/><path stroke="#01B784" stroke-width="4" stroke-linecap="round" stroke-linejoin="round" d="M36.137 153.586V157h10.242v-3.414"/><path d="M25.896 136.519h30.722M26.31 141.639h30.723M26.31 146.759h30.723M34.418 139.932v11.948" stroke="#01B784" stroke-width="2" stroke-linecap="round" stroke-linejoin="round"/><mask id="b" fill="#fff"><use xlink:href="#a"/></mask><path fill="#FFF" mask="url(#b)" d="M70.672 135.08h25.05V28.616h-25.05z"/><path stroke="#01B784" stroke-width="4" stroke-linecap="round" stroke-linejoin="round" mask="url(#b)" d="M70.672 135.08h25.05V28.616h-25.05z"/><g mask="url(#b)"><path d="M79.198 59.93v73.586" fill="#FFF"/><path d="M79.198 59.93v73.586" stroke="#01B784" stroke-width="2" stroke-linecap="round" stroke-linejoin="round"/></g><g mask="url(#b)"><path d="M87.198 82v51.516" fill="#FFF"/><path d="M87.198 82v51.516" stroke="#01B784" stroke-width="2" stroke-linecap="round" stroke-linejoin="round"/></g><g mask="url(#b)"><path d="M79.198 54.1V41.578" fill="#FFF"/><path d="M79.198 54.1V41.578" stroke="#01B784" stroke-width="2" stroke-linecap="round" stroke-linejoin="round"/></g><g mask="url(#b)"><path d="M95.724 27.05V14.526C95.724 7.607 90.116 2 83.198 2c-6.916 0-12.524 5.606-12.524 12.524V27.05" fill="#FFF"/><path d="M95.724 27.05V14.526C95.724 7.607 90.116 2 83.198 2c-6.916 0-12.524 5.606-12.524 12.524V27.05" stroke="#01B784" stroke-width="4" stroke-linecap="round" stroke-linejoin="round"/></g><g mask="url(#b)"><path d="M72.24 19.223h23.483" fill="#FFF"/><path d="M72.24 19.223h23.483" stroke="#01B784" stroke-width="4" stroke-linecap="round" stroke-linejoin="round"/></g><g mask="url(#b)"><path d="M70.673 135.081l12.526 21.918" fill="#FFF"/><path d="M70.673 135.081l12.526 21.918" stroke="#01B784" stroke-width="4" stroke-linecap="round" stroke-linejoin="round"/></g><g mask="url(#b)"><path d="M95.724 135.081l-12.526 21.918" fill="#FFF"/><path d="M95.724 135.081l-12.526 21.918" stroke="#01B784" stroke-width="4" stroke-linecap="round" stroke-linejoin="round"/></g><g mask="url(#b)"><path d="M79 27v-2" fill="#FFF"/><path d="M79 27v-2" stroke="#01B784" stroke-width="2" stroke-linecap="round" stroke-linejoin="round"/></g><g mask="url(#b)"><path d="M77 147h12.46" fill="#FFF"/><path d="M77 147h12.46" stroke="#01B784" stroke-width="2" stroke-linecap="round" stroke-linejoin="round"/></g></g></svg>