<svg width="110" height="103" viewBox="0 0 110 103" xmlns="http://www.w3.org/2000/svg"><title>icn-prototype</title><g fill="none" fill-rule="evenodd"><path d="M106.307 72.143H20.408a1.79 1.79 0 0 1-1.79-1.79V4.141c0-.989.802-1.79 1.79-1.79h85.899c.988 0 1.79.801 1.79 1.79v66.212a1.79 1.79 0 0 1-1.79 1.79z" fill="#FCFCFC"/><path d="M106.307 70.53c.098 0 .177-.08.177-.177V4.141a.178.178 0 0 0-.177-.178H20.408a.178.178 0 0 0-.177.178v66.212c0 .098.08.177.177.177h85.899zm0 3.225H20.408a3.402 3.402 0 0 1-3.402-3.402V4.141A3.402 3.402 0 0 1 20.408.739h85.899a3.402 3.402 0 0 1 3.402 3.402v66.212a3.402 3.402 0 0 1-3.402 3.402z" fill="#01B784" fill-rule="nonzero"/><path d="M98.172 80.277H12.275a1.79 1.79 0 0 1-1.79-1.79V12.276c0-.988.802-1.79 1.79-1.79h85.897c.989 0 1.79.802 1.79 1.79v66.213a1.79 1.79 0 0 1-1.79 1.79" fill="#FCFCFC"/><path d="M98.172 78.665c.098 0 .178-.08.178-.177V12.275a.178.178 0 0 0-.178-.177H12.275a.178.178 0 0 0-.177.177v66.213c0 .097.08.177.177.177h85.897zm0 3.225H12.275a3.402 3.402 0 0 1-3.402-3.402V12.275a3.402 3.402 0 0 1 3.402-3.402h85.897a3.402 3.402 0 0 1 3.403 3.402v66.213a3.402 3.402 0 0 1-3.403 3.402z" fill="#01B784" fill-rule="nonzero"/><path d="M90.038 88.411H4.14a1.79 1.79 0 0 1-1.79-1.79V20.41c0-.988.801-1.79 1.79-1.79h85.897c.988 0 1.79.802 1.79 1.79v66.212a1.79 1.79 0 0 1-1.79 1.79" fill="#FCFCFC"/><path d="M90.038 86.799c.098 0 .177-.08.177-.178V20.41a.178.178 0 0 0-.177-.177H4.14a.178.178 0 0 0-.178.177v66.212c0 .098.08.178.178.178h85.897zm0 3.225H4.14A3.402 3.402 0 0 1 .738 86.62V20.41a3.402 3.402 0 0 1 3.403-3.402h85.897a3.402 3.402 0 0 1 3.402 3.402v66.212a3.402 3.402 0 0 1-3.402 3.403z" fill="#01B784" fill-rule="nonzero"/><path d="M2.35 29.268h89.477a.806.806 0 0 0 0-1.613H2.35a.806.806 0 1 0 0 1.613z" fill="#01B784" fill-rule="nonzero"/><path d="M9.509 23.988a1.79 1.79 0 1 1-3.58 0 1.79 1.79 0 0 1 3.58 0M11.298 23.988a1.79 1.79 0 1 1 3.58 0 1.79 1.79 0 0 1-3.58 0M16.667 23.988a1.79 1.79 0 1 1 3.58 0 1.79 1.79 0 0 1-3.58 0" fill="#01B784"/><path d="M18.457 57.901a.806.806 0 0 1-.806-.806V33.83c0-.445.361-.806.806-.806H50.67c.445 0 .806.361.806.806v23.265c0 .445-.36.806-.806.806H18.457zm31.406-1.612V34.637h-30.6v21.652h30.6zM19.351 88.323a.806.806 0 0 1-.806-.806V80.36c0-.445.361-.806.806-.806h32.212c.446 0 .807.361.807.806v7.158c0 .445-.361.806-.807.806H19.351zm31.406-1.612v-5.545h-30.6v5.545h30.6zM56.932 34.636h14.317a.806.806 0 1 0 0-1.612H56.932a.806.806 0 0 0 0 1.612zM56.932 38.216h9.843a.806.806 0 1 0 0-1.613h-9.843a.806.806 0 1 0 0 1.613zM56.932 41.794h14.317a.806.806 0 0 0 0-1.612H56.932a.806.806 0 1 0 0 1.612zM56.932 84.744h9.843a.806.806 0 0 0 0-1.613h-9.843a.806.806 0 1 0 0 1.613zM56.932 54.321h9.843a.806.806 0 0 0 0-1.612h-9.843a.806.806 0 1 0 0 1.612zM56.932 57.9h14.317a.806.806 0 0 0 0-1.612H56.932a.806.806 0 1 0 0 1.613zM18.456 75.796a.806.806 0 0 1-.806-.806V62.463c0-.445.36-.806.806-.806h57.266c.445 0 .806.36.806.806V74.99c0 .445-.36.806-.806.806H18.456zm56.46-1.612V63.269H19.262v10.915h55.654zM7.807 71.41v16.107H9.42V67.833a.806.806 0 1 0-1.613 0v19.684c0 1.075 1.613 1.075 1.613 0V71.411a.806.806 0 0 0-1.613 0zM9.42 64.253v-5.37a.806.806 0 0 0-1.613 0v5.37a.806.806 0 0 0 1.613 0z" fill="#01B784" fill-rule="nonzero"/><path fill="#FCFCFC" d="M90.465 49.418l9.202 9.202-39.112 39.113-9.202-9.204z"/><path d="M53.633 88.53l6.922 6.923L97.387 58.62l-6.922-6.922L53.633 88.53zm37.972-40.253l9.202 9.203c.63.63.63 1.65 0 2.28L61.695 98.873c-.63.63-1.65.63-2.28 0l-9.202-9.204c-.63-.63-.63-1.65 0-2.28l39.111-39.112c.63-.63 1.651-.63 2.28 0z" fill="#01B784" fill-rule="nonzero"/><path d="M83.563 65.522L56.529 92.556" fill="#FFF"/><path d="M82.993 64.952L55.959 91.986a.806.806 0 0 0 1.14 1.14l27.034-27.034a.806.806 0 0 0-1.14-1.14z" fill="#01B784" fill-rule="nonzero"/><path d="M86.439 62.646l4.6-4.6" fill="#FFF"/><path d="M87.009 63.217l4.6-4.6a.806.806 0 1 0-1.14-1.141l-4.6 4.6a.806.806 0 0 0 1.14 1.14z" fill="#01B784" fill-rule="nonzero"/><path d="M100.243 58.045l4.6-4.602a6.506 6.506 0 0 0 0-9.202 6.504 6.504 0 0 0-9.2 0l-4.602 4.602" fill="#FCFCFC"/><path d="M101.383 59.185l4.6-4.602a8.118 8.118 0 0 0 0-11.482 8.116 8.116 0 0 0-11.481 0L89.9 47.703a1.612 1.612 0 0 0 2.28 2.28l4.603-4.602a4.892 4.892 0 0 1 6.92 0 4.893 4.893 0 0 1 0 6.922l-4.6 4.602a1.612 1.612 0 1 0 2.28 2.28z" fill="#01B784" fill-rule="nonzero"/><g><path d="M94.491 46.542l8.628 8.628" fill="#FFF"/><path d="M93.351 47.682l8.628 8.628a1.612 1.612 0 1 0 2.28-2.28l-8.628-8.628a1.612 1.612 0 0 0-2.28 2.28z" fill="#01B784" fill-rule="nonzero"/></g><g><path d="M51.352 88.53l-3.451 12.654" fill="#FFF"/><path d="M49.797 88.105l-3.452 12.654a1.612 1.612 0 1 0 3.112.849l3.451-12.654a1.612 1.612 0 0 0-3.111-.849z" fill="#01B784" fill-rule="nonzero"/></g><g fill-rule="nonzero" fill="#01B784"><path d="M60.131 96.177L47.477 99.63a1.612 1.612 0 0 0 .85 3.11l12.653-3.45a1.612 1.612 0 0 0-.849-3.112z"/></g></g></svg>