<svg width="80" height="104" viewBox="0 0 80 104" xmlns="http://www.w3.org/2000/svg"><title>icn-engineering</title><g fill="none" fill-rule="evenodd"><path d="M14.504 82.35a39.24 39.24 0 0 1-2.96-3.182c-3.165-3.793-5.88-8.39-7.893-13.294C1.296 60.14 0 54.224 0 49.048 0 38.36 5.553 28.628 14.483 23.12a30.313 30.313 0 0 1 15.956-4.512c16.81 0 30.439 13.628 30.439 30.439 0 12.748-7.616 28.59-17.756 36.046v8.216c0 3.947-3.2 7.147-7.146 7.147H24.903a7.147 7.147 0 0 1-7.147-7.147v-8.224a32.12 32.12 0 0 1-3.252-2.736zM58.34 49.048c0-15.41-12.492-27.903-27.902-27.903a27.777 27.777 0 0 0-14.625 4.135C7.626 30.33 2.536 39.25 2.536 49.048c0 4.826 1.226 10.418 3.462 15.863 1.917 4.67 4.5 9.044 7.494 12.632a36.71 36.71 0 0 0 2.768 2.977 29.414 29.414 0 0 0 3.492 2.876c.339.237.54.625.54 1.038v8.876a4.61 4.61 0 0 0 4.61 4.61h11.074a4.61 4.61 0 0 0 4.61-4.61v-8.867c0-.414.201-.802.54-1.039 9.71-6.793 17.215-22.187 17.215-34.356z" fill="#01B784" fill-rule="nonzero"/><path d="M24.195 27.744c2.02-.59 4.12-.891 6.244-.891a.634.634 0 1 0 0-1.268c-2.244 0-4.464.317-6.6.942a.634.634 0 0 0 .356 1.217zM12.124 64.681a47.99 47.99 0 0 1-.847-1.939c-1.957-4.767-3.033-9.635-3.033-13.695 0-7.761 3.948-14.827 10.566-18.91.406-.249.814-.482 1.223-.699a.634.634 0 0 0-.594-1.12c-.433.229-.865.476-1.294.74-6.993 4.314-11.17 11.788-11.17 19.99 0 4.235 1.112 9.264 3.129 14.176.276.672.566 1.336.87 1.99a.634.634 0 0 0 1.15-.533zM24.731 84.286a.634.634 0 1 0 1.269 0v-3.154a.634.634 0 0 0-.27-.52l-2.706-1.892a23.816 23.816 0 0 1-2.814-2.32 30.974 30.974 0 0 1-2.338-2.514 39.118 39.118 0 0 1-3.227-4.509.634.634 0 1 0-1.08.666 40.385 40.385 0 0 0 3.333 4.655c.791.948 1.61 1.828 2.435 2.618.938.9 1.936 1.723 2.963 2.443l2.435 1.703v2.824z" fill="#01B784" fill-rule="nonzero"/><path d="M55.479 63.677H4.747a1.268 1.268 0 0 0 0 2.536H55.48a1.268 1.268 0 0 0 0-2.536zM27.902 101.091v-1.268a1.268 1.268 0 0 0-2.536 0v2.536c0 .7.567 1.269 1.268 1.269h7.61c.7 0 1.268-.568 1.268-1.269v-2.536a1.268 1.268 0 1 0-2.537 0v1.268h-5.073zM19.024 87.774h22.83a.634.634 0 0 0 0-1.268h-22.83a.634.634 0 1 0 0 1.268zM19.333 91.579h22.829a.634.634 0 0 0 0-1.268h-22.83a.634.634 0 1 0 0 1.268zM19.333 95.384h22.829a.634.634 0 0 0 0-1.268h-22.83a.634.634 0 1 0 0 1.268z" fill-rule="nonzero" fill="#01B784"/><path d="M24.723 89.677v8.878a.634.634 0 0 0 1.268 0v-8.878a.634.634 0 1 0-1.268 0z" fill="#01B784" fill-rule="nonzero"/><path d="M78.434 21.137c0-8.63-5.225-16.035-12.683-19.235v16.699a8.244 8.244 0 0 1-8.244 8.244 8.244 8.244 0 0 1-8.244-8.244V1.902c-7.457 3.2-12.683 10.606-12.683 19.235 0 9.48 6.307 17.476 14.95 20.05h-1.966v53.23a7.944 7.944 0 0 0 15.886 0v-53.23h-1.965c8.643-2.574 14.949-10.57 14.949-20.05" fill="#F7F7F7"/><path d="M35.312 21.137A22.193 22.193 0 0 1 48.763.737a1.268 1.268 0 0 1 1.768 1.165v16.699a6.975 6.975 0 1 0 13.952 0V1.902c0-.91.931-1.524 1.768-1.165a22.193 22.193 0 0 1 13.451 20.4c0 8.834-5.21 16.646-12.983 20.19v53.09a9.212 9.212 0 1 1-18.424 0V41.326c-7.773-3.544-12.983-11.356-12.983-20.189zm28.173 21.318c-1.463 0-1.764-2.067-.362-2.484 8.268-2.462 14.043-10.082 14.043-18.834 0-7.261-3.976-13.79-10.147-17.203V18.6a9.512 9.512 0 0 1-9.512 9.512 9.512 9.512 0 0 1-9.512-9.512V3.934a19.652 19.652 0 0 0-10.146 17.203c0 8.752 5.775 16.372 14.044 18.834 1.401.417 1.1 2.484-.362 2.484h-.699v51.962a6.676 6.676 0 0 0 13.35 0V42.455h-.697z" fill="#01B784" fill-rule="nonzero"/><path d="M54.336 54.702v29.85a.634.634 0 1 0 1.269 0v-29.85a.634.634 0 1 0-1.269 0zM55.605 51.007v-4.139a.634.634 0 0 0-1.269 0v4.139a.634.634 0 0 0 1.269 0zM59.41 94.064a1.903 1.903 0 0 0-3.805 0 1.903 1.903 0 0 0 3.804 0zm1.268 0a3.172 3.172 0 0 1-6.342 0 3.172 3.172 0 0 1 6.342 0z" fill-rule="nonzero" fill="#01B784"/></g></svg>