<svg width="137" height="127" viewBox="0 0 137 127" xmlns="http://www.w3.org/2000/svg" xmlns:xlink="http://www.w3.org/1999/xlink"><title>icn-prototype</title><defs><path id="a" d="M0 126.423h134.996V0H0z"/></defs><g transform="translate(1 .577)" fill="none" fill-rule="evenodd"><path d="M130.861 88.485H24.314a2.22 2.22 0 0 1-2.22-2.22V4.136a2.22 2.22 0 0 1 2.22-2.22h106.547a2.22 2.22 0 0 1 2.22 2.22v82.129a2.22 2.22 0 0 1-2.22 2.22z" fill="#FFF"/><path d="M130.861 88.485H24.314a2.22 2.22 0 0 1-2.22-2.22V4.136a2.22 2.22 0 0 1 2.22-2.22h106.547a2.22 2.22 0 0 1 2.22 2.22v82.129a2.22 2.22 0 0 1-2.22 2.22z" stroke="#01B784" stroke-width="4" stroke-linecap="round" stroke-linejoin="round"/><path d="M120.771 98.575H14.226a2.22 2.22 0 0 1-2.22-2.22V14.226a2.22 2.22 0 0 1 2.22-2.22h106.545a2.22 2.22 0 0 1 2.22 2.22v82.129a2.22 2.22 0 0 1-2.22 2.22" fill="#FFF"/><path d="M120.771 98.575H14.226a2.22 2.22 0 0 1-2.22-2.22V14.226a2.22 2.22 0 0 1 2.22-2.22h106.545a2.22 2.22 0 0 1 2.22 2.22v82.129a2.22 2.22 0 0 1-2.22 2.22z" stroke="#01B784" stroke-width="4" stroke-linecap="round" stroke-linejoin="round"/><path d="M110.681 108.664H4.136a2.22 2.22 0 0 1-2.22-2.22V24.315a2.22 2.22 0 0 1 2.22-2.22H110.68a2.22 2.22 0 0 1 2.22 2.22v82.129a2.22 2.22 0 0 1-2.22 2.22" fill="#FFF"/><path d="M110.681 108.664H4.136a2.22 2.22 0 0 1-2.22-2.22V24.315a2.22 2.22 0 0 1 2.22-2.22H110.68a2.22 2.22 0 0 1 2.22 2.22v82.129a2.22 2.22 0 0 1-2.22 2.22z" stroke="#01B784" stroke-width="4" stroke-linecap="round" stroke-linejoin="round"/><path d="M1.915 34.303h110.986" stroke="#01B784" stroke-width="2" stroke-linecap="round" stroke-linejoin="round"/><path d="M10.794 28.754a2.22 2.22 0 1 1-4.44 0 2.22 2.22 0 0 1 4.44 0M13.014 28.754a2.22 2.22 0 1 1 4.44 0 2.22 2.22 0 0 1-4.44 0M19.673 28.754a2.22 2.22 0 1 1 4.44 0 2.22 2.22 0 0 1-4.44 0" fill="#01B784"/><mask id="b" fill="#fff"><use xlink:href="#a"/></mask><path stroke="#01B784" stroke-width="2" stroke-linecap="round" stroke-linejoin="round" mask="url(#b)" d="M21.894 69.82H61.85V40.963H21.894zM23.003 107.555h39.955v-8.878H23.003zM69.617 40.962h17.759M69.617 45.402h12.21M69.617 49.841h17.759M69.617 103.115h12.21M69.617 65.38h12.21M69.617 69.82h17.759M21.892 92.016h71.032V76.478H21.892zM9.684 87.577v19.978V83.14M9.684 78.698v-6.66"/><path fill="#FFF" mask="url(#b)" d="M111.21 60.297l11.415 11.414-48.513 48.516-11.415-11.416z"/><path stroke="#01B784" stroke-width="4" stroke-linecap="round" stroke-linejoin="round" mask="url(#b)" d="M111.21 60.297l11.415 11.414-48.513 48.516-11.415-11.416z"/><g mask="url(#b)"><path d="M102.65 80.273l-33.533 33.533" fill="#FFF"/><path d="M102.65 80.273l-33.533 33.533" stroke="#01B784" stroke-width="2" stroke-linecap="round" stroke-linejoin="round"/></g><g mask="url(#b)"><path d="M106.217 76.706l5.707-5.707" fill="#FFF"/><path d="M106.217 76.706l5.707-5.707" stroke="#01B784" stroke-width="2" stroke-linecap="round" stroke-linejoin="round"/></g><g mask="url(#b)"><path d="M123.34 70.999l5.706-5.709a8.07 8.07 0 0 0 0-11.414 8.067 8.067 0 0 0-11.413 0l-5.708 5.708" fill="#FFF"/><path d="M123.34 70.999l5.706-5.709a8.07 8.07 0 0 0 0-11.414 8.067 8.067 0 0 0-11.413 0l-5.708 5.708" stroke="#01B784" stroke-width="4" stroke-linecap="round" stroke-linejoin="round"/></g><g mask="url(#b)"><path d="M116.205 56.73l10.702 10.701" fill="#FFF"/><path d="M116.205 56.73l10.702 10.701" stroke="#01B784" stroke-width="4" stroke-linecap="round" stroke-linejoin="round"/></g><g mask="url(#b)"><path d="M62.697 108.81l-4.281 15.696" fill="#FFF"/><path d="M62.697 108.81l-4.281 15.696" stroke="#01B784" stroke-width="4" stroke-linecap="round" stroke-linejoin="round"/></g><g mask="url(#b)"><path d="M74.112 120.226l-15.695 4.281" fill="#FFF"/><path d="M74.112 120.226l-15.695 4.281" stroke="#01B784" stroke-width="4" stroke-linecap="round" stroke-linejoin="round"/></g></g></svg>