<svg width="132" height="160" viewBox="0 0 132 160" xmlns="http://www.w3.org/2000/svg"><title>icn-engineering</title><g fill="none" fill-rule="evenodd"><path d="M50.941 56h4.118c6.02 0 10.9 4.88 10.9 10.9v80.2c0 6.02-4.88 10.9-10.9 10.9h-4.118c-6.02 0-10.9-4.88-10.9-10.9V66.9c0-6.02 4.88-10.9 10.9-10.9" fill="#FFF"/><path d="M50.941 56h4.118c6.02 0 10.9 4.88 10.9 10.9v80.2c0 6.02-4.88 10.9-10.9 10.9h-4.118c-6.02 0-10.9-4.88-10.9-10.9V66.9c0-6.02 4.88-10.9 10.9-10.9z" stroke="#01B784" stroke-width="4" stroke-linecap="round" stroke-linejoin="round"/><path d="M104 104.941v4.118c0 6.02-4.88 10.9-10.9 10.9H12.9c-6.02 0-10.9-4.88-10.9-10.9v-4.118c0-6.02 4.88-10.9 10.9-10.9h80.2c6.02 0 10.9 4.88 10.9 10.9" fill="#FFF"/><path d="M104 104.941v4.118c0 6.02-4.88 10.9-10.9 10.9H12.9c-6.02 0-10.9-4.88-10.9-10.9v-4.118c0-6.02 4.88-10.9 10.9-10.9h80.2c6.02 0 10.9 4.88 10.9 10.9z" stroke="#01B784" stroke-width="4" stroke-linecap="round" stroke-linejoin="round"/><path d="M87.606 69.481l2.912 2.912c4.256 4.256 4.256 11.158 0 15.416l-56.71 56.71c-4.256 4.256-11.158 4.256-15.414 0l-2.914-2.912c-4.256-4.258-4.256-11.16 0-15.416l56.71-56.71c4.258-4.256 11.16-4.256 15.416 0" fill="#FFF"/><path d="M87.606 69.481l2.912 2.912c4.256 4.256 4.256 11.158 0 15.416l-56.71 56.71c-4.256 4.256-11.158 4.256-15.414 0l-2.914-2.912c-4.256-4.258-4.256-11.16 0-15.416l56.71-56.71c4.258-4.256 11.16-4.256 15.416 0z" stroke="#01B784" stroke-width="4" stroke-linecap="round" stroke-linejoin="round"/><path d="M18.394 69.481l-2.912 2.912c-4.256 4.256-4.256 11.158 0 15.416l56.71 56.71c4.256 4.256 11.158 4.256 15.414 0l2.914-2.912c4.256-4.258 4.256-11.16 0-15.416l-56.71-56.71c-4.258-4.256-11.16-4.256-15.416 0" fill="#FFF"/><path d="M18.394 69.481l-2.912 2.912c-4.256 4.256-4.256 11.158 0 15.416l56.71 56.71c4.256 4.256 11.158 4.256 15.414 0l2.914-2.912c4.256-4.258 4.256-11.16 0-15.416l-56.71-56.71c-4.258-4.256-11.16-4.256-15.416 0z" stroke="#01B784" stroke-width="4" stroke-linecap="round" stroke-linejoin="round"/><path d="M95.222 107c0 23.086-18.716 41.804-41.804 41.804-23.086 0-41.802-18.718-41.802-41.804 0-23.086 18.716-41.804 41.802-41.804 23.088 0 41.804 18.718 41.804 41.804" fill="#FFF"/><path d="M95.222 107c0 23.086-18.716 41.804-41.804 41.804-23.086 0-41.802-18.718-41.802-41.804 0-23.086 18.716-41.804 41.802-41.804 23.088 0 41.804 18.718 41.804 41.804z" stroke="#01B784" stroke-width="4" stroke-linecap="round" stroke-linejoin="round"/><path d="M24.22 87.487c6.298-9.408 17.026-15.602 29.198-15.602 19.394 0 35.116 15.722 35.116 35.114 0 19.394-15.722 35.116-35.116 35.116-12.12 0-22.808-6.142-29.116-15.482" fill="#FFF"/><path d="M24.22 87.487c6.298-9.408 17.026-15.602 29.198-15.602 19.394 0 35.116 15.722 35.116 35.114 0 19.394-15.722 35.116-35.116 35.116-12.12 0-22.808-6.142-29.116-15.482" stroke="#01B784" stroke-width="2" stroke-linecap="round" stroke-linejoin="round"/><path d="M19.284 98.722a34.924 34.924 0 0 1 1.76-5.346" fill="#FFF"/><path d="M19.284 98.722a34.924 34.924 0 0 1 1.76-5.346" stroke="#01B784" stroke-width="2" stroke-linecap="round" stroke-linejoin="round"/><path d="M64.287 107c0 6.002-4.866 10.87-10.87 10.87-6.002 0-10.868-4.868-10.868-10.87 0-6.002 4.866-10.87 10.868-10.87 6.004 0 10.87 4.868 10.87 10.87" fill="#FFF"/><path d="M64.287 107c0 6.002-4.866 10.87-10.87 10.87-6.002 0-10.868-4.868-10.868-10.87 0-6.002 4.866-10.87 10.868-10.87 6.004 0 10.87 4.868 10.87 10.87z" stroke="#01B784" stroke-width="4" stroke-linecap="round" stroke-linejoin="round"/><path d="M53.418 80.082a2.909 2.909 0 0 1 2.91 2.91 2.909 2.909 0 0 1-2.91 2.91 2.909 2.909 0 0 1-2.91-2.91 2.909 2.909 0 0 1 2.91-2.91" fill="#FFF"/><path d="M53.418 80.082a2.909 2.909 0 0 1 2.91 2.91 2.909 2.909 0 0 1-2.91 2.91 2.909 2.909 0 0 1-2.91-2.91 2.909 2.909 0 0 1 2.91-2.91z" stroke="#01B784" stroke-width="2" stroke-linecap="round" stroke-linejoin="round"/><path d="M26.5 107a2.909 2.909 0 0 1 2.91-2.91 2.909 2.909 0 0 1 2.91 2.91 2.909 2.909 0 0 1-2.91 2.91A2.909 2.909 0 0 1 26.5 107" fill="#FFF"/><path d="M26.5 107a2.909 2.909 0 0 1 2.91-2.91 2.909 2.909 0 0 1 2.91 2.91 2.909 2.909 0 0 1-2.91 2.91A2.909 2.909 0 0 1 26.5 107z" stroke="#01B784" stroke-width="2" stroke-linecap="round" stroke-linejoin="round"/><path d="M53.418 133.918a2.909 2.909 0 0 1-2.91-2.91 2.909 2.909 0 0 1 2.91-2.91 2.909 2.909 0 0 1 2.91 2.91 2.909 2.909 0 0 1-2.91 2.91" fill="#FFF"/><path d="M53.418 133.918a2.909 2.909 0 0 1-2.91-2.91 2.909 2.909 0 0 1 2.91-2.91 2.909 2.909 0 0 1 2.91 2.91 2.909 2.909 0 0 1-2.91 2.91z" stroke="#01B784" stroke-width="2" stroke-linecap="round" stroke-linejoin="round"/><path d="M80.336 107a2.909 2.909 0 0 1-2.91 2.91 2.909 2.909 0 0 1-2.91-2.91 2.909 2.909 0 0 1 2.91-2.91 2.909 2.909 0 0 1 2.91 2.91" fill="#FFF"/><path d="M80.336 107a2.909 2.909 0 0 1-2.91 2.91 2.909 2.909 0 0 1-2.91-2.91 2.909 2.909 0 0 1 2.91-2.91 2.909 2.909 0 0 1 2.91 2.91z" stroke="#01B784" stroke-width="2" stroke-linecap="round" stroke-linejoin="round"/><path d="M34.384 87.966a2.912 2.912 0 0 1 4.116 4.116 2.912 2.912 0 0 1-4.116-4.116" fill="#FFF"/><path d="M34.384 87.966a2.912 2.912 0 0 1 4.116 4.116 2.912 2.912 0 0 1-4.116-4.116z" stroke="#01B784" stroke-width="2" stroke-linecap="round" stroke-linejoin="round"/><path d="M34.384 126.034a2.912 2.912 0 0 1 4.116-4.116 2.912 2.912 0 0 1-4.116 4.116" fill="#FFF"/><path d="M34.384 126.034a2.912 2.912 0 0 1 4.116-4.116 2.912 2.912 0 0 1-4.116 4.116z" stroke="#01B784" stroke-width="2" stroke-linecap="round" stroke-linejoin="round"/><path d="M72.452 126.034a2.912 2.912 0 0 1-4.116-4.116 2.912 2.912 0 0 1 4.116 4.116" fill="#FFF"/><path d="M72.452 126.034a2.912 2.912 0 0 1-4.116-4.116 2.912 2.912 0 0 1 4.116 4.116z" stroke="#01B784" stroke-width="2" stroke-linecap="round" stroke-linejoin="round"/><path d="M72.452 87.966a2.912 2.912 0 0 1-4.116 4.116 2.912 2.912 0 0 1 4.116-4.116" fill="#FFF"/><path d="M72.452 87.966a2.912 2.912 0 0 1-4.116 4.116 2.912 2.912 0 0 1 4.116-4.116z" stroke="#01B784" stroke-width="2" stroke-linecap="round" stroke-linejoin="round"/><path d="M129.693 31.87c0-13.4-8.116-24.9-19.696-29.87v25.93c0 7.07-5.73 12.804-12.802 12.804-7.07 0-12.802-5.734-12.802-12.804V2c-11.58 4.97-19.696 16.47-19.696 29.87 0 14.72 9.794 27.138 23.216 31.134h-3.052v82.66c0 6.814 5.522 12.336 12.334 12.336 6.812 0 12.334-5.522 12.334-12.336v-82.66h-3.052c13.422-3.996 23.216-16.414 23.216-31.134" fill="#FFF"/><path d="M129.693 31.87c0-13.4-8.116-24.9-19.696-29.87v25.93c0 7.07-5.73 12.804-12.802 12.804-7.07 0-12.802-5.734-12.802-12.804V2c-11.58 4.97-19.696 16.47-19.696 29.87 0 14.72 9.794 27.138 23.216 31.134h-3.052v82.66c0 6.814 5.522 12.336 12.334 12.336 6.812 0 12.334-5.522 12.334-12.336v-82.66h-3.052c13.422-3.996 23.216-16.414 23.216-31.134z" stroke="#01B784" stroke-width="4" stroke-linecap="round" stroke-linejoin="round"/><path d="M93.257 83.993v46.354" fill="#FFF"/><path d="M93.257 83.993v46.354" stroke="#01B784" stroke-width="2" stroke-linecap="round" stroke-linejoin="round"/><g><path d="M93.257 78.254v-6.426" fill="#FFF"/><path d="M93.257 78.254v-6.426" stroke="#01B784" stroke-width="2" stroke-linecap="round" stroke-linejoin="round"/></g><path d="M101.135 145.118a3.94 3.94 0 1 1-7.88.001 3.94 3.94 0 0 1 7.88 0" fill="#FFF"/><path d="M101.135 145.118a3.94 3.94 0 1 1-7.88.001 3.94 3.94 0 0 1 7.88 0z" stroke="#01B784" stroke-width="2" stroke-linecap="round" stroke-linejoin="round"/></g></svg>