<svg width="68" height="104" viewBox="0 0 68 104" xmlns="http://www.w3.org/2000/svg"><title>icn-mvb</title><g fill="none" fill-rule="evenodd"><path fill="#FFF" d="M4.426 69.964h59.007V59.369H4.426z"/><path d="M4.426 71.439c-.815 0-1.476-.66-1.476-1.475V59.369c0-.815.66-1.475 1.476-1.475h59.007c.814 0 1.475.66 1.475 1.475v10.595c0 .814-.66 1.475-1.475 1.475H4.426zm57.531-2.95v-7.645H5.901v7.644h56.056z" fill="#01B784" fill-rule="nonzero"/><path fill="#F7F7F7" d="M52.287 101.746H15.572l-5.246-31.782H57.53z"/><path d="M55.793 71.439H12.064l4.76 28.832h34.212l4.757-28.832zm-3.506 31.783H15.572a1.475 1.475 0 0 1-1.456-1.235L8.87 70.204a1.475 1.475 0 0 1 1.456-1.716H57.53c.911 0 1.604.817 1.456 1.716l-5.244 31.783a1.475 1.475 0 0 1-1.456 1.235z" fill="#01B784" fill-rule="nonzero"/><path d="M20.444 83.605l-.712-4.278a.738.738 0 0 0-1.455.242l.712 4.278a.738.738 0 1 0 1.455-.242zM23.448 101.625L20.992 86.89a.738.738 0 0 0-1.455.242l2.456 14.736a.738.738 0 1 0 1.455-.243z" fill="#01B784" fill-rule="nonzero"/><path d="M1.475 102.484h64.908H1.475z" fill="#FFF"/><path d="M1.475 103.96h64.908a1.475 1.475 0 0 0 0-2.951H1.475a1.475 1.475 0 1 0 0 2.95z" fill="#01B784" fill-rule="nonzero"/><path d="M33.928 58.966V44.214v14.752z" fill="#FFF"/><path d="M35.404 58.966V44.214a1.475 1.475 0 0 0-2.95 0v14.752a1.475 1.475 0 1 0 2.95 0zM8.113 60.441v9.523a.738.738 0 1 0 1.475 0V60.44a.738.738 0 1 0-1.475 0zM12.673 60.441v9.523a.738.738 0 0 0 1.476 0V60.44a.738.738 0 1 0-1.476 0zM17.233 60.441v9.523a.738.738 0 1 0 1.475 0V60.44a.738.738 0 1 0-1.475 0zM21.792 60.441v9.523a.738.738 0 1 0 1.476 0V60.44a.738.738 0 1 0-1.476 0zM26.352 60.441v9.523a.738.738 0 0 0 1.475 0V60.44a.738.738 0 1 0-1.475 0zM30.911 60.441v9.523a.738.738 0 0 0 1.476 0V60.44a.738.738 0 1 0-1.476 0zM35.47 60.441v9.523a.738.738 0 0 0 1.476 0V60.44a.738.738 0 1 0-1.475 0zM40.031 60.441v9.523a.738.738 0 1 0 1.475 0V60.44a.738.738 0 1 0-1.475 0zM44.59 60.441v9.523a.738.738 0 1 0 1.476 0V60.44a.738.738 0 1 0-1.475 0zM49.15 60.441v9.523a.738.738 0 1 0 1.475 0V60.44a.738.738 0 1 0-1.475 0zM53.71 60.441v9.523a.738.738 0 1 0 1.475 0V60.44a.738.738 0 1 0-1.475 0zM58.27 60.441v9.523a.738.738 0 0 0 1.474 0V60.44a.738.738 0 1 0-1.475 0z" fill="#01B784" fill-rule="nonzero"/><path d="M33.929 39.789c0 6.11-4.954 11.064-11.064 11.064s-11.064-4.954-11.064-11.064 4.954-11.064 11.064-11.064S33.929 33.68 33.929 39.79" fill="#F7F7F7"/><path d="M32.454 39.789c0-5.296-4.294-9.589-9.589-9.589-5.296 0-9.589 4.293-9.589 9.589 0 5.295 4.293 9.589 9.589 9.589 5.295 0 9.589-4.294 9.589-9.59zm2.95 0c0 6.925-5.614 12.539-12.539 12.539s-12.54-5.614-12.54-12.54c0-6.924 5.615-12.538 12.54-12.538 6.925 0 12.539 5.614 12.539 12.539z" fill="#01B784" fill-rule="nonzero"/><path d="M56.056 39.789c0 6.11-4.953 11.064-11.063 11.064s-11.064-4.954-11.064-11.064 4.953-11.064 11.064-11.064c6.11 0 11.063 4.954 11.063 11.064" fill="#F7F7F7"/><path d="M54.581 39.789c0-5.296-4.293-9.589-9.588-9.589-5.296 0-9.589 4.293-9.589 9.589 0 5.295 4.293 9.589 9.589 9.589 5.295 0 9.588-4.294 9.588-9.59zm2.95 0c0 6.925-5.613 12.539-12.538 12.539s-12.54-5.614-12.54-12.54c0-6.924 5.615-12.538 12.54-12.538 6.925 0 12.539 5.614 12.539 12.539z" fill="#01B784" fill-rule="nonzero"/><path d="M33.929 17.661c0 6.11-4.954 11.064-11.064 11.064s-11.064-4.954-11.064-11.064S16.755 6.597 22.865 6.597s11.064 4.954 11.064 11.064" fill="#F7F7F7"/><path d="M32.454 17.661c0-5.295-4.294-9.588-9.589-9.588-5.296 0-9.589 4.293-9.589 9.588 0 5.296 4.293 9.589 9.589 9.589 5.295 0 9.589-4.293 9.589-9.589zm2.95 0c0 6.925-5.614 12.54-12.539 12.54s-12.54-5.615-12.54-12.54c0-6.925 5.615-12.539 12.54-12.539 6.925 0 12.539 5.614 12.539 12.54z" fill="#01B784" fill-rule="nonzero"/><path d="M56.056 17.661c0 6.11-4.953 11.064-11.063 11.064s-11.064-4.954-11.064-11.064S38.882 6.597 44.993 6.597c6.11 0 11.063 4.954 11.063 11.064" fill="#F7F7F7"/><path d="M54.581 17.661c0-5.295-4.293-9.588-9.588-9.588-5.296 0-9.589 4.293-9.589 9.588 0 5.296 4.293 9.589 9.589 9.589 5.295 0 9.588-4.293 9.588-9.589zm2.95 0c0 6.925-5.613 12.54-12.538 12.54s-12.54-5.615-12.54-12.54c0-6.925 5.615-12.539 12.54-12.539 6.925 0 12.539 5.614 12.539 12.54z" fill="#01B784" fill-rule="nonzero"/><path d="M48.68 28.725c0 8.147-6.604 14.752-14.751 14.752-8.146 0-14.752-6.605-14.752-14.752s6.606-14.752 14.752-14.752c8.147 0 14.752 6.605 14.752 14.752" fill="#F7F7F7"/><path d="M47.205 28.725c0-7.333-5.944-13.277-13.276-13.277s-13.277 5.945-13.277 13.277c0 7.332 5.945 13.277 13.277 13.277 7.332 0 13.276-5.944 13.276-13.277zm2.95 0c0 8.962-7.264 16.227-16.226 16.227-8.961 0-16.227-7.265-16.227-16.227s7.266-16.227 16.227-16.227c8.962 0 16.227 7.265 16.227 16.227z" fill="#01B784" fill-rule="nonzero"/><path d="M24.799 25.786a9.547 9.547 0 0 1 1.938-3.402.738.738 0 1 0-1.106-.977 11.022 11.022 0 0 0-2.237 3.928.738.738 0 0 0 1.405.45zM31.426 37.984a9.593 9.593 0 0 1-7.085-9.258.738.738 0 0 0-1.475 0c0 5.031 3.387 9.39 8.176 10.682a.738.738 0 0 0 .384-1.424zM7.663 1.107v9.178a.369.369 0 1 0 .738 0V1.107a.369.369 0 0 0-.738 0z" fill="#01B784" fill-rule="nonzero"/><path d="M12.62 5.327H3.443a.369.369 0 1 0 0 .737h9.179a.369.369 0 0 0 0-.737zM59.762 24.71v7.164a.369.369 0 1 0 .738 0V24.71a.369.369 0 0 0-.738 0z" fill="#01B784" fill-rule="nonzero"/><path d="M63.713 27.923h-7.165a.369.369 0 1 0 0 .737h7.165a.369.369 0 1 0 0-.737zM9.336 48.312v4.753a.369.369 0 1 0 .738 0v-4.753a.369.369 0 1 0-.738 0z" fill="#01B784" fill-rule="nonzero"/><path d="M12.082 50.32H7.33a.369.369 0 0 0 0 .737h4.753a.369.369 0 0 0 0-.737z" fill="#01B784" fill-rule="nonzero"/></g></svg>