<svg width="143" height="147" viewBox="0 0 143 147" xmlns="http://www.w3.org/2000/svg"><title>icn-fullbuild</title><g fill="none" fill-rule="evenodd"><path d="M16.629 17.945h48.872v63.5h-63.5V32.573c0-8.078 6.548-14.628 14.628-14.628" fill="#FFF"/><path d="M16.629 17.945h48.872v63.5h-63.5V32.573c0-8.078 6.548-14.628 14.628-14.628z" stroke="#01B784" stroke-width="4" stroke-linecap="round" stroke-linejoin="round"/><path d="M9 61.279v-16M33 24.945h4.88M9 40.28v-5.7c0-5.32 4.314-9.634 9.636-9.634h9.03" stroke="#01B784" stroke-width="2" stroke-linecap="round" stroke-linejoin="round"/><path d="M2 81.445h63.5v63.5H16.628C8.55 144.945 2 138.395 2 130.317V81.445z" fill="#FFF"/><path d="M2 81.445h63.5v63.5H16.628C8.55 144.945 2 138.395 2 130.317V81.445z" stroke="#01B784" stroke-width="4" stroke-linecap="round" stroke-linejoin="round"/><path d="M19.845 84.403a19.905 19.905 0 0 1-.102-2.024c0-7.736 6.27-14.008 14.008-14.008 7.736 0 14.008 6.272 14.008 14.008 0 .688-.05 1.362-.146 2.024" fill="#FFF"/><path d="M19.845 84.403a19.905 19.905 0 0 1-.102-2.024c0-7.736 6.27-14.008 14.008-14.008 7.736 0 14.008 6.272 14.008 14.008 0 .688-.05 1.362-.146 2.024" stroke="#01B784" stroke-width="4" stroke-linecap="round" stroke-linejoin="round"/><path d="M65.5 17.945h48.872c8.078 0 14.628 6.55 14.628 14.628v48.872H65.5v-63.5z" fill="#FFF"/><path d="M65.5 17.945h48.872c8.078 0 14.628 6.55 14.628 14.628v48.872H65.5v-63.5z" stroke="#01B784" stroke-width="4" stroke-linecap="round" stroke-linejoin="round"/><path d="M65.5 81.445H129v48.872c0 8.078-6.55 14.628-14.628 14.628H65.5v-63.5z" fill="#FFF"/><path d="M65.5 81.445H129v48.872c0 8.078-6.55 14.628-14.628 14.628H65.5v-63.5z" stroke="#01B784" stroke-width="4" stroke-linecap="round" stroke-linejoin="round"/><path d="M63.087 35.79c.558-.069 1.45-.103 2.024-.103 7.736 0 14.008 6.27 14.008 14.008 0 7.736-6.272 14.008-14.008 14.008-.688 0-1.362-.05-2.024-.146" fill="#FFF"/><path d="M63.087 35.79c.558-.069 1.45-.103 2.024-.103 7.736 0 14.008 6.27 14.008 14.008 0 7.736-6.272 14.008-14.008 14.008-.688 0-1.362-.05-2.024-.146" stroke="#01B784" stroke-width="4" stroke-linecap="round" stroke-linejoin="round"/><path d="M67.913 127.1c-.558.068-1.45.102-2.024.102-7.736 0-14.008-6.27-14.008-14.008 0-7.736 6.272-14.008 14.008-14.008.688 0 1.362.05 2.024.146" fill="#FFF"/><path d="M67.913 127.1c-.558.068-1.45.102-2.024.102-7.736 0-14.008-6.27-14.008-14.008 0-7.736 6.272-14.008 14.008-14.008.688 0 1.362.05 2.024.146" stroke="#01B784" stroke-width="4" stroke-linecap="round" stroke-linejoin="round"/><path d="M83.345 78.098a19.905 19.905 0 0 0-.102 2.024c0 7.736 6.27 14.008 14.008 14.008 7.736 0 14.008-6.272 14.008-14.008 0-.688-.05-1.362-.146-2.024" fill="#FFF"/><path d="M83.345 78.098a19.905 19.905 0 0 0-.102 2.024c0 7.736 6.27 14.008 14.008 14.008 7.736 0 14.008-6.272 14.008-14.008 0-.688-.05-1.362-.146-2.024" stroke="#01B784" stroke-width="4" stroke-linecap="round" stroke-linejoin="round"/><path d="M9 97.945v-8M9 109.945v-6M96.84 137.279H89.96M120.84 121.945v5.698a9.636 9.636 0 0 1-9.635 9.636h-9.03" stroke="#01B784" stroke-width="2" stroke-linecap="round" stroke-linejoin="round"/><path d="M134 7.945v16M142 15.945h-16M113.857 56.5v9.714M118.714 61.357H109M81.223.5v12.444M87.444 6.722H75" stroke="#01B784" stroke-linecap="round" stroke-linejoin="round"/></g></svg>