<svg width="96" height="102" viewBox="0 0 96 102" xmlns="http://www.w3.org/2000/svg"><title>icn-discovery</title><g fill-rule="nonzero" fill="#01B784"><path d="M34.84 72.764a1.3 1.3 0 0 0-1.3 1.3v23.388a1.3 1.3 0 0 0 2.599 0V74.064a1.3 1.3 0 0 0-1.3-1.3zm0-2.598a3.899 3.899 0 0 1 3.897 3.898v23.388a3.899 3.899 0 0 1-7.796 0V74.064a3.899 3.899 0 0 1 3.898-3.898zM49.613 20.576a1.3 1.3 0 0 0 2.342-1.127C47.945 11.118 42.25 4.423 35.531.199a1.3 1.3 0 0 0-1.382 0C27.544 4.35 21.927 10.902 17.924 19.06a1.3 1.3 0 0 0 2.333 1.145C23.914 12.75 28.96 6.747 34.84 2.847c5.987 3.971 11.108 10.112 14.773 17.729z"/><path d="M38.384 93.966c12.193-9.364 19.843-26.742 19.843-45.89 0-10.296-2.198-20.16-6.272-28.628a1.3 1.3 0 0 0-2.341 1.127c3.902 8.112 6.015 17.59 6.015 27.501 0 18.378-7.31 34.984-18.828 43.829a1.3 1.3 0 0 0 1.583 2.061zM17.924 19.06c-4.201 8.558-6.473 18.563-6.473 29.016 0 19.235 7.72 36.68 20.003 46.011a1.3 1.3 0 1 0 1.572-2.07c-11.6-8.81-18.976-25.48-18.976-43.94 0-10.061 2.182-19.674 6.207-27.873a1.3 1.3 0 0 0-2.333-1.145z"/><path d="M49.94 19.024c-3.69 3.155-9.02 5.015-14.775 5.015-5.99 0-11.52-2.006-15.198-5.366a1.3 1.3 0 0 0-1.753 1.919c4.173 3.812 10.33 6.045 16.95 6.045 6.36 0 12.291-2.069 16.465-5.637a1.3 1.3 0 1 0-1.69-1.976zM26.518 79.7a50.106 50.106 0 0 0 4.886 7.144.65.65 0 0 0 1.003-.825 48.808 48.808 0 0 1-4.758-6.96.65.65 0 1 0-1.13.641z"/><path d="M20.548 64.473c1.35 5.497 3.37 10.638 5.97 15.227a.65.65 0 1 0 1.13-.64c-2.54-4.485-4.517-9.514-5.838-14.896a.65.65 0 0 0-1.262.31zM19 55.627c.163 1.524.378 3.043.644 4.555a.65.65 0 0 0 1.28-.225 67.368 67.368 0 0 1-.632-4.468.65.65 0 1 0-1.292.138zM21.62 27.857a65.664 65.664 0 0 0-2.241 9.753.65.65 0 1 0 1.284.195 64.365 64.365 0 0 1 2.197-9.56.65.65 0 1 0-1.24-.388zM30.655 10.255c-2.13 2.73-4.027 5.782-5.65 9.09a57.06 57.06 0 0 0-1.319 2.885.65.65 0 1 0 1.196.508c.41-.967.84-1.907 1.288-2.82 1.586-3.23 3.436-6.205 5.51-8.864a.65.65 0 1 0-1.025-.8zM40.037 39.63a5.198 5.198 0 1 0-10.397.002 5.198 5.198 0 0 0 10.397-.001zm2.598 0a7.797 7.797 0 1 1-15.593 0 7.797 7.797 0 0 1 15.593 0zM40.037 57.822a5.198 5.198 0 1 0-10.397.001 5.198 5.198 0 0 0 10.397-.001zm2.598 0a7.797 7.797 0 1 1-15.593-.002 7.797 7.797 0 0 1 15.593.002zM10.723 83.537c2.007-3.972 4.729-7.547 7.427-10.379a1.3 1.3 0 1 0-1.881-1.793c-2.86 3.001-5.727 6.767-7.865 11-3.196 6.327-4.09 12.501-1.834 18.167.408 1.024 1.826 1.107 2.35.137a47.422 47.422 0 0 1 1.289-2.158 48.494 48.494 0 0 1 3.448-4.79c3.613-4.394 7.204-6.898 10.32-6.667a1.3 1.3 0 1 0 .192-2.591c-4.216-.313-8.412 2.614-12.519 7.607a50.713 50.713 0 0 0-3.46 4.775c-.787-4.143.171-8.632 2.533-13.308zM58.028 92.07c-4.106-4.993-8.303-7.92-12.518-7.607a1.3 1.3 0 0 0 .192 2.591c3.115-.23 6.706 2.273 10.319 6.667a48.494 48.494 0 0 1 3.448 4.79c.363.573.684 1.103.96 1.578.164.282.275.48.329.58.524.97 1.942.887 2.35-.137 2.257-5.666 1.362-11.84-1.833-18.167-2.139-4.233-5.006-7.999-7.866-11a1.3 1.3 0 1 0-1.88 1.793c2.698 2.832 5.42 6.407 7.426 10.379 2.362 4.676 3.32 9.165 2.533 13.308a50.713 50.713 0 0 0-3.46-4.775z"/><path d="M1.3 101.35h76.662a1.3 1.3 0 1 0 0-2.598H1.299a1.3 1.3 0 1 0 0 2.598z"/><path d="M71.681 100.051v-32.22a1.3 1.3 0 0 0-2.598 0v32.22a1.3 1.3 0 1 0 2.598 0z"/><path d="M91.375 75.324c-2.403 2.11-5.808 3.183-10.298 3.534-3.73.291-7.155.074-10.277-.724a1.3 1.3 0 0 0-.643 2.518c3.42.873 7.124 1.109 11.122.797 4.998-.39 8.907-1.622 11.811-4.173.956-.84 1.786-1.82 2.455-2.9.578-.932-.188-2.116-1.275-1.972-2.059.272-4.311-.204-6.965-1.337-.806-.344-1.45-.649-2.894-1.354-2.112-1.03-3.078-1.472-4.327-1.935a24.473 24.473 0 0 0-9.379-1.493 1.3 1.3 0 1 0 .099 2.597c2.844-.108 5.71.348 8.379 1.334 1.141.422 2.054.84 4.06 1.819 1.51.737 2.182 1.055 3.041 1.422 1.936.826 3.726 1.357 5.44 1.545-.114.11-.23.217-.349.322zM39.67 35.407l-9.107 9.105a.65.65 0 1 0 .919.918l9.106-9.104a.65.65 0 1 0-.919-.92zM33.974 37.872l-4.548 4.548a.65.65 0 0 0 .919.918l4.548-4.547a.65.65 0 1 0-.92-.92zM38.976 52.771l-8.695 8.694a.65.65 0 1 0 .919.92l8.695-8.695a.65.65 0 1 0-.919-.919zM35.273 59.961l-3.248 3.248a.65.65 0 0 0 .918.92l3.249-3.25a.65.65 0 0 0-.919-.918zM56.522 38.98h9.096a.65.65 0 1 0 0-1.298h-9.096a.65.65 0 1 0 0 1.299zM69.516 38.98h2.599a.65.65 0 1 0 0-1.298h-2.6a.65.65 0 1 0 0 1.299zM61.72 59.77h-5.198a.65.65 0 0 0 0 1.3h5.198a.65.65 0 1 0 0-1.3zM13.643 59.77H7.146a.65.65 0 0 0 0 1.3h6.497a.65.65 0 1 0 0-1.3zM4.548 59.77H.65a.65.65 0 0 0 0 1.3h3.898a.65.65 0 1 0 0-1.3zM61.72 50.675h10.395a.65.65 0 1 0 0-1.3H61.72a.65.65 0 1 0 0 1.3zM74.713 50.675h2.6a.65.65 0 1 0 0-1.3h-2.6a.65.65 0 1 0 0 1.3zM12.344 27.287H7.146a.65.65 0 1 0 0 1.299h5.198a.65.65 0 0 0 0-1.3zM4.548 27.287H1.949a.65.65 0 1 0 0 1.299h2.599a.65.65 0 0 0 0-1.3zM7.146 42.879h5.198a.65.65 0 1 0 0-1.3H7.146a.65.65 0 0 0 0 1.3zM52.624 11.694h6.497a.65.65 0 1 0 0-1.3h-6.497a.65.65 0 1 0 0 1.3z"/></g></svg>