<svg width="148" height="156" viewBox="0 0 148 156" xmlns="http://www.w3.org/2000/svg"><title>icn-discovery</title><g stroke="#01B784" fill="none" fill-rule="evenodd" stroke-linecap="round" stroke-linejoin="round"><path d="M53.625 110c2.208 0 4 1.792 4 4v36c0 2.208-1.792 4-4 4s-4-1.792-4-4v-36c0-2.208 1.792-4 4-4zM78.168 30.803C72.176 18.353 63.67 8.315 53.626 2 43.74 8.213 35.358 18.043 29.384 30.219" stroke-width="4"/><path d="M57.862 143.048C75.632 129.402 87.624 103.6 87.624 74c0-15.934-3.476-30.768-9.456-43.198M29.384 30.218C23.224 42.768 19.626 57.81 19.626 74c0 29.73 12.098 55.63 29.998 69.228" stroke-width="4"/><path d="M78.168 30.803C72.302 35.819 63.718 39 54.126 39c-9.97 0-18.874-3.422-24.742-8.782" stroke-width="4"/><path d="M41.688 122.183c2.222 3.922 4.708 7.556 7.422 10.854M32.599 99c2.074 8.448 5.168 16.264 9.088 23.182M30.24 85.516a104.7 104.7 0 0 0 .981 6.944M34.232 43.176a100.068 100.068 0 0 0-3.416 14.864M47.973 16.4c-3.232 4.143-6.116 8.781-8.588 13.817a86.841 86.841 0 0 0-2.006 4.39" stroke-width="2"/><path d="M63.625 61c0 5.522-4.478 10-10 10s-10-4.478-10-10 4.478-10 10-10 10 4.478 10 10zM63.625 89c0 5.522-4.478 10-10 10s-10-4.478-10-10 4.478-10 10-10 10 4.478 10 10zM26.49 111.227C21.704 116.247 4.73 135.823 11.97 154c0 0 12.402-22.94 25.082-22M80.76 111.227c4.785 5.02 21.76 24.596 14.519 42.774 0 0-12.402-22.94-25.082-22M2 154h118M108.333 154v-49.592M108.906 104.025c4.64-.176 9.312.568 13.666 2.176 3.79 1.402 7.31 3.438 11.024 5.026 3.716 1.586 7.764 2.73 11.768 2.2a17.938 17.938 0 0 1-3.398 4.014c-4.592 4.034-10.92 5.456-17.016 5.932-5.51.43-11.112.198-16.468-1.17" stroke-width="4"/><path d="M61.767 55.206L47.75 69.22M53 59l-7 7M60.7 81.934L47.316 95.316M55 93l-5 5M87 59h14M107 59h4M95 93h-8M21 93H11M7 93H1M95 77h16M115 77h4M19 43h-8M7 43H3M11 65h8M81 17h10" stroke-width="2"/></g></svg>