<svg width="151" height="130" viewBox="0 0 151 130" xmlns="http://www.w3.org/2000/svg"><title>icn-mvb</title><g fill="none" fill-rule="evenodd"><path d="M8.5 69v16M16.5 77H.5" stroke="#01B784" stroke-linecap="round" stroke-linejoin="round"/><path d="M37.129 1h48.872v63.5h-63.5V15.628C22.501 7.55 29.049 1 37.129 1" fill="#FFF"/><path stroke="#01B784" stroke-width="2" stroke-linecap="round" stroke-linejoin="round" d="M82 1h4v4"/><path d="M86 12.929v43.608" stroke="#01B784" stroke-width="2" stroke-linecap="round" stroke-linejoin="round" stroke-dasharray="7.927999973297119,7.927999973297119"/><path stroke="#01B784" stroke-width="2" stroke-linecap="round" stroke-linejoin="round" d="M86 60.5v4h-4"/><path d="M74.071 64.5H30.463" stroke="#01B784" stroke-width="2" stroke-linecap="round" stroke-linejoin="round" stroke-dasharray="7.927999973297119,7.927999973297119"/><path stroke="#01B784" stroke-width="2" stroke-linecap="round" stroke-linejoin="round" d="M26.5 64.5h-4v-4"/><path d="M22.5 52.987V15.63C22.5 7.55 29.05 1 37.128 1h41.116" stroke="#01B784" stroke-width="2" stroke-linecap="round" stroke-linejoin="round" stroke-dasharray="7.513999938964844,7.513999938964844"/><path d="M86 1h48.872C142.95 1 149.5 7.55 149.5 15.628V64.5H86V1z" fill="#FFF"/><path stroke="#01B784" stroke-width="2" stroke-linecap="round" stroke-linejoin="round" d="M86 5V1h4"/><path d="M97.513 1h37.358c8.08 0 14.63 6.55 14.63 14.628v41.116" stroke="#01B784" stroke-width="2" stroke-linecap="round" stroke-linejoin="round" stroke-dasharray="7.513999938964844,7.513999938964844"/><path stroke="#01B784" stroke-width="2" stroke-linecap="round" stroke-linejoin="round" d="M149.5 60.5v4h-4"/><path d="M137.571 64.5H93.963" stroke="#01B784" stroke-width="2" stroke-linecap="round" stroke-linejoin="round" stroke-dasharray="7.927999973297119,7.927999973297119"/><path stroke="#01B784" stroke-width="2" stroke-linecap="round" stroke-linejoin="round" d="M90 64.5h-4v-4"/><path d="M86 52.571V8.963" stroke="#01B784" stroke-width="2" stroke-linecap="round" stroke-linejoin="round" stroke-dasharray="7.927999973297119,7.927999973297119"/><path d="M86 64.5h63.5v48.872c0 8.078-6.55 14.628-14.628 14.628H86" fill="#FFF"/><path d="M86 64.5h4" stroke="#01B784" stroke-width="2" stroke-linecap="round" stroke-linejoin="round"/><path d="M97.929 64.5h43.608" stroke="#01B784" stroke-width="2" stroke-linecap="round" stroke-linejoin="round" stroke-dasharray="7.927999973297119,7.927999973297119"/><path stroke="#01B784" stroke-width="2" stroke-linecap="round" stroke-linejoin="round" d="M145.5 64.5h4v4"/><path d="M149.5 76.013v37.358c0 8.08-6.55 14.63-14.628 14.63H93.756" stroke="#01B784" stroke-width="2" stroke-linecap="round" stroke-linejoin="round" stroke-dasharray="7.513999938964844,7.513999938964844"/><path d="M90 128h-4" stroke="#01B784" stroke-width="2" stroke-linecap="round" stroke-linejoin="round"/><path d="M83.587 18.845c.558-.068 1.45-.102 2.024-.102 7.736 0 14.008 6.27 14.008 14.008 0 7.736-6.272 14.008-14.008 14.008-.688 0-1.362-.05-2.024-.146" fill="#FFF"/><path d="M83.587 18.845c.558-.068 1.45-.102 2.024-.102.67 0 1.326.046 1.97.138" stroke="#01B784" stroke-width="2" stroke-linecap="round" stroke-linejoin="round"/><path d="M94.769 22.15a13.975 13.975 0 0 1 4.85 10.6c0 5.66-3.358 10.536-8.19 12.746" stroke="#01B784" stroke-width="2" stroke-linecap="round" stroke-linejoin="round" stroke-dasharray="8,8"/><path d="M87.578 46.62a14.151 14.151 0 0 1-3.992-.008" stroke="#01B784" stroke-width="2" stroke-linecap="round" stroke-linejoin="round"/><path d="M103.845 61.153a19.905 19.905 0 0 0-.102 2.024c0 7.736 6.27 14.008 14.008 14.008 7.736 0 14.008-6.272 14.008-14.008 0-.688-.05-1.362-.146-2.024" fill="#FFF"/><path d="M103.845 61.153a19.905 19.905 0 0 0-.102 2.024c0 .668.046 1.326.138 1.97" stroke="#01B784" stroke-width="2" stroke-linecap="round" stroke-linejoin="round"/><path d="M107.15 72.335a13.975 13.975 0 0 0 10.6 4.85c5.66 0 10.536-3.358 12.746-8.19" stroke="#01B784" stroke-width="2" stroke-linecap="round" stroke-linejoin="round" stroke-dasharray="8,8"/><path d="M131.62 65.145a14.173 14.173 0 0 0-.008-3.992M29.5 81v-8M29.5 93v-6" stroke="#01B784" stroke-width="2" stroke-linecap="round" stroke-linejoin="round"/><path d="M22.5 64.5H86V128H37.128c-8.078 0-14.628-6.55-14.628-14.628V64.5z" fill="#FFF"/><path d="M22.5 64.5H86V128H37.128c-8.078 0-14.628-6.55-14.628-14.628V64.5z" stroke="#01B784" stroke-width="4" stroke-linecap="round" stroke-linejoin="round"/><path d="M88.413 110.155c-.558.068-1.45.102-2.024.102-7.736 0-14.008-6.27-14.008-14.008 0-7.736 6.272-14.008 14.008-14.008.688 0 1.362.05 2.024.146" fill="#FFF"/><path d="M88.413 110.155c-.558.068-1.45.102-2.024.102-7.736 0-14.008-6.27-14.008-14.008 0-7.736 6.272-14.008 14.008-14.008.688 0 1.362.05 2.024.146" stroke="#01B784" stroke-width="4" stroke-linecap="round" stroke-linejoin="round"/><path d="M40.345 67.458a19.905 19.905 0 0 1-.102-2.024c0-7.736 6.27-14.008 14.008-14.008 7.736 0 14.008 6.272 14.008 14.008 0 .688-.05 1.362-.146 2.024" fill="#FFF"/><path d="M40.345 67.458a19.905 19.905 0 0 1-.102-2.024c0-7.736 6.27-14.008 14.008-14.008 7.736 0 14.008 6.272 14.008 14.008 0 .688-.05 1.362-.146 2.024" stroke="#01B784" stroke-width="4" stroke-linecap="round" stroke-linejoin="round"/><path d="M35.723 107.556V120M41.944 113.777H29.5M12.357 119.556v9.714M17.214 124.412H7.5" stroke="#01B784" stroke-linecap="round" stroke-linejoin="round"/></g></svg>