<svg width="28" height="35" viewBox="0 0 28 35" xmlns="http://www.w3.org/2000/svg"><title>mark</title><path d="M18.018 25.766c-1.096 1.112-2.485 1.668-4.17 1.668s-3.075-.539-4.17-1.618c-1.094-1.077-1.642-2.56-1.642-4.447 0-.876.143-1.694.43-2.451a5.852 5.852 0 0 1 1.213-1.972 5.767 5.767 0 0 1 1.844-1.314 5.58 5.58 0 0 1 2.325-.48c1.685 0 3.074.582 4.17 1.744 1.095 1.162 1.642 2.654 1.642 4.473 0 1.82-.547 3.285-1.642 4.397m8.997-10.032c-.657-1.669-1.551-3.092-2.68-4.271a12.097 12.097 0 0 0-3.967-2.755 12.07 12.07 0 0 0-4.852-.985h-7.43V.41H.011C.01.458 0 .497 0 .545v19.611c0 2.156.219 4.027.657 5.61.437 1.584 1.061 2.915 1.87 3.993 1.28 1.684 2.914 2.965 4.902 3.841 1.988.876 4.196 1.314 6.622 1.314 1.987 0 3.832-.328 5.534-.985 1.7-.658 3.175-1.576 4.422-2.755 1.246-1.18 2.224-2.61 2.931-4.296.708-1.685 1.062-3.538 1.062-5.56 0-2.054-.328-3.917-.985-5.584" fill="#DFE3E2" fill-rule="evenodd"/></svg>