<?xml version="1.0" encoding="UTF-8"?>
<svg width="68px" height="104px" viewBox="0 0 68 104" version="1.1" xmlns="http://www.w3.org/2000/svg" xmlns:xlink="http://www.w3.org/1999/xlink">
    <!-- Generator: Sketch 43 (38999) - http://www.bohemiancoding.com/sketch -->
    <title>icn-mvb</title>
    <desc>Created with Sketch.</desc>
    <defs></defs>
    <g id="Page-1" stroke="none" stroke-width="1" fill="none" fill-rule="evenodd">
        <g id="Home-1" transform="translate(-551.000000, -1385.000000)">
            <g id="Group-4" transform="translate(128.000000, 883.000000)">
                <g id="icn-mvb" transform="translate(423.000000, 502.000000)">
                    <polygon id="Fill" fill="#FFFFFF" points="4.42553191 69.9636766 63.4326241 69.9636766 63.4326241 59.3689532 4.42553191 59.3689532"></polygon>
                    <path d="M4.42553191,71.4388539 C3.61081399,71.4388539 2.95035461,70.7783945 2.95035461,69.9636766 L2.95035461,59.3689532 C2.95035461,58.5542353 3.61081399,57.8937759 4.42553191,57.8937759 L63.4326241,57.8937759 C64.247342,57.8937759 64.9078014,58.5542353 64.9078014,59.3689532 L64.9078014,69.9636766 C64.9078014,70.7783945 64.247342,71.4388539 63.4326241,71.4388539 L4.42553191,71.4388539 Z M61.9574468,68.4884993 L61.9574468,60.8441305 L5.90070922,60.8441305 L5.90070922,68.4884993 L61.9574468,68.4884993 Z" id="Stroke" fill="#01B784" fill-rule="nonzero"></path>
                    <polygon id="Fill" fill="#F7F7F7" points="52.287217 101.746372 15.5715291 101.746372 10.3257986 69.9636766 57.5314723 69.9636766"></polygon>
                    <path d="M55.7929388,71.4388539 L12.0644117,71.4388539 L16.8231865,100.271194 L51.0355023,100.271194 L55.7929388,71.4388539 Z M52.287217,103.221549 L15.5715291,103.221549 C14.8495268,103.221549 14.233619,102.698964 14.1160434,101.986599 L8.87031285,70.2039044 C8.72201968,69.3054295 9.41516809,68.4884993 10.3257986,68.4884993 L57.5314723,68.4884993 C58.4420759,68.4884993 59.1352171,69.3053837 58.9869689,70.2038386 L53.7427136,101.986534 C53.625166,102.698928 53.0092445,103.221549 52.287217,103.221549 Z" id="Stroke" fill="#01B784" fill-rule="nonzero"></path>
                    <path d="M20.4441963,83.6047233 L19.7316857,79.3267091 C19.6647612,78.9248852 19.2847656,78.6533955 18.8829417,78.72032 C18.4811178,78.7872445 18.2096282,79.1672401 18.2765526,79.569064 L18.9890633,83.8470782 C19.0559877,84.2489021 19.4359834,84.5203917 19.8378072,84.4534672 C20.2396311,84.3865428 20.5111208,84.0065471 20.4441963,83.6047233 Z" id="Stroke" fill="#01B784" fill-rule="nonzero"></path>
                    <path d="M23.4477893,101.625101 L20.9916191,86.8895549 C20.9246432,86.4877396 20.5446128,86.2162986 20.1427974,86.2832745 C19.7409821,86.3502505 19.4695412,86.7302809 19.5365171,87.1320962 L21.9926873,101.867642 C22.0596632,102.269458 22.4396936,102.540899 22.8415089,102.473923 C23.2433243,102.406947 23.5147652,102.026916 23.4477893,101.625101 Z" id="Stroke" fill="#01B784" fill-rule="nonzero"></path>
                    <path d="M1.47502979,102.484108 L66.3828312,102.484108 L1.47502979,102.484108 Z" id="Fill" fill="#FFFFFF"></path>
                    <path d="M1.47488227,103.959138 L66.3826837,103.959138 C67.1974016,103.959138 67.857861,103.298678 67.857861,102.48396 C67.857861,101.669242 67.1974016,101.008783 66.3826837,101.008783 L1.47488227,101.008783 C0.660164341,101.008783 -0.000295035461,101.669242 -0.000295035461,102.48396 C-0.000295035461,103.298678 0.660164341,103.959138 1.47488227,103.959138 Z" id="Stroke" fill="#01B784" fill-rule="nonzero"></path>
                    <path d="M33.9283404,58.9660823 L33.9283404,44.2143092 L33.9283404,58.9660823 Z" id="Fill" fill="#FFFFFF"></path>
                    <path d="M35.4039603,58.9662298 L35.4039603,44.2144567 C35.4039603,43.3997388 34.7435009,42.7392794 33.928783,42.7392794 C33.114065,42.7392794 32.4536057,43.3997388 32.4536057,44.2144567 L32.4536057,58.9662298 C32.4536057,59.7809477 33.114065,60.4414071 33.928783,60.4414071 C34.7435009,60.4414071 35.4039603,59.7809477 35.4039603,58.9662298 Z" id="Stroke" fill="#01B784" fill-rule="nonzero"></path>
                    <path d="M8.11318014,60.4414071 L8.11318014,69.9636766 C8.11318014,70.3710356 8.44340983,70.7012652 8.85076879,70.7012652 C9.25812776,70.7012652 9.58835745,70.3710356 9.58835745,69.9636766 L9.58835745,60.4414071 C9.58835745,60.0340481 9.25812776,59.7038184 8.85076879,59.7038184 C8.44340983,59.7038184 8.11318014,60.0340481 8.11318014,60.4414071 Z" id="Stroke" fill="#01B784" fill-rule="nonzero"></path>
                    <path d="M12.6733957,60.4414071 L12.6733957,69.9636766 C12.6733957,70.3710356 13.0036254,70.7012652 13.4109844,70.7012652 C13.8183434,70.7012652 14.148573,70.3710356 14.148573,69.9636766 L14.148573,60.4414071 C14.148573,60.0340481 13.8183434,59.7038184 13.4109844,59.7038184 C13.0036254,59.7038184 12.6733957,60.0340481 12.6733957,60.4414071 Z" id="Stroke" fill="#01B784" fill-rule="nonzero"></path>
                    <path d="M17.2330213,60.4414071 L17.2330213,69.9636766 C17.2330213,70.3710356 17.563251,70.7012652 17.9706099,70.7012652 C18.3779689,70.7012652 18.7081986,70.3710356 18.7081986,69.9636766 L18.7081986,60.4414071 C18.7081986,60.0340481 18.3779689,59.7038184 17.9706099,59.7038184 C17.563251,59.7038184 17.2330213,60.0340481 17.2330213,60.4414071 Z" id="Stroke" fill="#01B784" fill-rule="nonzero"></path>
                    <path d="M21.7924993,60.4414071 L21.7924993,69.9636766 C21.7924993,70.3710356 22.122729,70.7012652 22.5300879,70.7012652 C22.9374469,70.7012652 23.2676766,70.3710356 23.2676766,69.9636766 L23.2676766,60.4414071 C23.2676766,60.0340481 22.9374469,59.7038184 22.5300879,59.7038184 C22.122729,59.7038184 21.7924993,60.0340481 21.7924993,60.4414071 Z" id="Stroke" fill="#01B784" fill-rule="nonzero"></path>
                    <path d="M26.3519773,60.4414071 L26.3519773,69.9636766 C26.3519773,70.3710356 26.682207,70.7012652 27.089566,70.7012652 C27.4969249,70.7012652 27.8271546,70.3710356 27.8271546,69.9636766 L27.8271546,60.4414071 C27.8271546,60.0340481 27.4969249,59.7038184 27.089566,59.7038184 C26.682207,59.7038184 26.3519773,60.0340481 26.3519773,60.4414071 Z" id="Stroke" fill="#01B784" fill-rule="nonzero"></path>
                    <path d="M30.9114553,60.4414071 L30.9114553,69.9636766 C30.9114553,70.3710356 31.241685,70.7012652 31.649044,70.7012652 C32.0564029,70.7012652 32.3866326,70.3710356 32.3866326,69.9636766 L32.3866326,60.4414071 C32.3866326,60.0340481 32.0564029,59.7038184 31.649044,59.7038184 C31.241685,59.7038184 30.9114553,60.0340481 30.9114553,60.4414071 Z" id="Stroke" fill="#01B784" fill-rule="nonzero"></path>
                    <path d="M35.4709333,60.4414071 L35.4709333,69.9636766 C35.4709333,70.3710356 35.801163,70.7012652 36.208522,70.7012652 C36.615881,70.7012652 36.9461106,70.3710356 36.9461106,69.9636766 L36.9461106,60.4414071 C36.9461106,60.0340481 36.615881,59.7038184 36.208522,59.7038184 C35.801163,59.7038184 35.4709333,60.0340481 35.4709333,60.4414071 Z" id="Stroke" fill="#01B784" fill-rule="nonzero"></path>
                    <path d="M40.0312965,60.4414071 L40.0312965,69.9636766 C40.0312965,70.3710356 40.3615261,70.7012652 40.7688851,70.7012652 C41.1762441,70.7012652 41.5064738,70.3710356 41.5064738,69.9636766 L41.5064738,60.4414071 C41.5064738,60.0340481 41.1762441,59.7038184 40.7688851,59.7038184 C40.3615261,59.7038184 40.0312965,60.0340481 40.0312965,60.4414071 Z" id="Stroke" fill="#01B784" fill-rule="nonzero"></path>
                    <path d="M44.5907745,60.4414071 L44.5907745,69.9636766 C44.5907745,70.3710356 44.9210042,70.7012652 45.3283631,70.7012652 C45.7357221,70.7012652 46.0659518,70.3710356 46.0659518,69.9636766 L46.0659518,60.4414071 C46.0659518,60.0340481 45.7357221,59.7038184 45.3283631,59.7038184 C44.9210042,59.7038184 44.5907745,60.0340481 44.5907745,60.4414071 Z" id="Stroke" fill="#01B784" fill-rule="nonzero"></path>
                    <path d="M49.1502525,60.4414071 L49.1502525,69.9636766 C49.1502525,70.3710356 49.4804822,70.7012652 49.8878411,70.7012652 C50.2952001,70.7012652 50.6254298,70.3710356 50.6254298,69.9636766 L50.6254298,60.4414071 C50.6254298,60.0340481 50.2952001,59.7038184 49.8878411,59.7038184 C49.4804822,59.7038184 49.1502525,60.0340481 49.1502525,60.4414071 Z" id="Stroke" fill="#01B784" fill-rule="nonzero"></path>
                    <path d="M53.7097305,60.4414071 L53.7097305,69.9636766 C53.7097305,70.3710356 54.0399602,70.7012652 54.4473191,70.7012652 C54.8546781,70.7012652 55.1849078,70.3710356 55.1849078,69.9636766 L55.1849078,60.4414071 C55.1849078,60.0340481 54.8546781,59.7038184 54.4473191,59.7038184 C54.0399602,59.7038184 53.7097305,60.0340481 53.7097305,60.4414071 Z" id="Stroke" fill="#01B784" fill-rule="nonzero"></path>
                    <path d="M58.2692085,60.4414071 L58.2692085,69.9636766 C58.2692085,70.3710356 58.5994382,70.7012652 59.0067972,70.7012652 C59.4141561,70.7012652 59.7443858,70.3710356 59.7443858,69.9636766 L59.7443858,60.4414071 C59.7443858,60.0340481 59.4141561,59.7038184 59.0067972,59.7038184 C58.5994382,59.7038184 58.2692085,60.0340481 58.2692085,60.4414071 Z" id="Stroke" fill="#01B784" fill-rule="nonzero"></path>
                    <g id="Group" transform="translate(2.950355, 0.696726)">
                        <path d="M30.9784284,39.0921986 C30.9784284,45.202383 26.024783,50.1560284 19.9145986,50.1560284 C13.8044142,50.1560284 8.85076879,45.202383 8.85076879,39.0921986 C8.85076879,32.9820142 13.8044142,28.0283688 19.9145986,28.0283688 C26.024783,28.0283688 30.9784284,32.9820142 30.9784284,39.0921986" id="Fill" fill="#F7F7F7"></path>
                        <path d="M29.5032511,39.0921986 C29.5032511,33.7967321 25.210065,29.5035461 19.9145986,29.5035461 C14.6191321,29.5035461 10.3259461,33.7967321 10.3259461,39.0921986 C10.3259461,44.387665 14.6191321,48.6808511 19.9145986,48.6808511 C25.210065,48.6808511 29.5032511,44.387665 29.5032511,39.0921986 Z M32.4536057,39.0921986 C32.4536057,46.0171009 26.8395009,51.6312057 19.9145986,51.6312057 C12.9896963,51.6312057 7.37559149,46.0171009 7.37559149,39.0921986 C7.37559149,32.1672963 12.9896963,26.5531915 19.9145986,26.5531915 C26.8395009,26.5531915 32.4536057,32.1672963 32.4536057,39.0921986 Z" id="Stroke" fill="#01B784" fill-rule="nonzero"></path>
                        <path d="M53.1060879,39.0921986 C53.1060879,45.202383 48.1524426,50.1560284 42.0422582,50.1560284 C35.9320738,50.1560284 30.9784284,45.202383 30.9784284,39.0921986 C30.9784284,32.9820142 35.9320738,28.0283688 42.0422582,28.0283688 C48.1524426,28.0283688 53.1060879,32.9820142 53.1060879,39.0921986" id="Fill" fill="#F7F7F7"></path>
                        <path d="M51.6309106,39.0921986 C51.6309106,33.7967321 47.3377246,29.5035461 42.0422582,29.5035461 C36.7467917,29.5035461 32.4536057,33.7967321 32.4536057,39.0921986 C32.4536057,44.387665 36.7467917,48.6808511 42.0422582,48.6808511 C47.3377246,48.6808511 51.6309106,44.387665 51.6309106,39.0921986 Z M54.5812652,39.0921986 C54.5812652,46.0171009 48.9671605,51.6312057 42.0422582,51.6312057 C35.1173558,51.6312057 29.5032511,46.0171009 29.5032511,39.0921986 C29.5032511,32.1672963 35.1173558,26.5531915 42.0422582,26.5531915 C48.9671605,26.5531915 54.5812652,32.1672963 54.5812652,39.0921986 Z" id="Stroke" fill="#01B784" fill-rule="nonzero"></path>
                        <path d="M30.9784284,16.964539 C30.9784284,23.0747234 26.024783,28.0283688 19.9145986,28.0283688 C13.8044142,28.0283688 8.85076879,23.0747234 8.85076879,16.964539 C8.85076879,10.8543546 13.8044142,5.90070922 19.9145986,5.90070922 C26.024783,5.90070922 30.9784284,10.8543546 30.9784284,16.964539" id="Fill" fill="#F7F7F7"></path>
                        <path d="M29.5032511,16.964539 C29.5032511,11.6690725 25.210065,7.37588652 19.9145986,7.37588652 C14.6191321,7.37588652 10.3259461,11.6690725 10.3259461,16.964539 C10.3259461,22.2600055 14.6191321,26.5531915 19.9145986,26.5531915 C25.210065,26.5531915 29.5032511,22.2600055 29.5032511,16.964539 Z M32.4536057,16.964539 C32.4536057,23.8894413 26.8395009,29.5035461 19.9145986,29.5035461 C12.9896963,29.5035461 7.37559149,23.8894413 7.37559149,16.964539 C7.37559149,10.0396367 12.9896963,4.42553191 19.9145986,4.42553191 C26.8395009,4.42553191 32.4536057,10.0396367 32.4536057,16.964539 Z" id="Stroke" fill="#01B784" fill-rule="nonzero"></path>
                        <path d="M53.1060879,16.964539 C53.1060879,23.0747234 48.1524426,28.0283688 42.0422582,28.0283688 C35.9320738,28.0283688 30.9784284,23.0747234 30.9784284,16.964539 C30.9784284,10.8543546 35.9320738,5.90070922 42.0422582,5.90070922 C48.1524426,5.90070922 53.1060879,10.8543546 53.1060879,16.964539" id="Fill" fill="#F7F7F7"></path>
                        <path d="M51.6309106,16.964539 C51.6309106,11.6690725 47.3377246,7.37588652 42.0422582,7.37588652 C36.7467917,7.37588652 32.4536057,11.6690725 32.4536057,16.964539 C32.4536057,22.2600055 36.7467917,26.5531915 42.0422582,26.5531915 C47.3377246,26.5531915 51.6309106,22.2600055 51.6309106,16.964539 Z M54.5812652,16.964539 C54.5812652,23.8894413 48.9671605,29.5035461 42.0422582,29.5035461 C35.1173558,29.5035461 29.5032511,23.8894413 29.5032511,16.964539 C29.5032511,10.0396367 35.1173558,4.42553191 42.0422582,4.42553191 C48.9671605,4.42553191 54.5812652,10.0396367 54.5812652,16.964539 Z" id="Stroke" fill="#01B784" fill-rule="nonzero"></path>
                        <path d="M45.7302014,28.0283688 C45.7302014,36.175773 39.1258326,42.7801418 30.9784284,42.7801418 C22.8324993,42.7801418 16.2266553,36.175773 16.2266553,28.0283688 C16.2266553,19.8809645 22.8324993,13.2765957 30.9784284,13.2765957 C39.1258326,13.2765957 45.7302014,19.8809645 45.7302014,28.0283688" id="Fill" fill="#F7F7F7"></path>
                        <path d="M44.2550241,28.0283688 C44.2550241,20.6956825 38.3111147,14.751773 30.9784284,14.751773 C23.6466849,14.751773 17.7018326,20.6962147 17.7018326,28.0283688 C17.7018326,35.3605229 23.6466849,41.3049645 30.9784284,41.3049645 C38.3111147,41.3049645 44.2550241,35.3610551 44.2550241,28.0283688 Z M47.2053787,28.0283688 C47.2053787,36.990491 39.9405506,44.2553191 30.9784284,44.2553191 C22.0172947,44.2553191 14.751478,36.9900043 14.751478,28.0283688 C14.751478,19.0667333 22.0172947,11.8014184 30.9784284,11.8014184 C39.9405506,11.8014184 47.2053787,19.0662466 47.2053787,28.0283688 Z" id="Stroke" fill="#01B784" fill-rule="nonzero"></path>
                        <path d="M21.8486401,25.0888888 C22.2521324,23.8323756 22.9136423,22.6752551 23.7864799,21.6874245 C24.0562098,21.3821589 24.0274023,20.9160329 23.7221366,20.646303 C23.4168709,20.3765732 22.950745,20.4053807 22.6810151,20.7106464 C21.6739479,21.8503907 20.9102341,23.1862875 20.4441032,24.637863 C20.3195559,25.0257151 20.5330066,25.441097 20.9208587,25.5656443 C21.3087109,25.6901917 21.7240927,25.476741 21.8486401,25.0888888 Z" id="Stroke" fill="#01B784" fill-rule="nonzero"></path>
                        <path d="M28.476,37.2874091 C24.3263134,36.1678293 21.390366,32.3892816 21.390366,28.0288113 C21.390366,27.6214524 21.0601363,27.2912227 20.6527773,27.2912227 C20.2454183,27.2912227 19.9151887,27.6214524 19.9151887,28.0288113 C19.9151887,33.0602366 23.3023457,37.4194885 28.091739,38.7116604 C28.4850351,38.8177711 28.8898843,38.5849614 28.9959951,38.1916653 C29.1021059,37.7983692 28.8692961,37.3935199 28.476,37.2874091 Z" id="Stroke" fill="#01B784" fill-rule="nonzero"></path>
                        <path d="M4.71274894,0.409804255 L4.71274894,9.58835745 C4.71274894,9.79203693 4.87786378,9.95715177 5.08154326,9.95715177 C5.28522274,9.95715177 5.45033759,9.79203693 5.45033759,9.58835745 L5.45033759,0.409804255 C5.45033759,0.206124773 5.28522274,0.0410099291 5.08154326,0.0410099291 C4.87786378,0.0410099291 4.71274894,0.206124773 4.71274894,0.409804255 Z" id="Stroke" fill="#01B784" fill-rule="nonzero"></path>
                        <path d="M9.67052482,4.63013901 L0.491971631,4.63013901 C0.288292149,4.63013901 0.123177305,4.79525385 0.123177305,4.99893333 C0.123177305,5.20261282 0.288292149,5.36772766 0.491971631,5.36772766 L9.67052482,5.36772766 C9.8742043,5.36772766 10.0393191,5.20261282 10.0393191,4.99893333 C10.0393191,4.79525385 9.8742043,4.63013901 9.67052482,4.63013901 Z" id="Stroke" fill="#01B784" fill-rule="nonzero"></path>
                        <path d="M56.8120284,24.0126411 L56.8120284,31.1775773 C56.8120284,31.3812568 56.9771432,31.5463716 57.1808227,31.5463716 C57.3845022,31.5463716 57.549617,31.3812568 57.549617,31.1775773 L57.549617,24.0126411 C57.549617,23.8089617 57.3845022,23.6438468 57.1808227,23.6438468 C56.9771432,23.6438468 56.8120284,23.8089617 56.8120284,24.0126411 Z" id="Stroke" fill="#01B784" fill-rule="nonzero"></path>
                        <path d="M60.7629957,27.2260199 L53.5980596,27.2260199 C53.3943801,27.2260199 53.2292652,27.3911347 53.2292652,27.5948142 C53.2292652,27.7984937 53.3943801,27.9636085 53.5980596,27.9636085 L60.7629957,27.9636085 C60.9666752,27.9636085 61.1317901,27.7984937 61.1317901,27.5948142 C61.1317901,27.3911347 60.9666752,27.2260199 60.7629957,27.2260199 Z" id="Stroke" fill="#01B784" fill-rule="nonzero"></path>
                        <path d="M6.38589504,47.615478 L6.38589504,52.3684993 C6.38589504,52.5721788 6.55100988,52.7372936 6.75468936,52.7372936 C6.95836884,52.7372936 7.12348369,52.5721788 7.12348369,52.3684993 L7.12348369,47.615478 C7.12348369,47.4117985 6.95836884,47.2466837 6.75468936,47.2466837 C6.55100988,47.2466837 6.38589504,47.4117985 6.38589504,47.615478 Z" id="Stroke" fill="#01B784" fill-rule="nonzero"></path>
                        <path d="M9.13179007,49.6230468 L4.37876879,49.6230468 C4.17508931,49.6230468 4.00997447,49.7881617 4.00997447,49.9918411 C4.00997447,50.1955206 4.17508931,50.3606355 4.37876879,50.3606355 L9.13179007,50.3606355 C9.33546955,50.3606355 9.5005844,50.1955206 9.5005844,49.9918411 C9.5005844,49.7881617 9.33546955,49.6230468 9.13179007,49.6230468 Z" id="Stroke" fill="#01B784" fill-rule="nonzero"></path>
                    </g>
                </g>
            </g>
        </g>
    </g>
</svg>