<?xml version="1.0" encoding="UTF-8"?>
<svg width="110px" height="103px" viewBox="0 0 110 103" version="1.1" xmlns="http://www.w3.org/2000/svg" xmlns:xlink="http://www.w3.org/1999/xlink">
    <!-- Generator: Sketch 43 (38999) - http://www.bohemiancoding.com/sketch -->
    <title>icn-prototype</title>
    <desc>Created with Sketch.</desc>
    <defs></defs>
    <g id="Page-1" stroke="none" stroke-width="1" fill="none" fill-rule="evenodd">
        <g id="Home-1" transform="translate(-166.000000, -1388.000000)">
            <g id="Group-4" transform="translate(128.000000, 883.000000)">
                <g id="icn-prototype" transform="translate(38.000000, 505.000000)">
                    <path d="M106.306945,72.1428299 L20.4082814,72.1428299 C19.4199465,72.1428299 18.6184686,71.341352 18.6184686,70.3530171 L18.6184686,13.5345661 L18.6184686,4.14075109 C18.6184686,3.15241612 19.4199465,2.35093822 20.4082814,2.35093822 L106.306945,2.35093822 C107.29528,2.35093822 108.096757,3.15241612 108.096757,4.14075109 L108.096757,70.3530171 C108.096757,71.341352 107.29528,72.1428299 106.306945,72.1428299 Z" id="Fill" fill="#FCFCFC"></path>
                    <path d="M106.306945,70.5304268 C106.404774,70.5304268 106.484354,70.4508464 106.484354,70.3530171 L106.484354,4.14075109 C106.484354,4.04292176 106.404774,3.96334133 106.306945,3.96334133 L20.4082814,3.96334133 C20.3104521,3.96334133 20.2308717,4.04292176 20.2308717,4.14075109 L20.2308717,70.3530171 C20.2308717,70.4508464 20.3104521,70.5304268 20.4082814,70.5304268 L106.306945,70.5304268 Z M106.306945,73.755233 L20.4082814,73.755233 C18.5294408,73.755233 17.0060655,72.2318577 17.0060655,70.3530171 L17.0060655,4.14075109 C17.0060655,2.26191047 18.5294408,0.738535124 20.4082814,0.738535124 L106.306945,0.738535124 C108.185785,0.738535124 109.709161,2.26191047 109.709161,4.14075109 L109.709161,70.3530171 C109.709161,72.2318577 108.185785,73.755233 106.306945,73.755233 Z" id="Stroke" fill="#01B784" fill-rule="nonzero"></path>
                    <path d="M98.1723301,80.2774444 L12.2752112,80.2774444 C11.2868762,80.2774444 10.4853983,79.4759665 10.4853983,78.4876316 L10.4853983,21.6691807 L10.4853983,12.2753656 C10.4853983,11.2870306 11.2868762,10.4855527 12.2752112,10.4855527 L98.1723301,10.4855527 C99.1606651,10.4855527 99.9621429,11.2870306 99.9621429,12.2753656 L99.9621429,78.4876316 C99.9621429,79.4759665 99.1606651,80.2774444 98.1723301,80.2774444" id="Fill" fill="#FCFCFC"></path>
                    <path d="M98.1723301,78.6650413 C98.2701594,78.6650413 98.3497398,78.5854609 98.3497398,78.4876316 L98.3497398,12.2753656 C98.3497398,12.1775363 98.2701594,12.0979558 98.1723301,12.0979558 L12.2752112,12.0979558 C12.1773819,12.0979558 12.0978014,12.1775363 12.0978014,12.2753656 L12.0978014,78.4876316 C12.0978014,78.5854609 12.1773819,78.6650413 12.2752112,78.6650413 L98.1723301,78.6650413 Z M98.1723301,81.8898475 L12.2752112,81.8898475 C10.3963706,81.8898475 8.87299522,80.3664722 8.87299522,78.4876316 L8.87299522,12.2753656 C8.87299522,10.396525 10.3963706,8.87314965 12.2752112,8.87314965 L98.1723301,8.87314965 C100.051171,8.87314965 101.574546,10.396525 101.574546,12.2753656 L101.574546,78.4876316 C101.574546,80.3664722 100.051171,81.8898475 98.1723301,81.8898475 Z" id="Stroke" fill="#01B784" fill-rule="nonzero"></path>
                    <path d="M90.0377156,88.4112868 L4.14059666,88.4112868 C3.15226169,88.4112868 2.3507838,87.6098089 2.3507838,86.621474 L2.3507838,29.803023 L2.3507838,20.409208 C2.3507838,19.420873 3.15226169,18.6193951 4.14059666,18.6193951 L90.0377156,18.6193951 C91.0260505,18.6193951 91.8275284,19.420873 91.8275284,20.409208 L91.8275284,86.621474 C91.8275284,87.6098089 91.0260505,88.4112868 90.0377156,88.4112868" id="Fill" fill="#FCFCFC"></path>
                    <path d="M90.0377156,86.7988837 C90.1355449,86.7988837 90.2151253,86.7193033 90.2151253,86.621474 L90.2151253,20.409208 C90.2151253,20.3113787 90.1355449,20.2317982 90.0377156,20.2317982 L4.14059666,20.2317982 C4.04276733,20.2317982 3.9631869,20.3113787 3.9631869,20.409208 L3.9631869,86.621474 C3.9631869,86.7193033 4.04276733,86.7988837 4.14059666,86.7988837 L90.0377156,86.7988837 Z M90.0377156,90.0236899 L4.14059666,90.0236899 C2.26175604,90.0236899 0.738380697,88.5003146 0.738380697,86.621474 L0.738380697,20.409208 C0.738380697,18.5303674 2.26175604,17.006992 4.14059666,17.006992 L90.0377156,17.006992 C91.9165562,17.006992 93.4399315,18.5303674 93.4399315,20.409208 L93.4399315,86.621474 C93.4399315,88.5003146 91.9165562,90.0236899 90.0377156,90.0236899 Z" id="Stroke" fill="#01B784" fill-rule="nonzero"></path>
                    <path d="M2.35047494,29.2675599 L91.8272196,29.2675599 C92.2724724,29.2675599 92.6334211,28.9066111 92.6334211,28.4613583 C92.6334211,28.0161055 92.2724724,27.6551568 91.8272196,27.6551568 L2.35047494,27.6551568 C1.90522212,27.6551568 1.54427339,28.0161055 1.54427339,28.4613583 C1.54427339,28.9066111 1.90522212,29.2675599 2.35047494,29.2675599 Z" id="Stroke" fill="#01B784" fill-rule="nonzero"></path>
                    <path d="M9.5086454,23.9875983 C9.5086454,24.9759333 8.70716751,25.7774112 7.71883254,25.7774112 C6.73049757,25.7774112 5.93056395,24.9759333 5.93056395,23.9875983 C5.93056395,22.9992633 6.73049757,22.1977854 7.71883254,22.1977854 C8.70716751,22.1977854 9.5086454,22.9992633 9.5086454,23.9875983" id="Fill" fill="#01B784"></path>
                    <path d="M11.2978406,23.9875983 C11.2978406,22.9992633 12.0993184,22.1977854 13.0876534,22.1977854 C14.0759884,22.1977854 14.8774663,22.9992633 14.8774663,23.9875983 C14.8774663,24.9759333 14.0759884,25.7774112 13.0876534,25.7774112 C12.0993184,25.7774112 11.2978406,24.9759333 11.2978406,23.9875983" id="Fill" fill="#01B784"></path>
                    <path d="M16.6666614,23.9875983 C16.6666614,22.9992633 17.4681393,22.1977854 18.4564743,22.1977854 C19.4448093,22.1977854 20.2462871,22.9992633 20.2462871,23.9875983 C20.2462871,24.9759333 19.4448093,25.7774112 18.4564743,25.7774112 C17.4681393,25.7774112 16.6666614,24.9759333 16.6666614,23.9875983" id="Fill" fill="#01B784"></path>
                    <path d="M18.4572464,57.9011682 C18.0119936,57.9011682 17.6510449,57.5402195 17.6510449,57.0949667 L17.6510449,33.830488 C17.6510449,33.3852352 18.0119936,33.0242865 18.4572464,33.0242865 L50.6692451,33.0242865 C51.1144979,33.0242865 51.4754467,33.3852352 51.4754467,33.830488 L51.4754467,57.0949667 C51.4754467,57.5402195 51.1144979,57.9011682 50.6692451,57.9011682 L18.4572464,57.9011682 Z M49.8630436,56.2887651 L49.8630436,34.6366896 L19.263448,34.6366896 L19.263448,56.2887651 L49.8630436,56.2887651 Z" id="Stroke" fill="#01B784" fill-rule="nonzero"></path>
                    <path d="M19.3513807,88.3233541 C18.9061279,88.3233541 18.5451792,87.9624053 18.5451792,87.5171525 L18.5451792,80.3594454 C18.5451792,79.9141925 18.9061279,79.5532438 19.3513807,79.5532438 L51.5633794,79.5532438 C52.0086322,79.5532438 52.369581,79.9141925 52.369581,80.3594454 L52.369581,87.5171525 C52.369581,87.9624053 52.0086322,88.3233541 51.5633794,88.3233541 L19.3513807,88.3233541 Z M50.7571779,86.710951 L50.7571779,81.1656469 L20.1575823,81.1656469 L20.1575823,86.710951 L50.7571779,86.710951 Z" id="Stroke" fill="#01B784" fill-rule="nonzero"></path>
                    <path d="M56.9315826,34.6363807 L71.2485412,34.6363807 C71.693794,34.6363807 72.0547427,34.275432 72.0547427,33.8301792 C72.0547427,33.3849264 71.693794,33.0239776 71.2485412,33.0239776 L56.9315826,33.0239776 C56.4863298,33.0239776 56.125381,33.3849264 56.125381,33.8301792 C56.125381,34.275432 56.4863298,34.6363807 56.9315826,34.6363807 Z" id="Stroke" fill="#01B784" fill-rule="nonzero"></path>
                    <path d="M56.9315826,38.2156976 L66.7747812,38.2156976 C67.220034,38.2156976 67.5809827,37.8547489 67.5809827,37.4094961 C67.5809827,36.9642432 67.220034,36.6032945 66.7747812,36.6032945 L56.9315826,36.6032945 C56.4863298,36.6032945 56.125381,36.9642432 56.125381,37.4094961 C56.125381,37.8547489 56.4863298,38.2156976 56.9315826,38.2156976 Z" id="Stroke" fill="#01B784" fill-rule="nonzero"></path>
                    <path d="M56.9315826,41.7943968 L71.2485412,41.7943968 C71.693794,41.7943968 72.0547427,41.433448 72.0547427,40.9881952 C72.0547427,40.5429424 71.693794,40.1819937 71.2485412,40.1819937 L56.9315826,40.1819937 C56.4863298,40.1819937 56.125381,40.5429424 56.125381,40.9881952 C56.125381,41.433448 56.4863298,41.7943968 56.9315826,41.7943968 Z" id="Stroke" fill="#01B784" fill-rule="nonzero"></path>
                    <path d="M56.9315826,84.7437284 L66.7747812,84.7437284 C67.220034,84.7437284 67.5809827,84.3827796 67.5809827,83.9375268 C67.5809827,83.492274 67.220034,83.1313253 66.7747812,83.1313253 L56.9315826,83.1313253 C56.4863298,83.1313253 56.125381,83.492274 56.125381,83.9375268 C56.125381,84.3827796 56.4863298,84.7437284 56.9315826,84.7437284 Z" id="Stroke" fill="#01B784" fill-rule="nonzero"></path>
                    <path d="M56.9315826,54.3212337 L66.7747812,54.3212337 C67.220034,54.3212337 67.5809827,53.9602849 67.5809827,53.5150321 C67.5809827,53.0697793 67.220034,52.7088306 66.7747812,52.7088306 L56.9315826,52.7088306 C56.4863298,52.7088306 56.125381,53.0697793 56.125381,53.5150321 C56.125381,53.9602849 56.4863298,54.3212337 56.9315826,54.3212337 Z" id="Stroke" fill="#01B784" fill-rule="nonzero"></path>
                    <path d="M56.9315826,57.900705 L71.2485412,57.900705 C71.693794,57.900705 72.0547427,57.5397562 72.0547427,57.0945034 C72.0547427,56.6492506 71.693794,56.2883019 71.2485412,56.2883019 L56.9315826,56.2883019 C56.4863298,56.2883019 56.125381,56.6492506 56.125381,57.0945034 C56.125381,57.5397562 56.4863298,57.900705 56.9315826,57.900705 Z" id="Stroke" fill="#01B784" fill-rule="nonzero"></path>
                    <path d="M18.4557022,75.7962083 C18.0104493,75.7962083 17.6495006,75.4352596 17.6495006,74.9900068 L17.6495006,62.462861 C17.6495006,62.0176082 18.0104493,61.6566595 18.4557022,61.6566595 L75.7219924,61.6566595 C76.1672452,61.6566595 76.5281939,62.0176082 76.5281939,62.462861 L76.5281939,74.9900068 C76.5281939,75.4352596 76.1672452,75.7962083 75.7219924,75.7962083 L18.4557022,75.7962083 Z M74.9157908,74.1838052 L74.9157908,63.2690626 L19.2619037,63.2690626 L19.2619037,74.1838052 L74.9157908,74.1838052 Z" id="Stroke" fill="#01B784" fill-rule="nonzero"></path>
                    <path d="M7.80738299,71.4106899 L7.80738299,87.5174614 L9.41978609,87.5174614 L9.41978609,67.8326085 C9.41978609,67.3873556 9.05883736,67.0264069 8.61358454,67.0264069 C8.16833172,67.0264069 7.80738299,67.3873556 7.80738299,67.8326085 L7.80738299,87.5174614 C7.80738299,88.5923968 9.41978609,88.5923968 9.41978609,87.5174614 L9.41978609,71.4106899 C9.41978609,70.9654371 9.05883736,70.6044884 8.61358454,70.6044884 C8.16833172,70.6044884 7.80738299,70.9654371 7.80738299,71.4106899 Z" id="Stroke" fill="#01B784" fill-rule="nonzero"></path>
                    <path d="M9.41978609,64.2526739 L9.41978609,58.8832353 C9.41978609,58.4379825 9.05883736,58.0770337 8.61358454,58.0770337 C8.16833172,58.0770337 7.80738299,58.4379825 7.80738299,58.8832353 L7.80738299,64.2526739 C7.80738299,64.6979267 8.16833172,65.0588754 8.61358454,65.0588754 C9.05883736,65.0588754 9.41978609,64.6979267 9.41978609,64.2526739 Z" id="Stroke" fill="#01B784" fill-rule="nonzero"></path>
                    <polygon id="Fill" fill="#FCFCFC" points="90.4645527 49.4176115 99.6668779 58.6199367 60.5550657 97.7332932 51.3527405 88.5294237"></polygon>
                    <path d="M53.6329272,88.5295194 L60.5551388,95.4528926 L97.386618,58.6199592 L90.4645527,51.6978939 L53.6329272,88.5295194 Z M91.6046939,48.2774704 L100.807019,57.4797955 C101.436693,58.1094693 101.436703,59.1303691 100.807042,59.7600553 L61.6952293,98.8734118 C61.065513,99.503153 60.0445047,99.5031202 59.4148288,98.8733387 L50.2125037,89.6694692 C49.5829113,89.0397712 49.5829541,88.0189278 50.2125994,87.3892826 L89.3244116,48.2774704 C89.9540941,47.6477878 90.9750113,47.6477878 91.6046939,48.2774704 Z" id="Stroke" fill="#01B784" fill-rule="nonzero"></path>
                    <g id="Group" transform="translate(55.593842, 64.121411)">
                        <path d="M27.969044,1.40096482 L0.934993951,28.4350148" id="Fill" fill="#FFFFFF"></path>
                        <path d="M27.3989734,0.830894238 L0.364923368,27.8649442 C0.0500820785,28.1797855 0.0500820785,28.6902441 0.364923368,29.0050854 C0.679764657,29.3199267 1.19022325,29.3199267 1.50506453,29.0050854 L28.5391145,1.9710354 C28.8539558,1.65619412 28.8539558,1.14573553 28.5391145,0.830894238 C28.2242733,0.516052949 27.7138147,0.516052949 27.3989734,0.830894238 Z" id="Stroke" fill="#01B784" fill-rule="nonzero"></path>
                    </g>
                    <g id="Group" transform="translate(84.935037, 57.138116)">
                        <path d="M1.50374984,5.5083596 L6.10414028,0.907969167" id="Fill" fill="#FFFFFF"></path>
                        <path d="M2.07382042,6.07843019 L6.67421086,1.47803975 C6.98905215,1.16319846 6.98905215,0.652739873 6.67421086,0.337898584 C6.35936957,0.0230572942 5.84891098,0.0230572942 5.53406969,0.337898584 L0.933679258,4.93828902 C0.618837969,5.25313031 0.618837969,5.7635889 0.933679258,6.07843019 C1.24852055,6.39327148 1.75897914,6.39327148 2.07382042,6.07843019 Z" id="Stroke" fill="#01B784" fill-rule="nonzero"></path>
                    </g>
                    <g id="Group" transform="translate(88.761655, 40.151108)">
                        <path d="M11.4812366,17.8942043 L16.0816271,13.2922696 C18.6235011,10.7519399 18.6235011,6.6318185 16.0816271,4.08994449 C13.5412973,1.54807049 9.42117594,1.54807049 6.88084621,4.08994449 L2.2789115,8.6918792" id="Fill" fill="#FCFCFC"></path>
                        <path d="M12.6215691,19.0341542 L17.2219596,14.4322195 C20.3933826,11.2627234 20.3933826,6.12141766 17.2217682,2.94980333 C14.0520232,-0.221868756 8.91045012,-0.221868756 5.74035865,2.95014982 L1.13877033,7.55173803 C0.509087751,8.18142061 0.509087751,9.20233779 1.13877033,9.83202037 C1.76845291,10.4617029 2.78937008,10.4617029 3.41905266,9.83202037 L8.02098737,5.23008566 C9.93190175,3.31800973 13.0305715,3.31800973 14.9411395,5.22973916 C16.8536196,7.14221933 16.8536196,10.2411564 14.9418324,12.1517821 L10.3409042,16.7542545 C9.71132726,17.3840428 9.71149858,18.4049599 10.3412868,19.0345368 C10.9710751,19.6641137 11.9919922,19.6639424 12.6215691,19.0341542 Z" id="Stroke" fill="#01B784" fill-rule="nonzero"></path>
                    </g>
                    <g id="Group" transform="translate(92.656404, 44.783928)">
                        <path d="M1.83468763,1.75778281 L10.4625431,10.3856383" id="Fill" fill="#FFFFFF"></path>
                        <path d="M0.694546463,2.89792398 L9.32240191,11.5257794 C9.95208448,12.155462 10.9730017,12.155462 11.6026842,11.5257794 C12.2323668,10.8960968 12.2323668,9.87517967 11.6026842,9.24549709 L2.9748288,0.617641648 C2.34514622,-0.0120409308 1.32422904,-0.0120409308 0.694546463,0.617641648 C0.0648638841,1.24732423 0.0648638841,2.2682414 0.694546463,2.89792398 Z" id="Stroke" fill="#01B784" fill-rule="nonzero"></path>
                    </g>
                    <g id="Group" transform="translate(45.522000, 86.479310)">
                        <path d="M5.83043144,2.05042262 L2.37898041,14.7041988" id="Fill" fill="#FFFFFF"></path>
                        <path d="M4.27485641,1.62612311 L0.82340538,14.2798993 C0.58907123,15.1390197 1.09556053,16.0254397 1.9546809,16.2597738 C2.81380127,16.494108 3.7002213,15.9876187 3.93455545,15.1284983 L7.38600648,2.47472213 C7.62034063,1.61560177 7.11385132,0.729181739 6.25473096,0.494847589 C5.39561059,0.26051344 4.50919056,0.767002743 4.27485641,1.62612311 Z" id="Stroke" fill="#01B784" fill-rule="nonzero"></path>
                    </g>
                    <g id="Group" transform="translate(45.522000, 95.744950)" fill-rule="nonzero" fill="#01B784">
                        <path d="M14.6092292,0.43215009 L1.95545304,3.88360112 C1.09633267,4.11793527 0.589843367,5.0043553 0.824177516,5.86347567 C1.05851167,6.72259603 1.94493169,7.22908534 2.80405206,6.99475119 L15.4578282,3.54330016 C16.3169486,3.30896601 16.8234379,2.42254598 16.5891038,1.56342561 C16.3547696,0.704305243 15.4683496,0.19781594 14.6092292,0.43215009 Z" id="Stroke"></path>
                    </g>
                </g>
            </g>
        </g>
    </g>
</svg>