<?xml version="1.0" encoding="UTF-8"?>
<svg width="69px" height="105px" viewBox="0 0 69 105" version="1.1" xmlns="http://www.w3.org/2000/svg" xmlns:xlink="http://www.w3.org/1999/xlink">
    <!-- Generator: Sketch 43 (38999) - http://www.bohemiancoding.com/sketch -->
    <title>icn-design</title>
    <desc>Created with Sketch.</desc>
    <defs></defs>
    <g id="Page-1" stroke="none" stroke-width="1" fill="none" fill-rule="evenodd">
        <g id="Home-1" transform="translate(-551.000000, -1000.000000)">
            <g id="Group-4" transform="translate(128.000000, 883.000000)">
                <g id="icn-design" transform="translate(423.000000, 117.000000)">
                    <path d="M57.5694591,64.1006289 L5.89650314,64.1006289" id="Stroke" stroke="#01B784" stroke-width="4" stroke-linecap="round" stroke-linejoin="round"></path>
                    <path d="M14.9597457,82.0533595 C13.9079469,81.0444913 12.8882249,79.9472407 11.9069669,78.771094 C8.64284151,74.8588855 5.84220093,70.1169309 3.76592702,65.0590948 C1.3367324,59.143707 -0.00026163522,53.0432342 -0.00026163522,47.7036881 C-0.00026163522,36.6800637 5.72766368,26.6418942 14.9381847,20.9615821 C19.8483674,17.9350832 25.5053748,16.3074616 31.3959648,16.3074616 C48.7357685,16.3074616 62.7921912,30.3643065 62.7921912,47.7036881 C62.7921912,60.8524949 54.9371517,77.1923328 44.4777295,84.8836295 L44.4777258,93.3577258 C44.4777258,97.4288964 41.1778159,100.729298 37.1074616,100.729298 L25.6857761,100.729298 C21.6143596,100.729298 18.3142038,97.4291423 18.3142038,93.3577258 L18.3142038,84.8750685 C17.14988,84.0218549 16.0291427,83.0796075 14.9597457,82.0533595 Z M60.175839,47.7036881 C60.175839,31.8092603 47.2907795,18.9238138 31.3959648,18.9238138 C25.9938343,18.9238138 20.8114827,20.4148685 16.3112836,23.1886649 C7.86577282,28.39718 2.61609057,37.5972302 2.61609057,47.7036881 C2.61609057,52.681946 3.88023419,58.4500149 6.18621748,64.065368 C8.16389158,68.8830134 10.8283062,73.3943147 13.915928,77.0949752 C14.836286,78.1981264 15.7901706,79.2245342 16.7710803,80.1654068 C17.9140032,81.2622139 19.1182522,82.2531353 20.3727143,83.1315111 C20.7223405,83.3763198 20.930556,83.7762959 20.930556,84.2031094 L20.930556,93.3577258 C20.930556,95.9841709 23.059331,98.1129459 25.6857761,98.1129459 L37.1074616,98.1129459 C39.7327572,98.1129459 41.8613736,95.9840122 41.8613736,93.3577258 L41.8613736,84.2122667 C41.8613736,83.7852777 42.0697593,83.38516 42.4196222,83.1403835 C52.4345569,76.1335799 60.175839,60.2559245 60.175839,47.7036881 Z" id="Stroke" fill="#01B784" fill-rule="nonzero"></path>
                    <rect id="Rectangle" fill="#FCFCFC" x="51.672956" y="19.6226415" width="14.3899371" height="67.3710692"></rect>
                    <path d="M24.7726692,25.1025912 C26.9102289,24.477283 29.1380528,24.1567799 31.3959648,24.1567799" id="Stroke" stroke="#01B784" stroke-width="2" stroke-linecap="round" stroke-linejoin="round"></path>
                    <path d="M11.9119899,64.1037686 C11.6032604,63.4379069 11.3076126,62.7615799 11.0263547,62.0774038 C8.97775094,57.0867119 7.84879497,51.9822088 7.84879497,47.7031648 C7.84879497,39.4708126 12.038883,31.9723472 19.058556,27.6422843 C19.4837132,27.3806491 19.9167195,27.1320956 20.3562667,26.8992403" id="Stroke" stroke="#01B784" stroke-width="2" stroke-linecap="round" stroke-linejoin="round"></path>
                    <path d="M26.1632604,84.0503145 L26.1632604,80.7968805 L23.3729208,78.8450818 C22.342078,78.1229686 21.3387069,77.2962013 20.3928956,76.388327 C19.5595874,75.5903396 18.7315119,74.6994717 17.9322164,73.7418868 C16.7326189,72.3028931 15.597122,70.7147673 14.549273,69.0154465" id="Stroke" stroke="#01B784" stroke-width="2" stroke-linecap="round" stroke-linejoin="round"></path>
                    <g id="Group" transform="translate(4.578616, 64.100629)" fill="#FFFFFF">
                        <path d="M52.6449308,0 L0.317886792,0" id="Fill"></path>
                    </g>
                    <g id="Group" transform="translate(27.471698, 100.075472)">
                        <polyline id="Fill" fill="#FFFFFF" points="-0.00026163522 0 -0.00026163522 2.6163522 7.84879497 2.6163522 7.84879497 0"></polyline>
                        <polyline id="Stroke" stroke="#01B784" stroke-width="4" stroke-linecap="round" stroke-linejoin="round" points="-0.00026163522 0 -0.00026163522 2.6163522 7.84879497 2.6163522 7.84879497 0"></polyline>
                    </g>
                    <path d="M19.6223799,87.6477987 L43.1695497,87.6477987 C43.5307925,87.6477987 43.8236377,87.3549535 43.8236377,86.9937107 C43.8236377,86.6324678 43.5307925,86.3396226 43.1695497,86.3396226 L19.6223799,86.3396226 C19.261137,86.3396226 18.9682918,86.6324678 18.9682918,86.9937107 C18.9682918,87.3549535 19.261137,87.6477987 19.6223799,87.6477987 Z" id="Stroke" fill="#01B784" fill-rule="nonzero"></path>
                    <path d="M19.9405283,91.572327 L43.4876981,91.572327 C43.848941,91.572327 44.1417862,91.2794818 44.1417862,90.918239 C44.1417862,90.5569961 43.848941,90.2641509 43.4876981,90.2641509 L19.9405283,90.2641509 C19.5792854,90.2641509 19.2864403,90.5569961 19.2864403,90.918239 C19.2864403,91.2794818 19.5792854,91.572327 19.9405283,91.572327 Z" id="Stroke" fill="#01B784" fill-rule="nonzero"></path>
                    <path d="M19.9405283,95.4968553 L43.4876981,95.4968553 C43.848941,95.4968553 44.1417862,95.2040102 44.1417862,94.8427673 C44.1417862,94.4815244 43.848941,94.1886792 43.4876981,94.1886792 L19.9405283,94.1886792 C19.5792854,94.1886792 19.2864403,94.4815244 19.2864403,94.8427673 C19.2864403,95.2040102 19.5792854,95.4968553 19.9405283,95.4968553 Z" id="Stroke" fill="#01B784" fill-rule="nonzero"></path>
                    <path d="M25.5002767,89.6100629 L25.5002767,98.7672956 C25.5002767,99.1285385 25.7931219,99.4213836 26.1543648,99.4213836 C26.5156076,99.4213836 26.8084528,99.1285385 26.8084528,98.7672956 L26.8084528,89.6100629 C26.8084528,89.24882 26.5156076,88.9559748 26.1543648,88.9559748 C25.7931219,88.9559748 25.5002767,89.24882 25.5002767,89.6100629 Z" id="Stroke" fill="#01B784" fill-rule="nonzero"></path>
                    <path d="M51.1222138,89.6623899 C50.3997281,89.6623899 49.8140377,89.0766995 49.8140377,88.3542138 L49.8140377,18.7173836 C49.8140377,17.9948979 50.3997281,17.4092075 51.1222138,17.4092075 L67.5071195,17.4092075 C68.2296052,17.4092075 68.8152956,17.9948979 68.8152956,18.7173836 L68.8152956,88.3542138 C68.8152956,89.0766995 68.2296052,89.6623899 67.5071195,89.6623899 L51.1222138,89.6623899 Z M66.1989434,87.0460377 L66.1989434,20.0255597 L52.4303899,20.0255597 L52.4303899,87.0460377 L66.1989434,87.0460377 Z" id="Stroke" fill="#01B784" fill-rule="nonzero"></path>
                    <g id="Group" transform="translate(55.597484, 37.937107)" fill-rule="nonzero" fill="#01B784">
                        <path d="M0.447527044,1.2621283 L0.447527044,49.3938516 C0.447527044,49.7550944 0.740372239,50.0479396 1.10161509,50.0479396 C1.46285795,50.0479396 1.75570314,49.7550944 1.75570314,49.3938516 L1.75570314,1.2621283 C1.75570314,0.900885447 1.46285795,0.608040252 1.10161509,0.608040252 C0.740372239,0.608040252 0.447527044,0.900885447 0.447527044,1.2621283 Z" id="Stroke"></path>
                    </g>
                    <g id="Group" transform="translate(60.830189, 52.981132)" fill-rule="nonzero" fill="#01B784">
                        <path d="M0.447527044,0.65408805 L0.447527044,34.3500881 C0.447527044,34.7113309 0.740372239,35.0041761 1.10161509,35.0041761 C1.46285795,35.0041761 1.75570314,34.7113309 1.75570314,34.3500881 L1.75570314,0.65408805 C1.75570314,0.292845195 1.46285795,0 1.10161509,0 C0.740372239,0 0.447527044,0.292845195 0.447527044,0.65408805 Z" id="Stroke"></path>
                    </g>
                    <g id="Group" transform="translate(55.597484, 26.163522)" fill-rule="nonzero" fill="#01B784">
                        <path d="M1.75570314,9.22303396 L1.75570314,1.03123522 C1.75570314,0.669992365 1.46285795,0.37714717 1.10161509,0.37714717 C0.740372239,0.37714717 0.447527044,0.669992365 0.447527044,1.03123522 L0.447527044,9.22303396 C0.447527044,9.58427682 0.740372239,9.87712201 1.10161509,9.87712201 C1.46285795,9.87712201 1.75570314,9.58427682 1.75570314,9.22303396 Z" id="Stroke"></path>
                    </g>
                    <g id="Group" transform="translate(49.710692, 0.000000)" fill-rule="nonzero" fill="#01B784">
                        <path d="M19.1056503,17.693605 L19.1056503,9.50049811 C19.1056503,4.25321619 14.8520191,0.00052327044 9.6043673,0.00052327044 C4.35778909,0.00052327044 0.104392453,4.25345075 0.104392453,9.50049811 L0.104392453,17.693605 C0.104392453,18.4160907 0.690082843,19.0017811 1.41256855,19.0017811 C2.13505426,19.0017811 2.72074465,18.4160907 2.72074465,17.693605 L2.72074465,9.50049811 C2.72074465,5.69848678 5.80269591,2.61687547 9.6043673,2.61687547 C13.4071769,2.61687547 16.4892981,5.69831683 16.4892981,9.50049811 L16.4892981,17.693605 C16.4892981,18.4160907 17.0749885,19.0017811 17.7974742,19.0017811 C18.5199599,19.0017811 19.1056503,18.4160907 19.1056503,17.693605 Z" id="Stroke"></path>
                    </g>
                    <g id="Group" transform="translate(50.364780, 11.119497)" fill-rule="nonzero" fill="#01B784">
                        <path d="M1.78252075,2.7619522 L17.1431245,2.7619522 C17.8656102,2.7619522 18.4513006,2.17626181 18.4513006,1.4537761 C18.4513006,0.73129039 17.8656102,0.1456 17.1431245,0.1456 L1.78252075,0.1456 C1.06003504,0.1456 0.474344654,0.73129039 0.474344654,1.4537761 C0.474344654,2.17626181 1.06003504,2.7619522 1.78252075,2.7619522 Z" id="Stroke"></path>
                    </g>
                    <g id="Group" transform="translate(49.710692, 86.993711)" fill-rule="nonzero" fill="#01B784">
                        <path d="M0.276262245,2.01025014 L8.46936916,16.346552 C8.82785328,16.9738277 9.62696946,17.1917263 10.2542451,16.8332422 C10.8815208,16.474758 11.0994194,15.6756419 10.7409352,15.0483662 L2.54782832,0.712064326 C2.18934421,0.0847886751 1.39022803,-0.133109919 0.762952376,0.225374195 C0.135676725,0.583858309 -0.0822218683,1.38297449 0.276262245,2.01025014 Z" id="Stroke"></path>
                    </g>
                    <g id="Group" transform="translate(57.559748, 86.993711)" fill-rule="nonzero" fill="#01B784">
                        <path d="M8.81263457,0.712064326 L0.619527654,15.0483662 C0.261043541,15.6756419 0.478942134,16.474758 1.10621779,16.8332422 C1.73349344,17.1917263 2.53260962,16.9738277 2.89109373,16.346552 L11.0842006,2.01025014 C11.4426848,1.38297449 11.2247862,0.583858309 10.5975105,0.225374195 C9.97023487,-0.133109919 9.17111869,0.0847886751 8.81263457,0.712064326 Z" id="Stroke"></path>
                    </g>
                    <g id="Group" transform="translate(55.597484, 15.698113)" fill-rule="nonzero" fill="#01B784">
                        <path d="M1.62606289,1.96226415 L1.62606289,0.65408805 C1.62606289,0.292845195 1.3332177,0 0.971974843,0 C0.610731988,0 0.317886792,0.292845195 0.317886792,0.65408805 L0.317886792,1.96226415 C0.317886792,2.32350701 0.610731988,2.6163522 0.971974843,2.6163522 C1.3332177,2.6163522 1.62606289,2.32350701 1.62606289,1.96226415 Z" id="Stroke"></path>
                    </g>
                    <g id="Group" transform="translate(54.289308, 95.496855)" fill-rule="nonzero" fill="#01B784">
                        <path d="M0.971974843,1.3081761 L9.12191195,1.3081761 C9.4831548,1.3081761 9.776,1.01533091 9.776,0.65408805 C9.776,0.292845195 9.4831548,0 9.12191195,0 L0.971974843,0 C0.610731988,0 0.317886792,0.292845195 0.317886792,0.65408805 C0.317886792,1.01533091 0.610731988,1.3081761 0.971974843,1.3081761 Z" id="Stroke"></path>
                    </g>
                </g>
            </g>
        </g>
    </g>
</svg>