<?xml version="1.0" encoding="UTF-8"?>
<svg width="148px" height="156px" viewBox="0 0 148 156" version="1.1" xmlns="http://www.w3.org/2000/svg" xmlns:xlink="http://www.w3.org/1999/xlink">
    <!-- Generator: Sketch 43.1 (39012) - http://www.bohemiancoding.com/sketch -->
    <title>icn-discovery</title>
    <desc>Created with Sketch.</desc>
    <defs></defs>
    <g id="Icons" stroke="none" stroke-width="1" fill="none" fill-rule="evenodd" stroke-linecap="round" stroke-linejoin="round">
        <g id="Version-2" transform="translate(-666.000000, -114.000000)" stroke="#01B784">
            <g id="icn-discovery" transform="translate(666.000000, 116.000000)">
                <path d="M53.625,108 L53.625,108 C55.833,108 57.625,109.792 57.625,112 L57.625,148 C57.625,150.208 55.833,152 53.625,152 C51.417,152 49.625,150.208 49.625,148 L49.625,112 C49.625,109.792 51.417,108 53.625,108 Z" id="Stroke" stroke-width="4"></path>
                <path d="M78.168,28.8028 C72.176,16.3528 63.67,6.3148 53.626,0.0008 C43.74,6.2128 35.358,16.0428 29.384,28.2188" id="Stroke" stroke-width="4"></path>
                <path d="M57.8624,141.0478 C75.6324,127.4018 87.6244,101.5998 87.6244,71.9998 C87.6244,56.0658 84.1484,41.2318 78.1684,28.8018" id="Stroke" stroke-width="4"></path>
                <path d="M29.3838,28.2178 C23.2238,40.7678 19.6258,55.8098 19.6258,71.9998 C19.6258,101.7298 31.7238,127.6298 49.6238,141.2278" id="Stroke" stroke-width="4"></path>
                <path d="M78.168,28.8028 C72.302,33.8188 63.718,37.0008 54.126,37.0008 C44.156,37.0008 35.252,33.5788 29.384,28.2188" id="Stroke" stroke-width="4"></path>
                <path d="M41.6876,120.1826 C43.9096,124.1046 46.3956,127.7386 49.1096,131.0366" id="Stroke" stroke-width="2"></path>
                <path d="M32.5986,97 C34.6726,105.448 37.7666,113.264 41.6866,120.182" id="Stroke" stroke-width="2"></path>
                <path d="M30.2392,83.5156 C30.4912,85.8656 30.8212,88.1816 31.2212,90.4596" id="Stroke" stroke-width="2"></path>
                <path d="M34.2324,41.1758 C32.7504,45.9138 31.5984,50.8838 30.8164,56.0398" id="Stroke" stroke-width="2"></path>
                <path d="M47.9726,14.3994 C44.7406,18.5434 41.8566,23.1814 39.3846,28.2174 C38.6806,29.6494 38.0126,31.1134 37.3786,32.6074" id="Stroke" stroke-width="2"></path>
                <path d="M63.625,59 C63.625,64.522 59.147,69 53.625,69 C48.103,69 43.625,64.522 43.625,59 C43.625,53.478 48.103,49 53.625,49 C59.147,49 63.625,53.478 63.625,59 Z" id="Stroke" stroke-width="4"></path>
                <path d="M63.625,87 C63.625,92.522 59.147,97 53.625,97 C48.103,97 43.625,92.522 43.625,87 C43.625,81.478 48.103,77 53.625,77 C59.147,77 63.625,81.478 63.625,87 Z" id="Stroke" stroke-width="4"></path>
                <path d="M26.4892,109.2266 C21.7052,114.2466 4.7292,133.8226 11.9712,152.0006 C11.9712,152.0006 24.3732,129.0606 37.0532,130.0006" id="Stroke" stroke-width="4"></path>
                <path d="M80.7608,109.2266 C85.5448,114.2466 102.5208,133.8226 95.2788,152.0006 C95.2788,152.0006 82.8768,129.0606 70.1968,130.0006" id="Stroke" stroke-width="4"></path>
                <path d="M2,152 L120,152" id="Stroke" stroke-width="4"></path>
                <path d="M108.333,152 L108.333,102.408" id="Stroke" stroke-width="4"></path>
                <path d="M108.9062,102.0254 C113.5462,101.8494 118.2182,102.5934 122.5722,104.2014 C126.3622,105.6034 129.8822,107.6394 133.5962,109.2274 C137.3122,110.8134 141.3602,111.9574 145.3642,111.4274 C144.4382,112.9214 143.2882,114.2794 141.9662,115.4414 C137.3742,119.4754 131.0462,120.8974 124.9502,121.3734 C119.4402,121.8034 113.8382,121.5714 108.4822,120.2034" id="Stroke" stroke-width="4"></path>
                <path d="M61.7666,53.206 L47.7506,67.22" id="Stroke" stroke-width="2"></path>
                <path d="M53,57 L46,64" id="Stroke" stroke-width="2"></path>
                <path d="M60.7002,79.9336 L47.3162,93.3156" id="Stroke" stroke-width="2"></path>
                <path d="M55,91 L50,96" id="Stroke" stroke-width="2"></path>
                <path d="M87,57 L101,57" id="Stroke" stroke-width="2"></path>
                <path d="M107,57 L111,57" id="Stroke" stroke-width="2"></path>
                <path d="M95,91 L87,91" id="Stroke" stroke-width="2"></path>
                <path d="M21,91 L11,91" id="Stroke" stroke-width="2"></path>
                <path d="M7,91 L1,91" id="Stroke" stroke-width="2"></path>
                <path d="M95,75 L111,75" id="Stroke" stroke-width="2"></path>
                <path d="M115,75 L119,75" id="Stroke" stroke-width="2"></path>
                <path d="M19,41 L11,41" id="Stroke" stroke-width="2"></path>
                <path d="M7,41 L3,41" id="Stroke" stroke-width="2"></path>
                <path d="M11,63 L19,63" id="Stroke" stroke-width="2"></path>
                <path d="M81,15 L91,15" id="Stroke" stroke-width="2"></path>
            </g>
        </g>
    </g>
</svg>