<?xml version="1.0" encoding="UTF-8"?>
<svg width="132px" height="160px" viewBox="0 0 132 160" version="1.1" xmlns="http://www.w3.org/2000/svg" xmlns:xlink="http://www.w3.org/1999/xlink">
    <!-- Generator: Sketch 43.1 (39012) - http://www.bohemiancoding.com/sketch -->
    <title>icn-engineering</title>
    <desc>Created with Sketch.</desc>
    <defs></defs>
    <g id="Icons" stroke="none" stroke-width="1" fill="none" fill-rule="evenodd">
        <g id="Version-2" transform="translate(-760.000000, -375.000000)">
            <g id="icn-engineering" transform="translate(762.000000, 377.000000)">
                <path d="M48.9414,54 L53.0594,54 C59.0794,54 63.9594,58.88 63.9594,64.9 L63.9594,145.1 C63.9594,151.12 59.0794,156 53.0594,156 L48.9414,156 C42.9214,156 38.0414,151.12 38.0414,145.1 L38.0414,64.9 C38.0414,58.88 42.9214,54 48.9414,54" id="Fill-1" fill="#FFFFFF"></path>
                <path d="M48.9414,54 L53.0594,54 C59.0794,54 63.9594,58.88 63.9594,64.9 L63.9594,145.1 C63.9594,151.12 59.0794,156 53.0594,156 L48.9414,156 C42.9214,156 38.0414,151.12 38.0414,145.1 L38.0414,64.9 C38.0414,58.88 42.9214,54 48.9414,54 Z" id="Stroke-3" stroke="#01B784" stroke-width="4" stroke-linecap="round" stroke-linejoin="round"></path>
                <path d="M102,102.9414 L102,107.0594 C102,113.0794 97.12,117.9594 91.1,117.9594 L10.9,117.9594 C4.88,117.9594 0,113.0794 0,107.0594 L0,102.9414 C0,96.9214 4.88,92.0414 10.9,92.0414 L91.1,92.0414 C97.12,92.0414 102,96.9214 102,102.9414" id="Fill-5" fill="#FFFFFF"></path>
                <path d="M102,102.9414 L102,107.0594 C102,113.0794 97.12,117.9594 91.1,117.9594 L10.9,117.9594 C4.88,117.9594 0,113.0794 0,107.0594 L0,102.9414 C0,96.9214 4.88,92.0414 10.9,92.0414 L91.1,92.0414 C97.12,92.0414 102,96.9214 102,102.9414 Z" id="Stroke-7" stroke="#01B784" stroke-width="4" stroke-linecap="round" stroke-linejoin="round"></path>
                <path d="M85.6064,67.4814 L88.5184,70.3934 C92.7744,74.6494 92.7744,81.5514 88.5184,85.8094 L31.8084,142.5194 C27.5524,146.7754 20.6504,146.7754 16.3944,142.5194 L13.4804,139.6074 C9.2244,135.3494 9.2244,128.4474 13.4804,124.1914 L70.1904,67.4814 C74.4484,63.2254 81.3504,63.2254 85.6064,67.4814" id="Fill-9" fill="#FFFFFF"></path>
                <path d="M85.6064,67.4814 L88.5184,70.3934 C92.7744,74.6494 92.7744,81.5514 88.5184,85.8094 L31.8084,142.5194 C27.5524,146.7754 20.6504,146.7754 16.3944,142.5194 L13.4804,139.6074 C9.2244,135.3494 9.2244,128.4474 13.4804,124.1914 L70.1904,67.4814 C74.4484,63.2254 81.3504,63.2254 85.6064,67.4814 Z" id="Stroke-11" stroke="#01B784" stroke-width="4" stroke-linecap="round" stroke-linejoin="round"></path>
                <path d="M16.3936,67.4814 L13.4816,70.3934 C9.2256,74.6494 9.2256,81.5514 13.4816,85.8094 L70.1916,142.5194 C74.4476,146.7754 81.3496,146.7754 85.6056,142.5194 L88.5196,139.6074 C92.7756,135.3494 92.7756,128.4474 88.5196,124.1914 L31.8096,67.4814 C27.5516,63.2254 20.6496,63.2254 16.3936,67.4814" id="Fill-13" fill="#FFFFFF"></path>
                <path d="M16.3936,67.4814 L13.4816,70.3934 C9.2256,74.6494 9.2256,81.5514 13.4816,85.8094 L70.1916,142.5194 C74.4476,146.7754 81.3496,146.7754 85.6056,142.5194 L88.5196,139.6074 C92.7756,135.3494 92.7756,128.4474 88.5196,124.1914 L31.8096,67.4814 C27.5516,63.2254 20.6496,63.2254 16.3936,67.4814 Z" id="Stroke-15" stroke="#01B784" stroke-width="4" stroke-linecap="round" stroke-linejoin="round"></path>
                <path d="M93.2216,105 C93.2216,128.086 74.5056,146.804 51.4176,146.804 C28.3316,146.804 9.6156,128.086 9.6156,105 C9.6156,81.914 28.3316,63.196 51.4176,63.196 C74.5056,63.196 93.2216,81.914 93.2216,105" id="Fill-17" fill="#FFFFFF"></path>
                <path d="M93.2216,105 C93.2216,128.086 74.5056,146.804 51.4176,146.804 C28.3316,146.804 9.6156,128.086 9.6156,105 C9.6156,81.914 28.3316,63.196 51.4176,63.196 C74.5056,63.196 93.2216,81.914 93.2216,105 Z" id="Stroke-19" stroke="#01B784" stroke-width="4" stroke-linecap="round" stroke-linejoin="round"></path>
                <g id="Group-24" transform="translate(22.000000, 68.000000)">
                    <path d="M0.2198,17.4874 C6.5178,8.0794 17.2458,1.8854 29.4178,1.8854 C48.8118,1.8854 64.5338,17.6074 64.5338,36.9994 C64.5338,56.3934 48.8118,72.1154 29.4178,72.1154 C17.2978,72.1154 6.6098,65.9734 0.3018,56.6334" id="Fill-21" fill="#FFFFFF"></path>
                    <path d="M0.2198,17.4874 C6.5178,8.0794 17.2458,1.8854 29.4178,1.8854 C48.8118,1.8854 64.5338,17.6074 64.5338,36.9994 C64.5338,56.3934 48.8118,72.1154 29.4178,72.1154 C17.2978,72.1154 6.6098,65.9734 0.3018,56.6334" id="Stroke-23" stroke="#01B784" stroke-width="2" stroke-linecap="round" stroke-linejoin="round"></path>
                </g>
                <g id="Group-28" transform="translate(16.000000, 90.000000)">
                    <path d="M1.2842,6.7216 C1.7302,4.8796 2.3202,3.0936 3.0442,1.3756" id="Fill-25" fill="#FFFFFF"></path>
                    <path d="M1.2842,6.7216 C1.7302,4.8796 2.3202,3.0936 3.0442,1.3756" id="Stroke-27" stroke="#01B784" stroke-width="2" stroke-linecap="round" stroke-linejoin="round"></path>
                </g>
                <path d="M62.2872,105 C62.2872,111.002 57.4212,115.87 51.4172,115.87 C45.4152,115.87 40.5492,111.002 40.5492,105 C40.5492,98.998 45.4152,94.13 51.4172,94.13 C57.4212,94.13 62.2872,98.998 62.2872,105" id="Fill-29" fill="#FFFFFF"></path>
                <path d="M62.2872,105 C62.2872,111.002 57.4212,115.87 51.4172,115.87 C45.4152,115.87 40.5492,111.002 40.5492,105 C40.5492,98.998 45.4152,94.13 51.4172,94.13 C57.4212,94.13 62.2872,98.998 62.2872,105 Z" id="Stroke-31" stroke="#01B784" stroke-width="4" stroke-linecap="round" stroke-linejoin="round"></path>
                <path d="M51.418,78.082 C53.026,78.082 54.328,79.384 54.328,80.992 C54.328,82.6 53.026,83.902 51.418,83.902 C49.81,83.902 48.508,82.6 48.508,80.992 C48.508,79.384 49.81,78.082 51.418,78.082" id="Fill-33" fill="#FFFFFF"></path>
                <path d="M51.418,78.082 C53.026,78.082 54.328,79.384 54.328,80.992 C54.328,82.6 53.026,83.902 51.418,83.902 C49.81,83.902 48.508,82.6 48.508,80.992 C48.508,79.384 49.81,78.082 51.418,78.082 Z" id="Stroke-35" stroke="#01B784" stroke-width="2" stroke-linecap="round" stroke-linejoin="round"></path>
                <path d="M24.5,105 C24.5,103.392 25.802,102.09 27.41,102.09 C29.018,102.09 30.32,103.392 30.32,105 C30.32,106.608 29.018,107.91 27.41,107.91 C25.802,107.91 24.5,106.608 24.5,105" id="Fill-37" fill="#FFFFFF"></path>
                <path d="M24.5,105 C24.5,103.392 25.802,102.09 27.41,102.09 C29.018,102.09 30.32,103.392 30.32,105 C30.32,106.608 29.018,107.91 27.41,107.91 C25.802,107.91 24.5,106.608 24.5,105 Z" id="Stroke-39" stroke="#01B784" stroke-width="2" stroke-linecap="round" stroke-linejoin="round"></path>
                <path d="M51.418,131.918 C49.81,131.918 48.508,130.616 48.508,129.008 C48.508,127.4 49.81,126.098 51.418,126.098 C53.026,126.098 54.328,127.4 54.328,129.008 C54.328,130.616 53.026,131.918 51.418,131.918" id="Fill-41" fill="#FFFFFF"></path>
                <path d="M51.418,131.918 C49.81,131.918 48.508,130.616 48.508,129.008 C48.508,127.4 49.81,126.098 51.418,126.098 C53.026,126.098 54.328,127.4 54.328,129.008 C54.328,130.616 53.026,131.918 51.418,131.918 Z" id="Stroke-43" stroke="#01B784" stroke-width="2" stroke-linecap="round" stroke-linejoin="round"></path>
                <path d="M78.336,105 C78.336,106.608 77.034,107.91 75.426,107.91 C73.818,107.91 72.516,106.608 72.516,105 C72.516,103.392 73.818,102.09 75.426,102.09 C77.034,102.09 78.336,103.392 78.336,105" id="Fill-45" fill="#FFFFFF"></path>
                <path d="M78.336,105 C78.336,106.608 77.034,107.91 75.426,107.91 C73.818,107.91 72.516,106.608 72.516,105 C72.516,103.392 73.818,102.09 75.426,102.09 C77.034,102.09 78.336,103.392 78.336,105 Z" id="Stroke-47" stroke="#01B784" stroke-width="2" stroke-linecap="round" stroke-linejoin="round"></path>
                <path d="M32.3838,85.9658 C33.5198,84.8298 35.3638,84.8298 36.4998,85.9658 C37.6358,87.1018 37.6358,88.9458 36.4998,90.0818 C35.3638,91.2178 33.5198,91.2178 32.3838,90.0818 C31.2478,88.9458 31.2478,87.1018 32.3838,85.9658" id="Fill-49" fill="#FFFFFF"></path>
                <path d="M32.3838,85.9658 C33.5198,84.8298 35.3638,84.8298 36.4998,85.9658 C37.6358,87.1018 37.6358,88.9458 36.4998,90.0818 C35.3638,91.2178 33.5198,91.2178 32.3838,90.0818 C31.2478,88.9458 31.2478,87.1018 32.3838,85.9658 Z" id="Stroke-51" stroke="#01B784" stroke-width="2" stroke-linecap="round" stroke-linejoin="round"></path>
                <path d="M32.3838,124.0342 C31.2478,122.8982 31.2478,121.0542 32.3838,119.9182 C33.5198,118.7822 35.3638,118.7822 36.4998,119.9182 C37.6358,121.0542 37.6358,122.8982 36.4998,124.0342 C35.3638,125.1702 33.5198,125.1702 32.3838,124.0342" id="Fill-53" fill="#FFFFFF"></path>
                <path d="M32.3838,124.0342 C31.2478,122.8982 31.2478,121.0542 32.3838,119.9182 C33.5198,118.7822 35.3638,118.7822 36.4998,119.9182 C37.6358,121.0542 37.6358,122.8982 36.4998,124.0342 C35.3638,125.1702 33.5198,125.1702 32.3838,124.0342 Z" id="Stroke-55" stroke="#01B784" stroke-width="2" stroke-linecap="round" stroke-linejoin="round"></path>
                <path d="M70.4522,124.0342 C69.3162,125.1702 67.4722,125.1702 66.3362,124.0342 C65.2002,122.8982 65.2002,121.0542 66.3362,119.9182 C67.4722,118.7822 69.3162,118.7822 70.4522,119.9182 C71.5882,121.0542 71.5882,122.8982 70.4522,124.0342" id="Fill-57" fill="#FFFFFF"></path>
                <path d="M70.4522,124.0342 C69.3162,125.1702 67.4722,125.1702 66.3362,124.0342 C65.2002,122.8982 65.2002,121.0542 66.3362,119.9182 C67.4722,118.7822 69.3162,118.7822 70.4522,119.9182 C71.5882,121.0542 71.5882,122.8982 70.4522,124.0342 Z" id="Stroke-59" stroke="#01B784" stroke-width="2" stroke-linecap="round" stroke-linejoin="round"></path>
                <path d="M70.4522,85.9658 C71.5882,87.1018 71.5882,88.9458 70.4522,90.0818 C69.3162,91.2178 67.4722,91.2178 66.3362,90.0818 C65.2002,88.9458 65.2002,87.1018 66.3362,85.9658 C67.4722,84.8298 69.3162,84.8298 70.4522,85.9658" id="Fill-61" fill="#FFFFFF"></path>
                <path d="M70.4522,85.9658 C71.5882,87.1018 71.5882,88.9458 70.4522,90.0818 C69.3162,91.2178 67.4722,91.2178 66.3362,90.0818 C65.2002,88.9458 65.2002,87.1018 66.3362,85.9658 C67.4722,84.8298 69.3162,84.8298 70.4522,85.9658 Z" id="Stroke-63" stroke="#01B784" stroke-width="2" stroke-linecap="round" stroke-linejoin="round"></path>
                <path d="M127.6934,29.8702 C127.6934,16.4702 119.5774,4.9702 107.9974,0.0002 L107.9974,25.9302 C107.9974,33.0002 102.2674,38.7342 95.1954,38.7342 C88.1254,38.7342 82.3934,33.0002 82.3934,25.9302 L82.3934,0.0002 C70.8134,4.9702 62.6974,16.4702 62.6974,29.8702 C62.6974,44.5902 72.4914,57.0082 85.9134,61.0042 L82.8614,61.0042 L82.8614,143.6642 C82.8614,150.4782 88.3834,156.0002 95.1954,156.0002 C102.0074,156.0002 107.5294,150.4782 107.5294,143.6642 L107.5294,61.0042 L104.4774,61.0042 C117.8994,57.0082 127.6934,44.5902 127.6934,29.8702" id="Fill-65" fill="#FFFFFF"></path>
                <path d="M127.6934,29.8702 C127.6934,16.4702 119.5774,4.9702 107.9974,0.0002 L107.9974,25.9302 C107.9974,33.0002 102.2674,38.7342 95.1954,38.7342 C88.1254,38.7342 82.3934,33.0002 82.3934,25.9302 L82.3934,0.0002 C70.8134,4.9702 62.6974,16.4702 62.6974,29.8702 C62.6974,44.5902 72.4914,57.0082 85.9134,61.0042 L82.8614,61.0042 L82.8614,143.6642 C82.8614,150.4782 88.3834,156.0002 95.1954,156.0002 C102.0074,156.0002 107.5294,150.4782 107.5294,143.6642 L107.5294,61.0042 L104.4774,61.0042 C117.8994,57.0082 127.6934,44.5902 127.6934,29.8702 Z" id="Stroke-67" stroke="#01B784" stroke-width="4" stroke-linecap="round" stroke-linejoin="round"></path>
                <g id="Group-72" transform="translate(90.000000, 80.000000)">
                    <path d="M1.2568,1.9932 L1.2568,48.3472" id="Fill-69" fill="#FFFFFF"></path>
                    <path d="M1.2568,1.9932 L1.2568,48.3472" id="Stroke-71" stroke="#01B784" stroke-width="2" stroke-linecap="round" stroke-linejoin="round"></path>
                </g>
                <g id="Group-76" transform="translate(90.000000, 68.000000)">
                    <path d="M1.2568,8.254 L1.2568,1.828" id="Fill-73" fill="#FFFFFF"></path>
                    <path d="M1.2568,8.254 L1.2568,1.828" id="Stroke-75" stroke="#01B784" stroke-width="2" stroke-linecap="round" stroke-linejoin="round"></path>
                </g>
                <path d="M99.1348,143.1182 C99.1348,145.2942 97.3708,147.0582 95.1968,147.0582 C93.0208,147.0582 91.2568,145.2942 91.2568,143.1182 C91.2568,140.9442 93.0208,139.1802 95.1968,139.1802 C97.3708,139.1802 99.1348,140.9442 99.1348,143.1182" id="Fill-77" fill="#FFFFFF"></path>
                <path d="M99.1348,143.1182 C99.1348,145.2942 97.3708,147.0582 95.1968,147.0582 C93.0208,147.0582 91.2568,145.2942 91.2568,143.1182 C91.2568,140.9442 93.0208,139.1802 95.1968,139.1802 C97.3708,139.1802 99.1348,140.9442 99.1348,143.1182 Z" id="Stroke-79" stroke="#01B784" stroke-width="2" stroke-linecap="round" stroke-linejoin="round"></path>
            </g>
        </g>
    </g>
</svg>