<?xml version="1.0" encoding="UTF-8"?>
<svg width="137px" height="127px" viewBox="0 0 137 127" version="1.1" xmlns="http://www.w3.org/2000/svg" xmlns:xlink="http://www.w3.org/1999/xlink">
    <!-- Generator: Sketch 43.1 (39012) - http://www.bohemiancoding.com/sketch -->
    <title>icn-prototype</title>
    <desc>Created with Sketch.</desc>
    <defs>
        <polygon id="path-1" points="0 126.422535 134.996282 126.422535 134.996282 0 0 0"></polygon>
    </defs>
    <g id="Icons" stroke="none" stroke-width="1" fill="none" fill-rule="evenodd">
        <g id="Version-2" transform="translate(-395.000000, -674.000000)">
            <g id="icn-prototype" transform="translate(396.000000, 674.577465)">
                <path d="M130.861499,88.4848563 L24.3141183,88.4848563 C23.0882028,88.4848563 22.094062,87.4907155 22.094062,86.2648 L22.094062,15.7880676 L22.094062,4.13612394 C22.094062,2.91020845 23.0882028,1.91606761 24.3141183,1.91606761 L130.861499,1.91606761 C132.087414,1.91606761 133.081555,2.91020845 133.081555,4.13612394 L133.081555,86.2648 C133.081555,87.4907155 132.087414,88.4848563 130.861499,88.4848563 Z" id="Fill" fill="#FFFFFF"></path>
                <path d="M130.861499,88.4848563 L24.3141183,88.4848563 C23.0882028,88.4848563 22.094062,87.4907155 22.094062,86.2648 L22.094062,15.7880676 L22.094062,4.13612394 C22.094062,2.91020845 23.0882028,1.91606761 24.3141183,1.91606761 L130.861499,1.91606761 C132.087414,1.91606761 133.081555,2.91020845 133.081555,4.13612394 L133.081555,86.2648 C133.081555,87.4907155 132.087414,88.4848563 130.861499,88.4848563 Z" id="Stroke" stroke="#01B784" stroke-width="4" stroke-linecap="round" stroke-linejoin="round"></path>
                <path d="M120.771448,98.574907 L14.2259831,98.574907 C13.0000676,98.574907 12.0059268,97.5807662 12.0059268,96.3548507 L12.0059268,25.8781183 L12.0059268,14.2261746 C12.0059268,13.0002592 13.0000676,12.0061183 14.2259831,12.0061183 L120.771448,12.0061183 C121.997363,12.0061183 122.991504,13.0002592 122.991504,14.2261746 L122.991504,96.3548507 C122.991504,97.5807662 121.997363,98.574907 120.771448,98.574907" id="Fill" fill="#FFFFFF"></path>
                <path d="M120.771448,98.574907 L14.2259831,98.574907 C13.0000676,98.574907 12.0059268,97.5807662 12.0059268,96.3548507 L12.0059268,25.8781183 L12.0059268,14.2261746 C12.0059268,13.0002592 13.0000676,12.0061183 14.2259831,12.0061183 L120.771448,12.0061183 C121.997363,12.0061183 122.991504,13.0002592 122.991504,14.2261746 L122.991504,96.3548507 C122.991504,97.5807662 121.997363,98.574907 120.771448,98.574907 Z" id="Stroke" stroke="#01B784" stroke-width="4" stroke-linecap="round" stroke-linejoin="round"></path>
                <path d="M110.681397,108.664 L4.13593239,108.664 C2.9100169,108.664 1.91587606,107.669859 1.91587606,106.443944 L1.91587606,35.9672113 L1.91587606,24.3152676 C1.91587606,23.0893521 2.9100169,22.0952113 4.13593239,22.0952113 L110.681397,22.0952113 C111.907313,22.0952113 112.901454,23.0893521 112.901454,24.3152676 L112.901454,106.443944 C112.901454,107.669859 111.907313,108.664 110.681397,108.664" id="Fill" fill="#FFFFFF"></path>
                <path d="M110.681397,108.664 L4.13593239,108.664 C2.9100169,108.664 1.91587606,107.669859 1.91587606,106.443944 L1.91587606,35.9672113 L1.91587606,24.3152676 C1.91587606,23.0893521 2.9100169,22.0952113 4.13593239,22.0952113 L110.681397,22.0952113 C111.907313,22.0952113 112.901454,23.0893521 112.901454,24.3152676 L112.901454,106.443944 C112.901454,107.669859 111.907313,108.664 110.681397,108.664 Z" id="Stroke" stroke="#01B784" stroke-width="4" stroke-linecap="round" stroke-linejoin="round"></path>
                <path d="M1.91549296,34.303031 L112.90107,34.303031" id="Stroke" stroke="#01B784" stroke-width="2" stroke-linecap="round" stroke-linejoin="round"></path>
                <path d="M10.7943775,28.7538479 C10.7943775,29.9797634 9.80023662,30.9739042 8.57432113,30.9739042 C7.34840563,30.9739042 6.35618028,29.9797634 6.35618028,28.7538479 C6.35618028,27.5279324 7.34840563,26.5337915 8.57432113,26.5337915 C9.80023662,26.5337915 10.7943775,27.5279324 10.7943775,28.7538479" id="Fill" fill="#01B784"></path>
                <path d="M13.0136676,28.7538479 C13.0136676,27.5279324 14.0078085,26.5337915 15.2337239,26.5337915 C16.4596394,26.5337915 17.4537803,27.5279324 17.4537803,28.7538479 C17.4537803,29.9797634 16.4596394,30.9739042 15.2337239,30.9739042 C14.0078085,30.9739042 13.0136676,29.9797634 13.0136676,28.7538479" id="Fill" fill="#01B784"></path>
                <path d="M19.6730704,28.7538479 C19.6730704,27.5279324 20.6672113,26.5337915 21.8931268,26.5337915 C23.1190423,26.5337915 24.1131831,27.5279324 24.1131831,28.7538479 C24.1131831,29.9797634 23.1190423,30.9739042 21.8931268,30.9739042 C20.6672113,30.9739042 19.6730704,29.9797634 19.6730704,28.7538479" id="Fill" fill="#01B784"></path>
                <mask id="mask-2" fill="white">
                    <use xlink:href="#path-1"></use>
                </mask>
                <g id="Clip"></g>
                <polygon id="Stroke" stroke="#01B784" stroke-width="2" stroke-linecap="round" stroke-linejoin="round" mask="url(#mask-2)" points="21.8940845 69.8197183 61.8493521 69.8197183 61.8493521 40.9628169 21.8940845 40.9628169"></polygon>
                <polygon id="Stroke" stroke="#01B784" stroke-width="2" stroke-linecap="round" stroke-linejoin="round" mask="url(#mask-2)" points="23.0031549 107.55493 62.9584225 107.55493 62.9584225 98.6766197 23.0031549 98.6766197"></polygon>
                <path d="M69.6170592,40.9624338 L87.3755944,40.9624338" id="Stroke" stroke="#01B784" stroke-width="2" stroke-linecap="round" stroke-linejoin="round" mask="url(#mask-2)"></path>
                <path d="M69.6170592,45.4021634 L81.8264113,45.4021634" id="Stroke" stroke="#01B784" stroke-width="2" stroke-linecap="round" stroke-linejoin="round" mask="url(#mask-2)"></path>
                <path d="M69.6170592,49.8411268 L87.3755944,49.8411268" id="Stroke" stroke="#01B784" stroke-width="2" stroke-linecap="round" stroke-linejoin="round" mask="url(#mask-2)"></path>
                <path d="M69.6170592,103.114817 L81.8264113,103.114817" id="Stroke" stroke="#01B784" stroke-width="2" stroke-linecap="round" stroke-linejoin="round" mask="url(#mask-2)"></path>
                <path d="M69.6170592,65.3792225 L81.8264113,65.3792225" id="Stroke" stroke="#01B784" stroke-width="2" stroke-linecap="round" stroke-linejoin="round" mask="url(#mask-2)"></path>
                <path d="M69.6170592,69.8191437 L87.3755944,69.8191437" id="Stroke" stroke="#01B784" stroke-width="2" stroke-linecap="round" stroke-linejoin="round" mask="url(#mask-2)"></path>
                <polygon id="Stroke" stroke="#01B784" stroke-width="2" stroke-linecap="round" stroke-linejoin="round" mask="url(#mask-2)" points="21.892169 92.0164507 92.9243944 92.0164507 92.9243944 76.4779718 21.892169 76.4779718"></polygon>
                <polyline id="Stroke" stroke="#01B784" stroke-width="2" stroke-linecap="round" stroke-linejoin="round" mask="url(#mask-2)" points="9.68415775 87.5767211 9.68415775 107.555313 9.68415775 83.1385239"></polyline>
                <path d="M9.68415775,78.6980282 L9.68415775,72.0378592" id="Stroke" stroke="#01B784" stroke-width="2" stroke-linecap="round" stroke-linejoin="round" mask="url(#mask-2)"></path>
                <polygon id="Fill" fill="#FFFFFF" mask="url(#mask-2)" points="111.210839 60.2968451 122.625262 71.7112676 74.1115718 120.226873 62.6971493 108.810535"></polygon>
                <polygon id="Stroke" stroke="#01B784" stroke-width="4" stroke-linecap="round" stroke-linejoin="round" mask="url(#mask-2)" points="111.210839 60.2968451 122.625262 71.7112676 74.1115718 120.226873 62.6971493 108.810535"></polygon>
                <g id="Group" mask="url(#mask-2)">
                    <g transform="translate(68.957746, 79.535211)">
                        <path d="M33.6923718,0.737735211 L0.159752113,34.2703549" id="Fill" stroke="none" fill="#FFFFFF" fill-rule="evenodd"></path>
                        <path d="M33.6923718,0.737735211 L0.159752113,34.2703549" id="Stroke" stroke="#01B784" stroke-width="2" fill="none" stroke-linecap="round" stroke-linejoin="round"></path>
                    </g>
                </g>
                <g id="Group" mask="url(#mask-2)">
                    <g transform="translate(105.352113, 70.873239)">
                        <path d="M0.865228169,5.83248451 L6.57148169,0.126230986" id="Fill" stroke="none" fill="#FFFFFF" fill-rule="evenodd"></path>
                        <path d="M0.865228169,5.83248451 L6.57148169,0.126230986" id="Stroke" stroke="#01B784" stroke-width="2" fill="none" stroke-linecap="round" stroke-linejoin="round"></path>
                    </g>
                </g>
                <g id="Group" mask="url(#mask-2)">
                    <g transform="translate(111.098592, 50.802817)">
                        <path d="M12.2411493,20.1956958 L17.9474028,14.4875268 C21.1003042,11.3365408 21.1003042,6.22600563 17.9474028,3.07310423 C14.7964169,-0.0797971831 9.68588169,-0.0797971831 6.53489577,3.07310423 L0.826726761,8.78127324" id="Fill" stroke="none" fill="#FFFFFF" fill-rule="evenodd"></path>
                        <path d="M12.2411493,20.1956958 L17.9474028,14.4875268 C21.1003042,11.3365408 21.1003042,6.22600563 17.9474028,3.07310423 C14.7964169,-0.0797971831 9.68588169,-0.0797971831 6.53489577,3.07310423 L0.826726761,8.78127324" id="Stroke" stroke="#01B784" stroke-width="4" fill="none" stroke-linecap="round" stroke-linejoin="round"></path>
                    </g>
                </g>
                <g id="Group" mask="url(#mask-2)">
                    <g transform="translate(115.929577, 56.549296)">
                        <path d="M0.27571831,0.180326761 L10.9775775,10.8821859" id="Fill" stroke="none" fill="#FFFFFF" fill-rule="evenodd"></path>
                        <path d="M0.27571831,0.180326761 L10.9775775,10.8821859" id="Stroke" stroke="#01B784" stroke-width="4" fill="none" stroke-linecap="round" stroke-linejoin="round"></path>
                    </g>
                </g>
                <g id="Group" mask="url(#mask-2)">
                    <g transform="translate(57.464789, 108.267606)">
                        <path d="M5.23197746,0.543312676 L0.950850704,16.238862" id="Fill" stroke="none" fill="#FFFFFF" fill-rule="evenodd"></path>
                        <path d="M5.23197746,0.543312676 L0.950850704,16.238862" id="Stroke" stroke="#01B784" stroke-width="4" fill="none" stroke-linecap="round" stroke-linejoin="round"></path>
                    </g>
                </g>
                <g id="Group" mask="url(#mask-2)">
                    <g transform="translate(57.464789, 119.760563)">
                        <path d="M16.6473577,0.465543662 L0.951808451,4.74667042" id="Fill" stroke="none" fill="#FFFFFF" fill-rule="evenodd"></path>
                        <path d="M16.6473577,0.465543662 L0.951808451,4.74667042" id="Stroke" stroke="#01B784" stroke-width="4" fill="none" stroke-linecap="round" stroke-linejoin="round"></path>
                    </g>
                </g>
            </g>
        </g>
    </g>
</svg>