<?xml version="1.0" encoding="UTF-8"?>
<svg width="98px" height="159px" viewBox="0 0 98 159" version="1.1" xmlns="http://www.w3.org/2000/svg" xmlns:xlink="http://www.w3.org/1999/xlink">
    <!-- Generator: Sketch 43.1 (39012) - http://www.bohemiancoding.com/sketch -->
    <title>icn-design</title>
    <desc>Created with Sketch.</desc>
    <defs>
        <polygon id="path-1" points="0 159 97.724 159 97.724 0 0 0"></polygon>
    </defs>
    <g id="Icons" stroke="none" stroke-width="1" fill="none" fill-rule="evenodd">
        <g id="Version-2" transform="translate(-553.000000, -373.000000)">
            <g id="icn-design" transform="translate(553.000000, 373.000000)">
                <path d="M80.5136,85.2548 C80.5136,101.4848 70.6656,123.0608 56.6176,132.8888 L56.6176,144.8228 C56.6176,149.1908 53.0776,152.7328 48.7076,152.7328 L33.8056,152.7328 C29.4376,152.7328 25.8956,149.1908 25.8956,144.8228 L25.8956,132.8768 C24.1976,131.6888 22.5576,130.3408 20.9936,128.8408 C19.6536,127.5568 18.3676,126.1688 17.1396,124.6968 C12.9096,119.6268 9.3736,113.5548 6.7856,107.2508 C3.7336,99.8188 1.9996,92.0648 1.9996,85.2548 C1.9996,71.1188 9.4716,58.7288 20.6796,51.8168 C26.6636,48.1268 33.7116,45.9988 41.2576,45.9988 C62.9376,45.9988 80.5136,63.5748 80.5136,85.2548 Z" id="Fill-1" fill="#FFFFFF"></path>
                <path d="M80.5136,85.2548 C80.5136,63.5748 62.9376,45.9988 41.2576,45.9988 C33.7116,45.9988 26.6636,48.1268 20.6796,51.8168 C9.4716,58.7288 1.9996,71.1188 1.9996,85.2548 C1.9996,92.0648 3.7336,99.8188 6.7856,107.2508 C9.3736,113.5548 12.9096,119.6268 17.1396,124.6968 C18.3676,126.1688 19.6536,127.5568 20.9936,128.8408 C22.5576,130.3408 24.1976,131.6888 25.8956,132.8768 L25.8956,144.8228 C25.8956,149.1908 29.4376,152.7328 33.8056,152.7328 L48.7076,152.7328 C53.0776,152.7328 56.6176,149.1908 56.6176,144.8228 L56.6176,132.8888 C70.6656,123.0608 80.5136,101.4848 80.5136,85.2548 Z" id="Stroke-3" stroke="#01B784" stroke-width="4" stroke-linecap="round" stroke-linejoin="round"></path>
                <path d="M32.6152,55.7656 C35.4032,54.9516 38.3112,54.5316 41.2572,54.5316" id="Stroke-5" stroke="#01B784" stroke-width="2" stroke-linecap="round" stroke-linejoin="round"></path>
                <path d="M15.835,106.6524 C15.431,105.7824 15.045,104.9024 14.679,104.0084 C12.007,97.4964 10.535,90.8364 10.535,85.2544 C10.535,74.5124 16.001,64.7284 25.159,59.0804 C25.713,58.7384 26.279,58.4144 26.853,58.1104" id="Stroke-7" stroke="#01B784" stroke-width="2" stroke-linecap="round" stroke-linejoin="round"></path>
                <path d="M34.4296,132.6778 L34.4296,128.4338 L30.7896,125.8858 C29.4436,124.9438 28.1356,123.8658 26.8996,122.6798 C25.8136,121.6398 24.7336,120.4778 23.6896,119.2278 C22.1236,117.3498 20.6416,115.2778 19.2756,113.0618" id="Stroke-9" stroke="#01B784" stroke-width="2" stroke-linecap="round" stroke-linejoin="round"></path>
                <g id="Group-14" transform="translate(6.000000, 105.000000)">
                    <path d="M68.955,1.6484 L0.681,1.6484" id="Fill-11" fill="#FFFFFF"></path>
                    <path d="M68.955,1.6484 L0.681,1.6484" id="Stroke-13" stroke="#01B784" stroke-width="4" stroke-linecap="round" stroke-linejoin="round"></path>
                </g>
                <g id="Group-18" transform="translate(36.000000, 153.000000)">
                    <polyline id="Fill-15" fill="#FFFFFF" points="0.1368 0.586 0.1368 4 10.3788 4 10.3788 0.586"></polyline>
                    <polyline id="Stroke-17" stroke="#01B784" stroke-width="4" stroke-linecap="round" stroke-linejoin="round" points="0.1368 0.586 0.1368 4 10.3788 4 10.3788 0.586"></polyline>
                </g>
                <path d="M25.8956,136.5186 L56.6176,136.5186" id="Stroke-19" stroke="#01B784" stroke-width="2" stroke-linecap="round" stroke-linejoin="round"></path>
                <path d="M26.3106,141.6386 L57.0326,141.6386" id="Stroke-21" stroke="#01B784" stroke-width="2" stroke-linecap="round" stroke-linejoin="round"></path>
                <path d="M26.3106,146.7588 L57.0326,146.7588" id="Stroke-23" stroke="#01B784" stroke-width="2" stroke-linecap="round" stroke-linejoin="round"></path>
                <path d="M34.418,139.9316 L34.418,151.8796" id="Stroke-25" stroke="#01B784" stroke-width="2" stroke-linecap="round" stroke-linejoin="round"></path>
                <mask id="mask-2" fill="white">
                    <use xlink:href="#path-1"></use>
                </mask>
                <g id="Clip-28"></g>
                <polygon id="Fill-27" fill="#FFFFFF" mask="url(#mask-2)" points="70.672 135.08 95.722 135.08 95.722 28.616 70.672 28.616"></polygon>
                <polygon id="Stroke-29" stroke="#01B784" stroke-width="4" stroke-linecap="round" stroke-linejoin="round" mask="url(#mask-2)" points="70.672 135.08 95.722 135.08 95.722 28.616 70.672 28.616"></polygon>
                <g id="Group-32" mask="url(#mask-2)">
                    <g transform="translate(78.000000, 59.000000)">
                        <path d="M1.1982,0.9296 L1.1982,74.5156" id="Fill-30" stroke="none" fill="#FFFFFF" fill-rule="evenodd"></path>
                        <path d="M1.1982,0.9296 L1.1982,74.5156" id="Stroke-31" stroke="#01B784" stroke-width="2" fill="none" stroke-linecap="round" stroke-linejoin="round"></path>
                    </g>
                </g>
                <g id="Group-35" mask="url(#mask-2)">
                    <g transform="translate(86.000000, 81.000000)">
                        <path d="M1.1982,1 L1.1982,52.516" id="Fill-33" stroke="none" fill="#FFFFFF" fill-rule="evenodd"></path>
                        <path d="M1.1982,1 L1.1982,52.516" id="Stroke-34" stroke="#01B784" stroke-width="2" fill="none" stroke-linecap="round" stroke-linejoin="round"></path>
                    </g>
                </g>
                <g id="Group-38" mask="url(#mask-2)">
                    <g transform="translate(78.000000, 41.000000)">
                        <path d="M1.1982,13.1006 L1.1982,0.5766" id="Fill-36" stroke="none" fill="#FFFFFF" fill-rule="evenodd"></path>
                        <path d="M1.1982,13.1006 L1.1982,0.5766" id="Stroke-37" stroke="#01B784" stroke-width="2" fill="none" stroke-linecap="round" stroke-linejoin="round"></path>
                    </g>
                </g>
                <g id="Group-41" mask="url(#mask-2)">
                    <g transform="translate(70.000000, 1.000000)">
                        <path d="M25.7236,26.0508 L25.7236,13.5248 C25.7236,6.6068 20.1156,1.0008 13.1976,1.0008 C6.2816,1.0008 0.6736,6.6068 0.6736,13.5248 L0.6736,26.0508" id="Fill-39" stroke="none" fill="#FFFFFF" fill-rule="evenodd"></path>
                        <path d="M25.7236,26.0508 L25.7236,13.5248 C25.7236,6.6068 20.1156,1.0008 13.1976,1.0008 C6.2816,1.0008 0.6736,6.6068 0.6736,13.5248 L0.6736,26.0508" id="Stroke-40" stroke="#01B784" stroke-width="4" fill="none" stroke-linecap="round" stroke-linejoin="round"></path>
                    </g>
                </g>
                <g id="Group-44" mask="url(#mask-2)">
                    <g transform="translate(72.000000, 19.000000)">
                        <path d="M0.2392,0.2226 L23.7232,0.2226" id="Fill-42" stroke="none" fill="#FFFFFF" fill-rule="evenodd"></path>
                        <path d="M0.2392,0.2226 L23.7232,0.2226" id="Stroke-43" stroke="#01B784" stroke-width="4" fill="none" stroke-linecap="round" stroke-linejoin="round"></path>
                    </g>
                </g>
                <g id="Group-47" mask="url(#mask-2)">
                    <g transform="translate(70.000000, 135.000000)">
                        <path d="M0.6728,0.081 L13.1988,21.999" id="Fill-45" stroke="none" fill="#FFFFFF" fill-rule="evenodd"></path>
                        <path d="M0.6728,0.081 L13.1988,21.999" id="Stroke-46" stroke="#01B784" stroke-width="4" fill="none" stroke-linecap="round" stroke-linejoin="round"></path>
                    </g>
                </g>
                <g id="Group-50" mask="url(#mask-2)">
                    <g transform="translate(82.000000, 135.000000)">
                        <path d="M13.7236,0.081 L1.1976,21.999" id="Fill-48" stroke="none" fill="#FFFFFF" fill-rule="evenodd"></path>
                        <path d="M13.7236,0.081 L1.1976,21.999" id="Stroke-49" stroke="#01B784" stroke-width="4" fill="none" stroke-linecap="round" stroke-linejoin="round"></path>
                    </g>
                </g>
                <g id="Group-53" mask="url(#mask-2)">
                    <g transform="translate(78.000000, 25.000000)">
                        <path d="M1,2 L1,0" id="Fill-51" stroke="none" fill="#FFFFFF" fill-rule="evenodd"></path>
                        <path d="M1,2 L1,0" id="Stroke-52" stroke="#01B784" stroke-width="2" fill="none" stroke-linecap="round" stroke-linejoin="round"></path>
                    </g>
                </g>
                <g id="Group-56" mask="url(#mask-2)">
                    <g transform="translate(76.000000, 147.000000)">
                        <path d="M1,0 L13.46,0" id="Fill-54" stroke="none" fill="#FFFFFF" fill-rule="evenodd"></path>
                        <path d="M1,0 L13.46,0" id="Stroke-55" stroke="#01B784" stroke-width="2" fill="none" stroke-linecap="round" stroke-linejoin="round"></path>
                    </g>
                </g>
            </g>
        </g>
    </g>
</svg>