<?xml version="1.0" encoding="UTF-8"?>
<svg width="143px" height="147px" viewBox="0 0 143 147" version="1.1" xmlns="http://www.w3.org/2000/svg" xmlns:xlink="http://www.w3.org/1999/xlink">
    <!-- Generator: Sketch 43.1 (39012) - http://www.bohemiancoding.com/sketch -->
    <title>icn-fullbuild</title>
    <desc>Created with Sketch.</desc>
    <defs></defs>
    <g id="Icons" stroke="none" stroke-width="1" fill="none" fill-rule="evenodd">
        <g id="Version-2" transform="translate(-900.000000, -644.000000)">
            <g id="icn-fullbuild" transform="translate(902.000000, 644.000000)">
                <path d="M14.629,17.9446 L63.501,17.9446 L63.501,81.4446 L0.001,81.4446 L0.001,32.5726 C0.001,24.4946 6.549,17.9446 14.629,17.9446" id="Fill-1" fill="#FFFFFF"></path>
                <path d="M14.629,17.9446 L63.501,17.9446 L63.501,81.4446 L0.001,81.4446 L0.001,32.5726 C0.001,24.4946 6.549,17.9446 14.629,17.9446 Z" id="Stroke-3" stroke="#01B784" stroke-width="4" stroke-linecap="round" stroke-linejoin="round"></path>
                <path d="M7,61.2786 L7,45.2786" id="Stroke-5" stroke="#01B784" stroke-width="2" stroke-linecap="round" stroke-linejoin="round"></path>
                <path d="M31,24.9446 L35.88,24.9446" id="Stroke-7" stroke="#01B784" stroke-width="2" stroke-linecap="round" stroke-linejoin="round"></path>
                <path d="M7,40.2796 L7,34.5796 C7,29.2596 11.314,24.9456 16.636,24.9456 L25.666,24.9456" id="Stroke-9" stroke="#01B784" stroke-width="2" stroke-linecap="round" stroke-linejoin="round"></path>
                <path d="M0,81.4446 L63.5,81.4446 L63.5,144.9446 L14.628,144.9446 C6.55,144.9446 0,138.3946 0,130.3166 L0,81.4446 Z" id="Fill-11" fill="#FFFFFF"></path>
                <path d="M0,81.4446 L63.5,81.4446 L63.5,144.9446 L14.628,144.9446 C6.55,144.9446 0,138.3946 0,130.3166 L0,81.4446 Z" id="Stroke-13" stroke="#01B784" stroke-width="4" stroke-linecap="round" stroke-linejoin="round"></path>
                <g id="Group-18" transform="translate(16.000000, 66.944600)">
                    <path d="M1.8448,17.458 C1.7768,16.9 1.7428,16.01 1.7428,15.434 C1.7428,7.698 8.0128,1.426 15.7508,1.426 C23.4868,1.426 29.7588,7.698 29.7588,15.434 C29.7588,16.122 29.7088,16.796 29.6128,17.458" id="Fill-15" fill="#FFFFFF"></path>
                    <path d="M1.8448,17.458 C1.7768,16.9 1.7428,16.01 1.7428,15.434 C1.7428,7.698 8.0128,1.426 15.7508,1.426 C23.4868,1.426 29.7588,7.698 29.7588,15.434 C29.7588,16.122 29.7088,16.796 29.6128,17.458" id="Stroke-17" stroke="#01B784" stroke-width="4" stroke-linecap="round" stroke-linejoin="round"></path>
                </g>
                <path d="M63.5,17.9446 L112.372,17.9446 C120.45,17.9446 127,24.4946 127,32.5726 L127,81.4446 L63.5,81.4446 L63.5,17.9446 Z" id="Fill-19" fill="#FFFFFF"></path>
                <path d="M63.5,17.9446 L112.372,17.9446 C120.45,17.9446 127,24.4946 127,32.5726 L127,81.4446 L63.5,81.4446 L63.5,17.9446 Z" id="Stroke-21" stroke="#01B784" stroke-width="4" stroke-linecap="round" stroke-linejoin="round"></path>
                <path d="M63.5,81.4446 L127,81.4446 L127,130.3166 C127,138.3946 120.45,144.9446 112.372,144.9446 L63.5,144.9446 L63.5,81.4446 Z" id="Fill-23" fill="#FFFFFF"></path>
                <path d="M63.5,81.4446 L127,81.4446 L127,130.3166 C127,138.3946 120.45,144.9446 112.372,144.9446 L63.5,144.9446 L63.5,81.4446 Z" id="Stroke-25" stroke="#01B784" stroke-width="4" stroke-linecap="round" stroke-linejoin="round"></path>
                <g id="Group-30" transform="translate(60.000000, 34.944600)">
                    <path d="M1.087,0.8448 C1.645,0.7768 2.537,0.7428 3.111,0.7428 C10.847,0.7428 17.119,7.0128 17.119,14.7508 C17.119,22.4868 10.847,28.7588 3.111,28.7588 C2.423,28.7588 1.749,28.7088 1.087,28.6128" id="Fill-27" fill="#FFFFFF"></path>
                    <path d="M1.087,0.8448 C1.645,0.7768 2.537,0.7428 3.111,0.7428 C10.847,0.7428 17.119,7.0128 17.119,14.7508 C17.119,22.4868 10.847,28.7588 3.111,28.7588 C2.423,28.7588 1.749,28.7088 1.087,28.6128" id="Stroke-29" stroke="#01B784" stroke-width="4" stroke-linecap="round" stroke-linejoin="round"></path>
                </g>
                <g id="Group-34" transform="translate(48.000000, 98.944600)">
                    <path d="M17.913,28.1552 C17.355,28.2232 16.463,28.2572 15.889,28.2572 C8.153,28.2572 1.881,21.9872 1.881,14.2492 C1.881,6.5132 8.153,0.2412 15.889,0.2412 C16.577,0.2412 17.251,0.2912 17.913,0.3872" id="Fill-31" fill="#FFFFFF"></path>
                    <path d="M17.913,28.1552 C17.355,28.2232 16.463,28.2572 15.889,28.2572 C8.153,28.2572 1.881,21.9872 1.881,14.2492 C1.881,6.5132 8.153,0.2412 15.889,0.2412 C16.577,0.2412 17.251,0.2912 17.913,0.3872" id="Stroke-33" stroke="#01B784" stroke-width="4" stroke-linecap="round" stroke-linejoin="round"></path>
                </g>
                <g id="Group-38" transform="translate(80.000000, 76.944600)">
                    <path d="M1.3448,1.1534 C1.2768,1.7114 1.2428,2.6014 1.2428,3.1774 C1.2428,10.9134 7.5128,17.1854 15.2508,17.1854 C22.9868,17.1854 29.2588,10.9134 29.2588,3.1774 C29.2588,2.4894 29.2088,1.8154 29.1128,1.1534" id="Fill-35" fill="#FFFFFF"></path>
                    <path d="M1.3448,1.1534 C1.2768,1.7114 1.2428,2.6014 1.2428,3.1774 C1.2428,10.9134 7.5128,17.1854 15.2508,17.1854 C22.9868,17.1854 29.2588,10.9134 29.2588,3.1774 C29.2588,2.4894 29.2088,1.8154 29.1128,1.1534" id="Stroke-37" stroke="#01B784" stroke-width="4" stroke-linecap="round" stroke-linejoin="round"></path>
                </g>
                <path d="M7,97.9446 L7,89.9446" id="Stroke-39" stroke="#01B784" stroke-width="2" stroke-linecap="round" stroke-linejoin="round"></path>
                <path d="M7,109.9446 L7,103.9446" id="Stroke-41" stroke="#01B784" stroke-width="2" stroke-linecap="round" stroke-linejoin="round"></path>
                <path d="M94.8408,137.2786 L87.9588,137.2786" id="Stroke-43" stroke="#01B784" stroke-width="2" stroke-linecap="round" stroke-linejoin="round"></path>
                <path d="M118.8408,121.9446 L118.8408,127.6426 C118.8408,132.9646 114.5268,137.2786 109.2048,137.2786 L100.1748,137.2786" id="Stroke-45" stroke="#01B784" stroke-width="2" stroke-linecap="round" stroke-linejoin="round"></path>
                <path d="M132,7.9446 L132,23.9446" id="Stroke-47" stroke="#01B784" stroke-linecap="round" stroke-linejoin="round"></path>
                <path d="M140,15.9446 L124,15.9446" id="Stroke-49" stroke="#01B784" stroke-linecap="round" stroke-linejoin="round"></path>
                <path d="M111.8574,56.5002 L111.8574,66.2142" id="Stroke-51" stroke="#01B784" stroke-linecap="round" stroke-linejoin="round"></path>
                <path d="M116.7138,61.3568 L106.9998,61.3568" id="Stroke-53" stroke="#01B784" stroke-linecap="round" stroke-linejoin="round"></path>
                <path d="M79.2226,0.5002 L79.2226,12.9442" id="Stroke-55" stroke="#01B784" stroke-linecap="round" stroke-linejoin="round"></path>
                <path d="M85.4444,6.722 L73.0004,6.722" id="Stroke-57" stroke="#01B784" stroke-linecap="round" stroke-linejoin="round"></path>
            </g>
        </g>
    </g>
</svg>