<?xml version="1.0" encoding="UTF-8"?>
<svg width="96px" height="102px" viewBox="0 0 96 102" version="1.1" xmlns="http://www.w3.org/2000/svg" xmlns:xlink="http://www.w3.org/1999/xlink">
    <!-- Generator: Sketch 43 (38999) - http://www.bohemiancoding.com/sketch -->
    <title>icn-discovery</title>
    <desc>Created with Sketch.</desc>
    <defs></defs>
    <g id="Page-1" stroke="none" stroke-width="1" fill="none" fill-rule="evenodd">
        <g id="Home-1" transform="translate(-166.000000, -1002.000000)" fill-rule="nonzero" fill="#01B784">
            <g id="Group-4" transform="translate(128.000000, 883.000000)">
                <g id="icn-discovery" transform="translate(38.000000, 119.000000)">
                    <path d="M34.839172,72.7643312 C34.1222936,72.7643312 33.5398089,73.3468159 33.5398089,74.0636943 L33.5398089,97.4522293 C33.5398089,98.1691077 34.1222936,98.7515924 34.839172,98.7515924 C35.5560504,98.7515924 36.138535,98.1691077 36.138535,97.4522293 L36.138535,74.0636943 C36.138535,73.3468159 35.5560504,72.7643312 34.839172,72.7643312 Z M34.839172,70.1656051 C36.9912872,70.1656051 38.7372611,71.9115791 38.7372611,74.0636943 L38.7372611,97.4522293 C38.7372611,99.6043445 36.9912872,101.350318 34.839172,101.350318 C32.6870568,101.350318 30.9410828,99.6043445 30.9410828,97.4522293 L30.9410828,74.0636943 C30.9410828,71.9115791 32.6870568,70.1656051 34.839172,70.1656051 Z" id="Stroke"></path>
                    <path d="M49.6134876,20.5755076 C49.9246986,21.2221325 50.7011781,21.4940393 51.3478031,21.1828283 C51.9944281,20.8716173 52.2663349,20.0951378 51.9551239,19.4485128 C47.9455885,11.117619 42.2492204,4.42290421 35.531355,0.199825566 C35.1087043,-0.065867089 34.571204,-0.0659192335 34.1485017,0.199691412 C27.5443438,4.34950217 21.9271576,10.9005903 17.9237205,19.0602572 C17.6076264,19.7045092 17.873651,20.4830236 18.5179031,20.7991177 C19.1621551,21.1152118 19.9406695,20.8491872 20.2567636,20.2049352 C23.9137115,12.7514705 28.9599707,6.7465919 34.839719,2.84655981 C40.8265158,6.81830707 45.9479002,12.9592586 49.6134876,20.5755076 Z" id="Stroke"></path>
                    <path d="M38.3835214,93.9660704 C50.5774203,84.6020893 58.2273172,67.224288 58.2273172,48.0763032 C58.2273172,37.7797183 56.0291799,27.9156368 51.9554711,19.4480447 C51.6443604,18.8013715 50.8679231,18.5293443 50.2212498,18.840455 C49.5745766,19.1515657 49.3025494,19.928003 49.6136601,20.5746763 C53.5163184,28.6867236 55.6285911,38.16549 55.6285911,48.0763032 C55.6285911,66.4542544 48.3184594,83.060232 36.8007435,91.9049563 C36.2315826,92.3420284 36.1245034,93.1577414 36.5615754,93.7269023 C36.9986475,94.2960633 37.8143605,94.4031425 38.3835214,93.9660704 Z" id="Stroke"></path>
                    <path d="M17.9236825,19.0594201 C13.7227714,27.6180946 11.4511567,37.6229961 11.4511567,48.0763032 C11.4511567,67.3110246 19.1711283,84.7565174 31.4536633,94.0871268 C32.0250962,94.5212243 32.8402396,94.4098919 33.274337,93.838459 C33.7084345,93.2670261 33.5971021,92.4518827 33.0256692,92.0177853 C21.4264363,83.2062562 14.0498828,66.5368155 14.0498828,48.0763032 C14.0498828,38.0157321 16.2324996,28.4028053 20.2565417,20.2044729 C20.5727392,19.5602716 20.3068397,18.7817145 19.6626385,18.4655169 C19.0184372,18.1493194 18.2398801,18.4152189 17.9236825,19.0594201 Z" id="Stroke"></path>
                    <path d="M49.9398566,19.0244627 C46.2502565,22.1794293 40.9196985,24.0387363 35.1646624,24.0387363 C29.1742752,24.0387363 23.6449306,22.0331451 19.9665643,18.6732195 C19.4367152,18.1892401 18.6148448,18.2264248 18.1308653,18.7562739 C17.6468859,19.286123 17.6840707,20.1079934 18.2139198,20.5919729 C22.3871474,24.4039191 28.5449481,26.6374624 35.1646624,26.6374624 C41.5231559,26.6374624 47.4551931,24.5683585 51.6287548,20.9995577 C52.1741623,20.5331814 52.2382296,19.7129685 51.7718532,19.1675611 C51.3054769,18.6221537 50.4852641,18.5580863 49.9398566,19.0244627 Z" id="Stroke"></path>
                    <path d="M26.5183975,79.7000286 C27.9790072,82.2781165 29.6150356,84.6704034 31.4039419,86.8442476 C31.6319394,87.1213057 32.0413679,87.1610772 32.318426,86.9330797 C32.5954841,86.7050822 32.6352555,86.2956538 32.4072581,86.0185957 C30.6666421,83.9034331 29.0730156,81.5731484 27.6489299,79.0595281 C27.4720606,78.7473402 27.0756013,78.6376428 26.7634134,78.8145122 C26.4512255,78.9913815 26.3415282,79.3878407 26.5183975,79.7000286 Z" id="Stroke"></path>
                    <path d="M20.5477625,64.4733697 C21.8971323,69.969742 23.9175193,75.110766 26.5177697,79.6996773 C26.6946603,80.0118532 27.091127,80.1215235 27.4033028,79.9446329 C27.7154786,79.7677423 27.825149,79.3712756 27.6482584,79.0590997 C25.1075888,74.5753365 23.1309765,69.5457004 21.8096541,64.163573 C21.724106,63.8151112 21.3722716,63.6019775 21.0238099,63.6875256 C20.6753482,63.7730736 20.4622145,64.124908 20.5477625,64.4733697 Z" id="Stroke"></path>
                    <path d="M18.9998716,55.6271766 C19.1632694,57.1509255 19.378453,58.6696755 19.6439453,60.1816545 C19.7060002,60.5350569 20.0427948,60.7712407 20.3961972,60.7091859 C20.7495996,60.647131 20.9857834,60.3103364 20.9237285,59.956934 C20.6632236,58.4733584 20.4521115,56.9833444 20.2918277,55.4886349 C20.2535705,55.1318711 19.9333427,54.8736705 19.5765788,54.9119277 C19.219815,54.9501849 18.9616144,55.2704127 18.9998716,55.6271766 Z" id="Stroke"></path>
                    <path d="M21.6201012,27.8565721 C20.638314,30.9953762 19.8868993,34.2579766 19.3785102,37.6099642 C19.3247057,37.9647164 19.5686719,38.2959171 19.9234241,38.3497216 C20.2781763,38.4035262 20.609377,38.1595599 20.6631815,37.8048077 C21.1616834,34.5180101 21.8982332,31.3199524 22.8602147,28.2444674 C22.9673291,27.9020195 22.7765535,27.5375773 22.4341056,27.430463 C22.0916578,27.3233486 21.7272155,27.5141242 21.6201012,27.8565721 Z" id="Stroke"></path>
                    <path d="M30.6546175,10.2548371 C28.5252049,12.9851235 26.6283157,16.0368135 25.0042391,19.3454098 C24.5450014,20.2795406 24.1057722,21.2411142 23.6861272,22.2299938 C23.5459602,22.5602926 23.7000925,22.9416804 24.0303913,23.0818473 C24.36069,23.2220143 24.7420779,23.067882 24.8822448,22.7375832 C25.2925907,21.7706168 25.7218191,20.8309372 26.1704811,19.9183179 C27.7559646,16.6883446 29.6056155,13.7126508 31.6792067,11.0539375 C31.8998722,10.771005 31.8493948,10.3627582 31.5664623,10.1420927 C31.2835298,9.92142721 30.875283,9.97190458 30.6546175,10.2548371 Z" id="Stroke"></path>
                    <path d="M40.0366242,39.6305732 C40.0366242,36.7606502 37.709095,34.433121 34.839172,34.433121 C31.969249,34.433121 29.6417197,36.7606502 29.6417197,39.6305732 C29.6417197,42.5004962 31.969249,44.8280255 34.839172,44.8280255 C37.709095,44.8280255 40.0366242,42.5004962 40.0366242,39.6305732 Z M42.6353503,39.6305732 C42.6353503,43.9357331 39.1443318,47.4267516 34.839172,47.4267516 C30.5340122,47.4267516 27.0429936,43.9357331 27.0429936,39.6305732 C27.0429936,35.3254134 30.5340122,31.8343949 34.839172,31.8343949 C39.1443318,31.8343949 42.6353503,35.3254134 42.6353503,39.6305732 Z" id="Stroke"></path>
                    <path d="M40.0366242,57.8216561 C40.0366242,54.9517331 37.709095,52.6242038 34.839172,52.6242038 C31.969249,52.6242038 29.6417197,54.9517331 29.6417197,57.8216561 C29.6417197,60.6915791 31.969249,63.0191083 34.839172,63.0191083 C37.709095,63.0191083 40.0366242,60.6915791 40.0366242,57.8216561 Z M42.6353503,57.8216561 C42.6353503,62.1268159 39.1443318,65.6178344 34.839172,65.6178344 C30.5340122,65.6178344 27.0429936,62.1268159 27.0429936,57.8216561 C27.0429936,53.5164962 30.5340122,50.0254777 34.839172,50.0254777 C39.1443318,50.0254777 42.6353503,53.5164962 42.6353503,57.8216561 Z" id="Stroke"></path>
                    <path d="M10.7234069,83.5367504 C12.7295904,79.5650243 15.4515699,75.9900115 18.1501768,73.1582794 C18.6452514,72.6387822 18.625453,71.8163093 18.1059558,71.3212347 C17.5864586,70.8261601 16.7639857,70.8459585 16.2689111,71.3654557 C13.4093187,74.3661149 10.5419779,78.1320433 8.40380205,82.3650802 C5.20809142,88.6917633 4.31317236,94.8664933 6.57037174,100.532245 C6.97839306,101.556411 8.3961844,101.639089 8.92048397,100.669292 C8.97479579,100.568831 9.08561649,100.370727 9.24923261,100.089051 C9.52510014,99.614128 9.84644838,99.0835269 10.2094957,98.5113669 C11.2469755,96.8763059 12.4070668,95.2415337 13.6574137,93.720997 C17.2703219,89.3273687 20.8608513,86.8231719 23.9767182,87.0541589 C24.6923728,87.1072122 25.3155337,86.5700676 25.3685869,85.854413 C25.4216402,85.1387584 24.8844957,84.5155976 24.168841,84.4625443 C19.9528619,84.1500033 15.756552,87.0766986 11.6501742,92.0704314 C10.3966442,93.594839 9.23615461,95.2172977 8.19038989,96.844727 C7.40285714,92.7020146 8.36128515,88.2131423 10.7234069,83.5367504 Z" id="Stroke"></path>
                    <path d="M58.0281698,92.0704314 C53.921792,87.0766986 49.725482,84.1500033 45.5095029,84.4625443 C44.7938483,84.5155976 44.2567038,85.1387584 44.309757,85.854413 C44.3628103,86.5700676 44.9859711,87.1072122 45.7016258,87.0541589 C48.8174926,86.8231719 52.4080221,89.3273687 56.0209303,93.720997 C57.2712771,95.2415337 58.4313685,96.8763059 59.4688483,98.5113669 C59.8318956,99.0835269 60.1532438,99.614128 60.4291113,100.089051 C60.5927275,100.370727 60.7035482,100.568831 60.75786,100.669292 C61.2821595,101.639089 62.6999509,101.556411 63.1079722,100.532245 C65.3651716,94.8664933 64.4702525,88.6917633 61.2745419,82.3650802 C59.136366,78.1320433 56.2690252,74.3661149 53.4094328,71.3654557 C52.9143582,70.8459585 52.0918853,70.8261601 51.5723881,71.3212347 C51.052891,71.8163093 51.0330926,72.6387822 51.5281672,73.1582794 C54.2267741,75.9900115 56.9487536,79.5650243 58.9549371,83.5367504 C61.3170588,88.2131423 62.2754868,92.7020146 61.4879541,96.844727 C60.4421893,95.2172977 59.2816997,93.594839 58.0281698,92.0704314 Z" id="Stroke"></path>
                    <path d="M1.29936306,101.350318 L77.9617834,101.350318 C78.6794018,101.350318 79.2611465,100.768574 79.2611465,100.050955 C79.2611465,99.333337 78.6794018,98.7515924 77.9617834,98.7515924 L1.29936306,98.7515924 C0.581744656,98.7515924 0,99.333337 0,100.050955 C0,100.768574 0.581744656,101.350318 1.29936306,101.350318 Z" id="Stroke"></path>
                    <path d="M71.6813121,100.050955 L71.6813121,67.831949 C71.6813121,67.1143306 71.0995674,66.532586 70.381949,66.532586 C69.6643306,66.532586 69.082586,67.1143306 69.082586,67.831949 L69.082586,100.050955 C69.082586,100.768574 69.6643306,101.350318 70.381949,101.350318 C71.0995674,101.350318 71.6813121,100.768574 71.6813121,100.050955 Z" id="Stroke"></path>
                    <path d="M91.3749883,75.3235611 C88.9718881,77.4346469 85.5665884,78.5074097 81.0766854,78.8579992 C77.346352,79.1491142 73.9217087,78.9315632 70.8004349,78.1343446 C70.1051376,77.9567556 69.3975234,78.3764411 69.2199344,79.0717384 C69.0423454,79.7670357 69.4620309,80.4746498 70.1573282,80.6522388 C73.5760623,81.525433 77.2813673,81.7608131 81.2789318,81.4488434 C86.276996,81.0585746 90.1860203,79.8271248 93.0903792,77.2756911 C94.0459289,76.4357904 94.8760654,75.455251 95.5448605,74.376223 C96.122588,73.4441228 95.3570687,72.2596573 94.2699293,72.4035593 C92.2109896,72.6760963 89.958615,72.1998734 87.3050416,71.0673203 C86.4994844,70.7228868 85.8544295,70.4179549 84.4112387,69.7134234 C82.2994064,68.682485 81.3334699,68.2407494 80.0836999,67.7784335 C77.0945691,66.6745007 73.8895674,66.1641613 70.7050957,66.2849516 C69.987993,66.312152 69.4287167,66.9155289 69.4559172,67.6326317 C69.4831176,68.3497344 70.0864945,68.9090107 70.8035973,68.8818102 C73.6479488,68.773921 76.5135849,69.2302225 79.1827376,70.2159822 C80.3240001,70.6381592 81.2366658,71.0555333 83.2424839,72.0347184 C84.7533333,72.7722793 85.4246449,73.0896233 86.2841489,73.4571225 C88.220086,74.2833865 90.0096737,74.8136047 91.7244912,75.0017726 C91.6104806,75.1116967 91.4939409,75.2190052 91.3749883,75.3235611 Z" id="Stroke"></path>
                    <path d="M39.6692577,35.4068915 L30.5633214,44.5115284 C30.3095868,44.7652267 30.3095575,45.1765823 30.5632558,45.4303168 C30.8169541,45.6840514 31.2283097,45.6840807 31.4820442,45.4303824 L40.5879805,36.3257455 C40.8417151,36.0720471 40.8417444,35.6606916 40.5880461,35.406957 C40.3343478,35.1532225 39.9229922,35.1531932 39.6692577,35.4068915 Z" id="Stroke"></path>
                    <path d="M33.9737268,37.871816 L29.4259561,42.4195867 C29.1722397,42.6733031 29.1722397,43.0846587 29.4259561,43.3383751 C29.6796725,43.5920915 30.0910281,43.5920915 30.3447445,43.3383751 L34.8925152,38.7906044 C35.1462317,38.536888 35.1462317,38.1255324 34.8925152,37.871816 C34.6387988,37.6180996 34.2274432,37.6180996 33.9737268,37.871816 Z" id="Stroke"></path>
                    <path d="M38.9764388,52.771318 L30.2811013,61.4653562 C30.0273659,61.7190536 30.0273351,62.1304092 30.2810326,62.3841446 C30.5347301,62.63788 30.9460857,62.6379107 31.199821,62.3842133 L39.8951586,53.690175 C40.148894,53.4364776 40.1489247,53.025122 39.8952273,52.7713866 C39.6415298,52.5176512 39.2301742,52.5176205 38.9764388,52.771318 Z" id="Stroke"></path>
                    <path d="M35.2730899,59.960988 L32.0246822,63.2093956 C31.7709658,63.463112 31.7709658,63.8744676 32.0246822,64.128184 C32.2783986,64.3819004 32.6897542,64.3819004 32.9434706,64.128184 L36.1918783,60.8797764 C36.4455947,60.62606 36.4455947,60.2147044 36.1918783,59.960988 C35.9381619,59.7072715 35.5268063,59.7072715 35.2730899,59.960988 Z" id="Stroke"></path>
                    <path d="M56.522293,38.9808917 L65.6178344,38.9808917 C65.9766436,38.9808917 66.2675159,38.6900194 66.2675159,38.3312102 C66.2675159,37.972401 65.9766436,37.6815287 65.6178344,37.6815287 L56.522293,37.6815287 C56.1634838,37.6815287 55.8726115,37.972401 55.8726115,38.3312102 C55.8726115,38.6900194 56.1634838,38.9808917 56.522293,38.9808917 Z" id="Stroke"></path>
                    <path d="M69.5159236,38.9808917 L72.1146497,38.9808917 C72.4734589,38.9808917 72.7643312,38.6900194 72.7643312,38.3312102 C72.7643312,37.972401 72.4734589,37.6815287 72.1146497,37.6815287 L69.5159236,37.6815287 C69.1571144,37.6815287 68.866242,37.972401 68.866242,38.3312102 C68.866242,38.6900194 69.1571144,38.9808917 69.5159236,38.9808917 Z" id="Stroke"></path>
                    <path d="M61.7197452,59.7707006 L56.522293,59.7707006 C56.1634838,59.7707006 55.8726115,60.061573 55.8726115,60.4203822 C55.8726115,60.7791914 56.1634838,61.0700637 56.522293,61.0700637 L61.7197452,61.0700637 C62.0785544,61.0700637 62.3694268,60.7791914 62.3694268,60.4203822 C62.3694268,60.061573 62.0785544,59.7707006 61.7197452,59.7707006 Z" id="Stroke"></path>
                    <path d="M13.6433121,59.7707006 L7.14649682,59.7707006 C6.78768761,59.7707006 6.49681529,60.061573 6.49681529,60.4203822 C6.49681529,60.7791914 6.78768761,61.0700637 7.14649682,61.0700637 L13.6433121,61.0700637 C14.0021213,61.0700637 14.2929936,60.7791914 14.2929936,60.4203822 C14.2929936,60.061573 14.0021213,59.7707006 13.6433121,59.7707006 Z" id="Stroke"></path>
                    <path d="M4.5477707,59.7707006 L0.649681529,59.7707006 C0.290872328,59.7707006 0,60.061573 0,60.4203822 C0,60.7791914 0.290872328,61.0700637 0.649681529,61.0700637 L4.5477707,61.0700637 C4.9065799,61.0700637 5.19745223,60.7791914 5.19745223,60.4203822 C5.19745223,60.061573 4.9065799,59.7707006 4.5477707,59.7707006 Z" id="Stroke"></path>
                    <path d="M61.7197452,50.6751592 L72.1146497,50.6751592 C72.4734589,50.6751592 72.7643312,50.3842869 72.7643312,50.0254777 C72.7643312,49.6666685 72.4734589,49.3757962 72.1146497,49.3757962 L61.7197452,49.3757962 C61.360936,49.3757962 61.0700637,49.6666685 61.0700637,50.0254777 C61.0700637,50.3842869 61.360936,50.6751592 61.7197452,50.6751592 Z" id="Stroke"></path>
                    <path d="M74.7133758,50.6751592 L77.3121019,50.6751592 C77.6709111,50.6751592 77.9617834,50.3842869 77.9617834,50.0254777 C77.9617834,49.6666685 77.6709111,49.3757962 77.3121019,49.3757962 L74.7133758,49.3757962 C74.3545666,49.3757962 74.0636943,49.6666685 74.0636943,50.0254777 C74.0636943,50.3842869 74.3545666,50.6751592 74.7133758,50.6751592 Z" id="Stroke"></path>
                    <path d="M12.343949,27.2866242 L7.14649682,27.2866242 C6.78768761,27.2866242 6.49681529,27.5774965 6.49681529,27.9363057 C6.49681529,28.2951149 6.78768761,28.5859873 7.14649682,28.5859873 L12.343949,28.5859873 C12.7027582,28.5859873 12.9936306,28.2951149 12.9936306,27.9363057 C12.9936306,27.5774965 12.7027582,27.2866242 12.343949,27.2866242 Z" id="Stroke"></path>
                    <path d="M4.5477707,27.2866242 L1.94904459,27.2866242 C1.59023539,27.2866242 1.29936306,27.5774965 1.29936306,27.9363057 C1.29936306,28.2951149 1.59023539,28.5859873 1.94904459,28.5859873 L4.5477707,28.5859873 C4.9065799,28.5859873 5.19745223,28.2951149 5.19745223,27.9363057 C5.19745223,27.5774965 4.9065799,27.2866242 4.5477707,27.2866242 Z" id="Stroke"></path>
                    <path d="M7.14649682,42.8789809 L12.343949,42.8789809 C12.7027582,42.8789809 12.9936306,42.5881086 12.9936306,42.2292994 C12.9936306,41.8704902 12.7027582,41.5796178 12.343949,41.5796178 L7.14649682,41.5796178 C6.78768761,41.5796178 6.49681529,41.8704902 6.49681529,42.2292994 C6.49681529,42.5881086 6.78768761,42.8789809 7.14649682,42.8789809 Z" id="Stroke"></path>
                    <path d="M52.6242038,11.6942675 L59.1210191,11.6942675 C59.4798283,11.6942675 59.7707006,11.4033952 59.7707006,11.044586 C59.7707006,10.6857768 59.4798283,10.3949045 59.1210191,10.3949045 L52.6242038,10.3949045 C52.2653946,10.3949045 51.9745223,10.6857768 51.9745223,11.044586 C51.9745223,11.4033952 52.2653946,11.6942675 52.6242038,11.6942675 Z" id="Stroke"></path>
                </g>
            </g>
        </g>
    </g>
</svg>