<?xml version="1.0" encoding="UTF-8"?>
<svg width="75px" height="104px" viewBox="0 0 75 104" version="1.1" xmlns="http://www.w3.org/2000/svg" xmlns:xlink="http://www.w3.org/1999/xlink">
    <!-- Generator: Sketch 43 (38999) - http://www.bohemiancoding.com/sketch -->
    <title>icn-fullbuild</title>
    <desc>Created with Sketch.</desc>
    <defs></defs>
    <g id="Page-1" stroke="none" stroke-width="1" fill="none" fill-rule="evenodd">
        <g id="Home-1" transform="translate(-933.000000, -1385.000000)">
            <g id="Group-4" transform="translate(128.000000, 883.000000)">
                <g id="icn-fullbuild" transform="translate(805.000000, 502.000000)">
                    <path d="M59.1368855,101.092971 C60.5706465,101.18716 62.0658918,100.9216 63.248483,100.106606 C64.4310742,99.2903044 65.2408352,97.8670088 65.0956277,96.4384805 C63.5807597,96.6922667 62.1142943,97.2325434 60.796961,98.0213736 C59.8877786,98.5655748 58.9746717,99.3596377 58.9053384,100.416644" id="Fill" fill="#FFFFFF"></path>
                    <path d="M58.2526529,100.373832 C58.3308797,99.1812427 59.1591464,98.2393984 60.4609273,97.4602029 C61.8487775,96.6291467 63.3926276,96.060581 64.9875543,95.7933826 C65.3602401,95.7309465 65.7081486,95.996392 65.7463625,96.3723344 C65.9115483,97.9974051 65.0422715,99.663198 63.6196494,100.645185 C62.3786187,101.500453 60.783424,101.856636 59.0940087,101.745652 C58.7335428,101.721972 58.4605241,101.41056 58.4842043,101.050094 C58.4868643,101.009603 58.4931549,100.970216 58.5027377,100.932228 C58.3381094,100.803437 58.2379398,100.598137 58.2526529,100.373832 Z M62.8769131,99.5683062 C63.6972861,99.002031 64.2643431,98.1336405 64.416945,97.2436194 C63.2632068,97.5201453 62.1509906,97.9729598 61.1328926,98.5826054 C60.164567,99.1622075 59.6031044,99.7997554 59.5582534,100.456029 C60.8262051,100.477742 61.9875832,100.181196 62.8769131,99.5683062 Z" id="Stroke" fill="#01B784" fill-rule="nonzero"></path>
                    <path d="M6.8506566,69.7676478 L6.8506566,75.0003522 C6.8506566,75.1809736 6.9970792,75.3273962 7.17770063,75.3273962 C7.35832206,75.3273962 7.50474465,75.1809736 7.50474465,75.0003522 L7.50474465,69.7676478 C7.50474465,69.5870264 7.35832206,69.4406038 7.17770063,69.4406038 C6.9970792,69.4406038 6.8506566,69.5870264 6.8506566,69.7676478 Z" id="Stroke" fill="#01B784" fill-rule="nonzero"></path>
                    <path d="M9.79405283,72.056956 L4.56134843,72.056956 C4.380727,72.056956 4.2343044,72.2033786 4.2343044,72.384 C4.2343044,72.5646214 4.380727,72.711044 4.56134843,72.711044 L9.79405283,72.711044 C9.97467426,72.711044 10.1210969,72.5646214 10.1210969,72.384 C10.1210969,72.2033786 9.97467426,72.056956 9.79405283,72.056956 Z" id="Stroke" fill="#01B784" fill-rule="nonzero"></path>
                    <path d="M31.3164277,2.90245031 L7.25776101,16.7926642 C3.57524528,18.9184503 1.3081761,22.8469031 1.3081761,27.0971673 L1.3081761,54.877595 C1.3081761,59.1291673 3.57524528,63.0576201 7.25776101,65.1820981 L31.3164277,79.0736201 C34.9976352,81.1994063 39.5330818,81.1994063 43.2155975,79.0736201 L67.2742642,65.1820981 C70.9554717,63.0576201 73.2238491,59.1291673 73.2238491,54.877595 L73.2238491,27.0971673 C73.2238491,22.8469031 70.9554717,18.9184503 67.2742642,16.7926642 L43.2155975,2.90245031 C39.5330818,0.776664151 34.9976352,0.776664151 31.3164277,2.90245031" id="Fill" fill="#FCFCFC"></path>
                    <path d="M30.6623419,1.76953528 C34.7482193,-0.589935511 39.7823539,-0.589935511 43.8696833,1.76953528 L67.9284538,15.6598091 C72.0144199,18.0193311 74.5320252,22.3796535 74.5320252,27.0971673 L74.5320252,54.877595 C74.5320252,59.5964751 72.0143456,63.9569261 67.9283961,66.3149865 L43.8696128,80.2065759 C39.7823539,82.566006 34.7482193,82.566006 30.6622957,80.2065085 L6.60404765,66.3152281 C2.51709445,63.9574263 0,59.5972946 0,54.877595 L0,27.0971673 C0,22.378834 2.51702043,18.0188305 6.60367521,15.6597491 L30.6623419,1.76953528 Z M31.9706173,4.03530541 L7.91177631,17.9256199 C4.63469695,19.817362 2.6163522,23.3135554 2.6163522,27.0971673 L2.6163522,54.877595 C2.6163522,58.6624569 4.63462255,62.1585215 7.911893,64.0492098 L31.9706173,77.940765 C35.2470512,79.8328066 39.2838096,79.8328066 42.5614655,77.9407318 L66.6203765,64.0490687 C69.8967914,62.1582024 71.915673,58.6616358 71.915673,54.877595 L71.915673,27.0971673 C71.915673,23.3143765 69.8967172,19.8176814 66.6201784,17.9255792 L42.5615822,4.03540605 C39.2838096,2.14326381 35.2470512,2.14326381 31.9706173,4.03530541 Z" id="Stroke" fill="#01B784" fill-rule="nonzero"></path>
                    <path d="M37.2658818,51.6295245 L37.2658818,44.5065057 C37.2658818,42.1857471 38.5566793,40.0561617 40.6136693,38.9838758 C40.9340009,38.8168905 41.0583126,38.4218421 40.8913273,38.1015106 C40.7243421,37.781179 40.3292937,37.6568673 40.0089621,37.8238525 C37.5195373,39.1215619 35.9577057,41.6983051 35.9577057,44.5065057 L35.9577057,51.6295245 C35.9577057,51.9907674 36.2505509,52.2836126 36.6117937,52.2836126 C36.9730366,52.2836126 37.2658818,51.9907674 37.2658818,51.6295245 Z" id="Stroke" fill="#01B784" fill-rule="nonzero"></path>
                    <path d="M37.2658818,60.6104151 L37.2658818,55.4862893 C37.2658818,55.1250465 36.9730366,54.8322013 36.6117937,54.8322013 C36.2505509,54.8322013 35.9577057,55.1250465 35.9577057,55.4862893 L35.9577057,60.6104151 C35.9577057,60.9716579 36.2505509,61.2645031 36.6117937,61.2645031 C36.9730366,61.2645031 37.2658818,60.9716579 37.2658818,60.6104151 Z" id="Stroke" fill="#01B784" fill-rule="nonzero"></path>
                    <path d="M52.543678,53.1247698 L52.543678,59.4785811 C52.543678,59.6592026 52.6901006,59.8056252 52.870722,59.8056252 C53.0513434,59.8056252 53.197766,59.6592026 53.197766,59.4785811 L53.197766,53.1247698 C53.197766,52.9441484 53.0513434,52.7977258 52.870722,52.7977258 C52.6901006,52.7977258 52.543678,52.9441484 52.543678,53.1247698 Z" id="Stroke" fill="#01B784" fill-rule="nonzero"></path>
                    <path d="M56.0472352,55.9743698 L49.6934239,55.9743698 C49.5128025,55.9743698 49.3663799,56.1207924 49.3663799,56.3014138 C49.3663799,56.4820353 49.5128025,56.6284579 49.6934239,56.6284579 L56.0472352,56.6284579 C56.2278566,56.6284579 56.3742792,56.4820353 56.3742792,56.3014138 C56.3742792,56.1207924 56.2278566,55.9743698 56.0472352,55.9743698 Z" id="Stroke" fill="#01B784" fill-rule="nonzero"></path>
                    <path d="M70.8581434,8.64678239 L70.8581434,15.0005937 C70.8581434,15.1812151 71.004566,15.3276377 71.1851874,15.3276377 C71.3658088,15.3276377 71.5122314,15.1812151 71.5122314,15.0005937 L71.5122314,8.64678239 C71.5122314,8.46616096 71.3658088,8.31973836 71.1851874,8.31973836 C71.004566,8.31973836 70.8581434,8.46616096 70.8581434,8.64678239 Z" id="Stroke" fill="#01B784" fill-rule="nonzero"></path>
                    <path d="M74.3617006,11.4963824 L68.0078893,11.4963824 C67.8272679,11.4963824 67.6808453,11.642805 67.6808453,11.8234264 C67.6808453,12.0040478 67.8272679,12.1504704 68.0078893,12.1504704 L74.3617006,12.1504704 C74.5423221,12.1504704 74.6887447,12.0040478 74.6887447,11.8234264 C74.6887447,11.642805 74.5423221,11.4963824 74.3617006,11.4963824 Z" id="Stroke" fill="#01B784" fill-rule="nonzero"></path>
                    <path d="M15.5041115,103.302331 C18.5085366,102.125193 20.2233011,101.070177 23.248699,98.7536663 C26.7248883,96.0928114 28.6105441,91.6319776 28.5480805,86.9365409 C28.4728176,81.413676 27.9748406,78.1430735 26.284386,74.7982852 C25.9584982,74.153473 25.1715904,73.8949337 24.5267783,74.2208215 C23.8819661,74.5467093 23.6234268,75.3336171 23.9493146,75.9784293 C25.4138382,78.8761833 25.8617302,81.8178386 25.9319655,86.9717677 C25.984021,90.8848263 24.4340872,94.5514538 21.6582633,96.6762127 C18.8101641,98.856968 17.2883871,99.7932478 14.5496646,100.866283 C13.8769685,101.129846 13.5453008,101.888834 13.808864,102.56153 C14.0724273,103.234226 14.8314154,103.565894 15.5041115,103.302331 Z" id="Stroke" fill="#01B784" fill-rule="nonzero"></path>
                    <path d="M32.390918,91.9366989 C32.9008395,90.3448805 33.1492731,88.6426242 33.1271495,86.9446356 C33.1152453,86.0830566 33.0966473,85.3574157 33.0664029,84.6666349 C33.0506018,84.3057377 32.7452276,84.0259822 32.3843305,84.0417833 C32.0234333,84.0575844 31.7436778,84.3629586 31.7594789,84.7238557 C31.7890813,85.3999763 31.8073605,86.1131745 31.8190914,86.9621939 C31.839389,88.5200502 31.6114653,90.0817728 31.1451021,91.5376155 C31.0348983,91.8816381 31.2244458,92.2498613 31.5684684,92.3600652 C31.9124909,92.470269 32.2807142,92.2807215 32.390918,91.9366989 Z" id="Stroke" fill="#01B784" fill-rule="nonzero"></path>
                    <path d="M20.4982042,102.693319 C23.4362036,101.542207 25.1027213,100.516875 28.0837558,98.2343325 C29.0234617,97.5153356 29.8478406,96.6520316 30.5477947,95.6672784 C30.757081,95.3728372 30.6880492,94.9644853 30.393608,94.755199 C30.0991667,94.5459127 29.6908149,94.6149445 29.4815286,94.9093857 C28.8560981,95.789293 28.1225468,96.5574808 27.2886434,97.195525 C24.3961528,99.4102702 22.8261289,100.376234 20.0209807,101.475295 C19.6846327,101.607077 19.5187988,101.986571 19.6505804,102.322919 C19.7823621,102.659267 20.1618561,102.825101 20.4982042,102.693319 Z" id="Stroke" fill="#01B784" fill-rule="nonzero"></path>
                    <path d="M59.9820989,100.866283 C57.2433764,99.7932478 55.7215994,98.856968 52.873655,96.6763312 C50.0976764,94.5514538 48.5477425,90.8848263 48.5998038,86.9713433 C48.6700333,81.8178386 49.1179253,78.8761833 50.5824489,75.9784293 C50.9083367,75.3336171 50.6497974,74.5467093 50.0049853,74.2208215 C49.3601731,73.8949337 48.5732653,74.153473 48.2473775,74.7982852 C46.5569229,78.1430735 46.0589459,81.413676 45.9836887,86.9361166 C45.9212194,91.6319776 47.8068752,96.0928114 51.2832193,98.7537847 C54.3084624,101.070177 56.0232269,102.125193 59.027652,103.302331 C59.7003481,103.565894 60.4593363,103.234226 60.7228995,102.56153 C60.9864627,101.888834 60.654795,101.129846 59.9820989,100.866283 Z" id="Stroke" fill="#01B784" fill-rule="nonzero"></path>
                    <path d="M23.8570767,12.2078994 L23.8570767,22.6733082 C23.8570767,22.8539296 24.0034993,23.0003522 24.1841208,23.0003522 C24.3647422,23.0003522 24.5111648,22.8539296 24.5111648,22.6733082 L24.5111648,12.2078994 C24.5111648,12.0272779 24.3647422,11.8808553 24.1841208,11.8808553 C24.0034993,11.8808553 23.8570767,12.0272779 23.8570767,12.2078994 Z" id="Stroke" fill="#01B784" fill-rule="nonzero"></path>
                    <path d="M29.4168252,17.1135597 L18.9514164,17.1135597 C18.7707949,17.1135597 18.6243723,17.2599823 18.6243723,17.4406038 C18.6243723,17.6212252 18.7707949,17.7676478 18.9514164,17.7676478 L29.4168252,17.7676478 C29.5974466,17.7676478 29.7438692,17.6212252 29.7438692,17.4406038 C29.7438692,17.2599823 29.5974466,17.1135597 29.4168252,17.1135597 Z" id="Stroke" fill="#01B784" fill-rule="nonzero"></path>
                    <path d="M55.0274078,100.286923 C51.9614128,100.324819 50.3450901,100.165813 48.7239752,99.4861243 C45.3910229,98.0876731 43.1533283,93.6485258 43.1533283,86.7734138 C43.1533283,86.412171 42.8604831,86.1193258 42.4992403,86.1193258 C42.1379974,86.1193258 41.8451522,86.412171 41.8451522,86.7734138 C41.8451522,94.1274178 44.332736,99.0622962 48.2179937,100.692486 C50.0553925,101.462856 51.80549,101.635023 55.0435759,101.594999 C55.4047911,101.590534 55.6939946,101.294092 55.6895299,100.932877 C55.6850652,100.571662 55.388623,100.282458 55.0274078,100.286923 Z" id="Stroke" fill="#01B784" fill-rule="nonzero"></path>
                    <path d="M12.6755723,101.241187 C12.3851572,99.8335899 11.729761,98.4626214 10.6282767,97.5403572 C9.52679245,96.6194013 7.93866667,96.2177912 6.60040252,96.7397535 C7.24925786,98.1316528 8.1610566,99.4005836 9.27300629,100.460206 C10.0395975,101.191477 11.0482013,101.859955 12.0855849,101.644106" id="Fill" fill="#FFFFFF"></path>
                    <path d="M12.2188277,102.284479 C11.0482027,102.528051 9.91954519,101.980917 8.821772,100.933724 C7.65044918,99.817522 6.69074109,98.4816364 6.00756513,97.0161137 C5.84794512,96.6737031 6.01076298,96.2676518 6.3627272,96.1303754 C7.88452301,95.5368304 9.72225115,95.9302318 11.0481843,97.0388507 C12.204643,98.0071445 12.9741062,99.4510986 13.3161681,101.10902 C13.3891622,101.462811 13.1615311,101.808789 12.8077399,101.881783 C12.768141,101.889953 12.7286401,101.894357 12.6896088,101.895239 C12.6093389,102.087816 12.43851,102.238769 12.2188277,102.284479 Z M10.2087197,98.042157 C9.44410288,97.4028575 8.45569965,97.0880769 7.55738349,97.1787014 C8.13179286,98.2167567 8.864963,99.1678479 9.72448453,99.9869214 C10.5411357,100.765945 11.3050911,101.136848 11.9494973,101.004321 C11.6332526,99.77686 11.0372981,98.7359195 10.2087197,98.042157 Z" id="Stroke" fill="#01B784" fill-rule="nonzero"></path>
                    <path d="M36.3831245,102.51365 C37.538244,101.659411 38.5089107,100.489902 38.8843572,99.1045434 C39.2598038,97.7165686 38.9576151,96.1075119 37.924156,95.1106818 C36.9325585,96.2841157 36.1620428,97.6433107 35.666244,99.0966943 C35.3235019,100.100065 35.1390491,101.295738 35.7695899,102.147361" id="Fill" fill="#FFFFFF"></path>
                    <path d="M35.243907,102.536576 C34.5324434,101.575658 34.5563825,100.322329 35.0471856,98.8855124 C35.5689966,97.3558763 36.3797166,95.9249468 37.4245596,94.6885033 C37.6686382,94.3996662 38.1060721,94.3773749 38.3782479,94.639904 C39.554121,95.7741005 39.9670663,97.6068933 39.5156721,99.2756363 C39.1216506,100.729534 38.1334127,102.032787 36.7720426,103.039553 C36.4815944,103.254347 36.0720151,103.193017 35.8572216,102.902568 C35.83318,102.870059 35.8125978,102.836057 35.7954089,102.801003 C35.5866308,102.809061 35.3776129,102.717163 35.243907,102.536576 Z M38.252961,98.933751 C38.5132725,97.9714148 38.3850249,96.9424216 37.9265078,96.1642479 C37.2242796,97.1219354 36.6680571,98.18587 36.2852161,99.3081294 C35.9200839,100.377047 35.9032641,101.225591 36.2931875,101.755321 C37.275238,100.95263 37.9706606,99.9754099 38.252961,98.933751 Z" id="Stroke" fill="#01B784" fill-rule="nonzero"></path>
                    <path d="M58.1621635,101.058435 C59.4193208,100.363794 60.5338868,99.3303346 61.0872453,98.0051522 C61.6406038,96.6786616 61.5516478,95.0434415 60.6568553,93.9210264 C59.5200503,94.9531774 58.5794717,96.2011774 57.8966038,97.5773786 C57.4269686,98.5271145 57.0881509,99.6887748 57.6022642,100.614964" id="Fill" fill="#FFFFFF"></path>
                    <path d="M57.0303741,100.932411 C56.4503818,99.8875395 56.6371791,98.6486563 57.3106812,97.2866452 C58.0308549,95.8352606 59.0217194,94.5221638 60.2171733,93.4367632 C60.4968388,93.1828436 60.9328409,93.2179253 61.1683094,93.5132938 C62.1863944,94.7903653 62.3563351,96.6618532 61.6908248,98.2571898 C61.1097498,99.6487476 59.9590473,100.812865 58.4785008,101.63094 C58.1623151,101.805648 57.7643668,101.690958 57.5896586,101.374772 C57.5701678,101.339498 57.5542789,101.303206 57.5418698,101.26632 C57.3341484,101.246872 57.1392726,101.128595 57.0303741,100.932411 Z M60.4835774,97.7533263 C60.867408,96.8332217 60.8746302,95.7960182 60.5215447,94.9650844 C59.7017174,95.8205487 59.0110231,96.8030186 58.4829244,97.8673085 C57.9820708,98.8801767 57.8550149,99.7192855 58.1726812,100.294855 C59.2499844,99.6289968 60.0672031,98.750459 60.4835774,97.7533263 Z" id="Stroke" fill="#01B784" fill-rule="nonzero"></path>
                    <path d="M15.1015849,101.0464 C15.5372075,99.6780478 15.6379371,98.1605635 15.1290566,96.8183748 C14.6201761,95.474878 13.4336604,94.3472302 12.0103648,94.1457711 C11.8952453,95.6776453 12.0679245,97.2304503 12.5179371,98.6995321 C12.8279748,99.7120604 13.3800252,100.788689 14.3899371,101.109192" id="Fill" fill="#FFFFFF"></path>
                    <path d="M14.1920819,101.732638 C13.0526403,101.371028 12.3365243,100.341104 11.8925331,98.8911073 C11.4189027,97.344924 11.2368395,95.7105575 11.3581159,94.0967549 C11.3864512,93.719702 11.727649,93.4451465 12.1020334,93.4981384 C13.7203643,93.7272036 15.1284199,94.970109 15.7406614,96.5864896 C16.2748351,97.9953898 16.2383181,99.6319476 15.724851,101.24482 C15.6152665,101.589041 15.247385,101.779251 14.9031646,101.669666 C14.8647524,101.657437 14.8282581,101.641992 14.7938842,101.623722 C14.6294411,101.752584 14.4062375,101.800602 14.1920819,101.732638 Z M14.517377,97.0500626 C14.1641767,96.1175774 13.4576165,95.3591409 12.6300548,94.9977213 C12.622743,96.1852016 12.7958198,97.3734614 13.1433622,98.5080259 C13.4734934,99.5861757 13.9578501,100.283868 14.5843994,100.484665 C14.9097404,99.2595446 14.9001122,98.0595392 14.517377,97.0500626 Z" id="Stroke" fill="#01B784" fill-rule="nonzero"></path>
                    <path d="M6.52361258,103.392483 L65.408805,103.392483 C66.1312907,103.392483 66.7169811,102.806793 66.7169811,102.084307 C66.7169811,101.361821 66.1312907,100.776131 65.408805,100.776131 L6.52361258,100.776131 C5.80112687,100.776131 5.21543648,101.361821 5.21543648,102.084307 C5.21543648,102.806793 5.80112687,103.392483 6.52361258,103.392483 Z" id="Stroke" fill="#01B784" fill-rule="nonzero"></path>
                </g>
            </g>
        </g>
    </g>
</svg>