<?xml version="1.0" encoding="UTF-8"?>
<svg width="151px" height="130px" viewBox="0 0 151 130" version="1.1" xmlns="http://www.w3.org/2000/svg" xmlns:xlink="http://www.w3.org/1999/xlink">
    <!-- Generator: Sketch 43.1 (39012) - http://www.bohemiancoding.com/sketch -->
    <title>icn-mvb</title>
    <desc>Created with Sketch.</desc>
    <defs></defs>
    <g id="Icons" stroke="none" stroke-width="1" fill="none" fill-rule="evenodd">
        <g id="Version-2" transform="translate(-634.000000, -660.000000)">
            <g id="icn-mvb" transform="translate(634.000000, 660.000000)">
                <path d="M8.5,69 L8.5,85" id="Stroke-1" stroke="#01B784" stroke-linecap="round" stroke-linejoin="round"></path>
                <g id="Group-84">
                    <path d="M16.5,77 L0.5,77" id="Stroke-2" stroke="#01B784" stroke-linecap="round" stroke-linejoin="round"></path>
                    <path d="M37.129,1 L86.001,1 L86.001,64.5 L22.501,64.5 L22.501,15.628 C22.501,7.55 29.049,1 37.129,1" id="Fill-4" fill="#FFFFFF"></path>
                    <polyline id="Stroke-6" stroke="#01B784" stroke-width="2" stroke-linecap="round" stroke-linejoin="round" points="82 1 86 1 86 5"></polyline>
                    <path d="M86,12.9288 L86,56.5368" id="Stroke-8" stroke="#01B784" stroke-width="2" stroke-linecap="round" stroke-linejoin="round" stroke-dasharray="7.927999973297119,7.927999973297119"></path>
                    <polyline id="Stroke-10" stroke="#01B784" stroke-width="2" stroke-linecap="round" stroke-linejoin="round" points="86 60.5 86 64.5 82 64.5"></polyline>
                    <path d="M74.0712,64.5 L30.4632,64.5" id="Stroke-12" stroke="#01B784" stroke-width="2" stroke-linecap="round" stroke-linejoin="round" stroke-dasharray="7.927999973297119,7.927999973297119"></path>
                    <polyline id="Stroke-14" stroke="#01B784" stroke-width="2" stroke-linecap="round" stroke-linejoin="round" points="26.5 64.5 22.5 64.5 22.5 60.5"></polyline>
                    <path d="M22.5,52.9874 L22.5,15.6294 C22.5,7.5494 29.05,0.9994 37.128,0.9994 L78.244,0.9994" id="Stroke-16" stroke="#01B784" stroke-width="2" stroke-linecap="round" stroke-linejoin="round" stroke-dasharray="7.513999938964844,7.513999938964844"></path>
                    <path d="M86,1 L134.872,1 C142.95,1 149.5,7.55 149.5,15.628 L149.5,64.5 L86,64.5 L86,1 Z" id="Fill-18" fill="#FFFFFF"></path>
                    <polyline id="Stroke-20" stroke="#01B784" stroke-width="2" stroke-linecap="round" stroke-linejoin="round" points="86 5 86 1 90 1"></polyline>
                    <path d="M97.5126,1 L134.8706,1 C142.9506,1 149.5006,7.55 149.5006,15.628 L149.5006,56.744" id="Stroke-22" stroke="#01B784" stroke-width="2" stroke-linecap="round" stroke-linejoin="round" stroke-dasharray="7.513999938964844,7.513999938964844"></path>
                    <polyline id="Stroke-24" stroke="#01B784" stroke-width="2" stroke-linecap="round" stroke-linejoin="round" points="149.5 60.5 149.5 64.5 145.5 64.5"></polyline>
                    <path d="M137.5712,64.5 L93.9632,64.5" id="Stroke-26" stroke="#01B784" stroke-width="2" stroke-linecap="round" stroke-linejoin="round" stroke-dasharray="7.927999973297119,7.927999973297119"></path>
                    <polyline id="Stroke-28" stroke="#01B784" stroke-width="2" stroke-linecap="round" stroke-linejoin="round" points="90 64.5 86 64.5 86 60.5"></polyline>
                    <path d="M86,52.5712 L86,8.9632" id="Stroke-30" stroke="#01B784" stroke-width="2" stroke-linecap="round" stroke-linejoin="round" stroke-dasharray="7.927999973297119,7.927999973297119"></path>
                    <path d="M86,64.5 L149.5,64.5 L149.5,113.372 C149.5,121.45 142.95,128 134.872,128 L86,128" id="Fill-32" fill="#FFFFFF"></path>
                    <path d="M86,64.5 L90,64.5" id="Stroke-34" stroke="#01B784" stroke-width="2" stroke-linecap="round" stroke-linejoin="round"></path>
                    <path d="M97.9288,64.5 L141.5368,64.5" id="Stroke-36" stroke="#01B784" stroke-width="2" stroke-linecap="round" stroke-linejoin="round" stroke-dasharray="7.927999973297119,7.927999973297119"></path>
                    <polyline id="Stroke-38" stroke="#01B784" stroke-width="2" stroke-linecap="round" stroke-linejoin="round" points="145.5 64.5 149.5 64.5 149.5 68.5"></polyline>
                    <path d="M149.5,76.0126 L149.5,113.3706 C149.5,121.4506 142.95,128.0006 134.872,128.0006 L93.756,128.0006" id="Stroke-40" stroke="#01B784" stroke-width="2" stroke-linecap="round" stroke-linejoin="round" stroke-dasharray="7.513999938964844,7.513999938964844"></path>
                    <path d="M90,128 L86,128" id="Stroke-42" stroke="#01B784" stroke-width="2" stroke-linecap="round" stroke-linejoin="round"></path>
                    <path d="M83.587,18.8448 C84.145,18.7768 85.037,18.7428 85.611,18.7428 C93.347,18.7428 99.619,25.0128 99.619,32.7508 C99.619,40.4868 93.347,46.7588 85.611,46.7588 C84.923,46.7588 84.249,46.7088 83.587,46.6128" id="Fill-44" fill="#FFFFFF"></path>
                    <path d="M83.587,18.8448 C84.145,18.7768 85.037,18.7428 85.611,18.7428 C86.281,18.7428 86.937,18.7888 87.581,18.8808" id="Stroke-46" stroke="#01B784" stroke-width="2" stroke-linecap="round" stroke-linejoin="round"></path>
                    <path d="M94.7686,22.1504 C97.7386,24.7184 99.6186,28.5144 99.6186,32.7504 C99.6186,38.4104 96.2606,43.2864 91.4286,45.4964" id="Stroke-48" stroke="#01B784" stroke-width="2" stroke-linecap="round" stroke-linejoin="round" stroke-dasharray="8,8"></path>
                    <path d="M87.5782,46.6202 C86.9362,46.7102 86.2802,46.7582 85.6122,46.7582 C84.9242,46.7582 84.2482,46.7082 83.5862,46.6122" id="Stroke-50" stroke="#01B784" stroke-width="2" stroke-linecap="round" stroke-linejoin="round"></path>
                    <path d="M103.8448,61.1534 C103.7768,61.7114 103.7428,62.6014 103.7428,63.1774 C103.7428,70.9134 110.0128,77.1854 117.7508,77.1854 C125.4868,77.1854 131.7588,70.9134 131.7588,63.1774 C131.7588,62.4894 131.7088,61.8154 131.6128,61.1534" id="Fill-52" fill="#FFFFFF"></path>
                    <path d="M103.8448,61.1534 C103.7768,61.7114 103.7428,62.6014 103.7428,63.1774 C103.7428,63.8454 103.7888,64.5034 103.8808,65.1474" id="Stroke-54" stroke="#01B784" stroke-width="2" stroke-linecap="round" stroke-linejoin="round"></path>
                    <path d="M107.1504,72.335 C109.7184,75.305 113.5144,77.185 117.7504,77.185 C123.4104,77.185 128.2864,73.827 130.4964,68.995" id="Stroke-56" stroke="#01B784" stroke-width="2" stroke-linecap="round" stroke-linejoin="round" stroke-dasharray="8,8"></path>
                    <path d="M131.6202,65.1446 C131.7102,64.5026 131.7582,63.8446 131.7582,63.1786 C131.7582,62.4906 131.7082,61.8146 131.6122,61.1526" id="Stroke-58" stroke="#01B784" stroke-width="2" stroke-linecap="round" stroke-linejoin="round"></path>
                    <path d="M29.5,81 L29.5,73" id="Stroke-60" stroke="#01B784" stroke-width="2" stroke-linecap="round" stroke-linejoin="round"></path>
                    <path d="M29.5,93 L29.5,87" id="Stroke-62" stroke="#01B784" stroke-width="2" stroke-linecap="round" stroke-linejoin="round"></path>
                    <path d="M22.5,64.5 L86,64.5 L86,128 L37.128,128 C29.05,128 22.5,121.45 22.5,113.372 L22.5,64.5 Z" id="Fill-64" fill="#FFFFFF"></path>
                    <path d="M22.5,64.5 L86,64.5 L86,128 L37.128,128 C29.05,128 22.5,121.45 22.5,113.372 L22.5,64.5 Z" id="Stroke-66" stroke="#01B784" stroke-width="4" stroke-linecap="round" stroke-linejoin="round"></path>
                    <g id="Group-71" transform="translate(72.000000, 82.000000)">
                        <path d="M16.413,28.1552 C15.855,28.2232 14.963,28.2572 14.389,28.2572 C6.653,28.2572 0.381,21.9872 0.381,14.2492 C0.381,6.5132 6.653,0.2412 14.389,0.2412 C15.077,0.2412 15.751,0.2912 16.413,0.3872" id="Fill-68" fill="#FFFFFF"></path>
                        <path d="M16.413,28.1552 C15.855,28.2232 14.963,28.2572 14.389,28.2572 C6.653,28.2572 0.381,21.9872 0.381,14.2492 C0.381,6.5132 6.653,0.2412 14.389,0.2412 C15.077,0.2412 15.751,0.2912 16.413,0.3872" id="Stroke-70" stroke="#01B784" stroke-width="4" stroke-linecap="round" stroke-linejoin="round"></path>
                    </g>
                    <g id="Group-75" transform="translate(40.000000, 50.000000)">
                        <path d="M0.3448,17.458 C0.2768,16.9 0.2428,16.01 0.2428,15.434 C0.2428,7.698 6.5128,1.426 14.2508,1.426 C21.9868,1.426 28.2588,7.698 28.2588,15.434 C28.2588,16.122 28.2088,16.796 28.1128,17.458" id="Fill-72" fill="#FFFFFF"></path>
                        <path d="M0.3448,17.458 C0.2768,16.9 0.2428,16.01 0.2428,15.434 C0.2428,7.698 6.5128,1.426 14.2508,1.426 C21.9868,1.426 28.2588,7.698 28.2588,15.434 C28.2588,16.122 28.2088,16.796 28.1128,17.458" id="Stroke-74" stroke="#01B784" stroke-width="4" stroke-linecap="round" stroke-linejoin="round"></path>
                    </g>
                    <path d="M35.7226,107.5556 L35.7226,119.9996" id="Stroke-76" stroke="#01B784" stroke-linecap="round" stroke-linejoin="round"></path>
                    <path d="M41.9444,113.7774 L29.5004,113.7774" id="Stroke-78" stroke="#01B784" stroke-linecap="round" stroke-linejoin="round"></path>
                    <path d="M12.3574,119.5556 L12.3574,129.2696" id="Stroke-80" stroke="#01B784" stroke-linecap="round" stroke-linejoin="round"></path>
                    <path d="M17.2138,124.4122 L7.4998,124.4122" id="Stroke-82" stroke="#01B784" stroke-linecap="round" stroke-linejoin="round"></path>
                </g>
            </g>
        </g>
    </g>
</svg>