<?xml version="1.0" encoding="UTF-8"?>
<svg width="80px" height="104px" viewBox="0 0 80 104" version="1.1" xmlns="http://www.w3.org/2000/svg" xmlns:xlink="http://www.w3.org/1999/xlink">
    <!-- Generator: Sketch 43 (38999) - http://www.bohemiancoding.com/sketch -->
    <title>icn-engineering</title>
    <desc>Created with Sketch.</desc>
    <defs></defs>
    <g id="Page-1" stroke="none" stroke-width="1" fill="none" fill-rule="evenodd">
        <g id="Home-1" transform="translate(-933.000000, -1000.000000)">
            <g id="Group-4" transform="translate(128.000000, 883.000000)">
                <g id="icn-engineering" transform="translate(805.000000, 117.000000)">
                    <path d="M14.5036559,82.3502205 C13.4839241,81.3721105 12.4952913,80.3083126 11.5439496,79.168024 C8.37934024,75.3750902 5.66408505,70.7777074 3.65111217,65.8740736 C1.29597837,60.139033 -0.000253658537,54.2245502 -0.000253658537,49.0477951 C-0.000253658537,38.3602568 5.55303979,28.6281291 14.4827522,23.1209972 C19.2432342,20.1867697 24.7277719,18.6087707 30.4387707,18.6087707 C47.2499219,18.6087707 60.8777951,32.2370532 60.8777951,49.0477951 C60.8777951,61.7957237 53.2622386,77.6373958 43.1217011,85.0942017 L43.1216976,93.3099415 C43.1216976,97.256991 39.9223947,100.456771 35.9761366,100.456771 L24.9026732,100.456771 C20.9553852,100.456771 17.7558439,97.2572294 17.7558439,93.3099415 L17.7558439,85.0859018 C16.6270178,84.2587008 15.5404493,83.3451805 14.5036559,82.3502205 Z M58.3412098,49.0477951 C58.3412098,33.6379536 45.8489874,21.1453561 30.4387707,21.1453561 C25.2013394,21.1453561 20.1769863,22.5909518 15.8139883,25.2801813 C7.62596267,30.3299001 2.53633171,39.249461 2.53633171,49.0477951 C2.53633171,53.8742769 3.76193437,59.4664901 5.99761329,64.9106434 C7.91499245,69.5814094 10.498175,73.955171 13.4916619,77.5430064 C14.3839602,78.612525 15.3087629,79.6076398 16.2597669,80.5198273 C17.3678445,81.5831952 18.5353787,82.5439055 19.751595,83.3955016 C20.0905618,83.6328466 20.2924293,84.0206284 20.2924293,84.4344293 L20.2924293,93.3099415 C20.2924293,95.856312 22.3563026,97.9201854 24.9026732,97.9201854 L35.9761366,97.9201854 C38.5213926,97.9201854 40.5851122,95.8561582 40.5851122,93.3099415 L40.5851122,84.4433073 C40.5851122,84.0293363 40.7871447,83.6414173 41.126341,83.4041035 C50.8359424,76.6109219 58.3412098,61.2173414 58.3412098,49.0477951 Z" id="Stroke" fill="#01B784" fill-rule="nonzero"></path>
                    <path d="M24.1954521,27.7443945 C26.2157149,27.1533997 28.3159208,26.8529268 30.4387707,26.8529268 C30.7890001,26.8529268 31.0729171,26.5690098 31.0729171,26.2187805 C31.0729171,25.8685511 30.7890001,25.5846341 30.4387707,25.5846341 C28.1954838,25.5846341 25.9753708,25.9022619 23.8393576,26.5271176 C23.5032159,26.6254504 23.3104337,26.9776616 23.4087664,27.3138033 C23.5070992,27.6499451 23.8593104,27.8427273 24.1954521,27.7443945 Z" id="Stroke" fill="#01B784" fill-rule="nonzero"></path>
                    <path d="M12.1241346,64.6811259 C11.8283958,64.0432825 11.5455298,63.3961051 11.2767059,62.7421752 C9.31999352,57.9753438 8.24364878,53.1069437 8.24364878,49.0472878 C8.24364878,41.2860497 12.1918618,34.2203851 18.8104291,30.137743 C19.2159254,29.8882072 19.6238174,29.6545094 20.0325113,29.437999 C20.341995,29.2740463 20.4599711,28.8902504 20.2960185,28.5807667 C20.1320659,28.2712831 19.7482699,28.1533069 19.4387863,28.3172596 C19.0056668,28.5467097 18.5741303,28.7939544 18.145148,29.0579435 C11.1517804,33.3717796 6.9753561,40.8458477 6.9753561,49.0472878 C6.9753561,53.2829973 8.08721946,58.3120512 10.1035402,63.2240968 C10.3795755,63.8955691 10.6699129,64.5598406 10.9735044,65.2146204 C11.1208249,65.5323582 11.497829,65.6705087 11.8155668,65.5231883 C12.1333046,65.3758678 12.2714551,64.9988637 12.1241346,64.6811259 Z" id="Stroke" fill="#01B784" fill-rule="nonzero"></path>
                    <path d="M24.7314537,84.2862927 C24.7314537,84.636522 25.0153706,84.920439 25.3656,84.920439 C25.7158294,84.920439 25.9997463,84.636522 25.9997463,84.2862927 L25.9997463,81.1320488 C25.9997463,80.9250405 25.898708,80.7310627 25.7290792,80.61241 L23.0238109,78.7201173 C22.0504219,78.0382507 21.1028872,77.2571959 20.2103012,76.400412 C19.4201077,75.6437112 18.6332852,74.7974232 17.8723399,73.8857834 C16.7322983,72.5182305 15.6485765,71.0037183 14.6454737,69.3769637 C14.4616506,69.0788535 14.0709665,68.9862056 13.7728564,69.1700287 C13.4747462,69.3538518 13.3820983,69.7445359 13.5659214,70.0426461 C14.6000607,71.7197334 15.7188165,73.283206 16.8984103,74.698204 C17.6892295,75.6456341 18.5081286,76.5264229 19.3325635,77.3159132 C20.2711434,78.2168467 21.2689561,79.0393458 22.2964957,79.7591451 L24.7314537,81.4623601 L24.7314537,84.2862927 Z" id="Stroke" fill="#01B784" fill-rule="nonzero"></path>
                    <g id="Group" transform="translate(3.170732, 63.676537)" fill-rule="nonzero" fill="#01B784">
                        <path d="M52.3081951,0 L1.5764878,0 C0.876029098,0 0.308195122,0.567833976 0.308195122,1.26829268 C0.308195122,1.96875139 0.876029098,2.53658537 1.5764878,2.53658537 L52.3081951,2.53658537 C53.0086538,2.53658537 53.5764878,1.96875139 53.5764878,1.26829268 C53.5764878,0.567833976 53.0086538,0 52.3081951,0 Z" id="Stroke"></path>
                    </g>
                    <g id="Group" transform="translate(25.365854, 98.554585)" fill-rule="nonzero" fill="#01B784">
                        <path d="M2.53633171,2.53658537 L2.53633171,1.26829268 C2.53633171,0.567833976 1.96849773,0 1.26803902,0 C0.567580317,0 -0.000253658537,0.567833976 -0.000253658537,1.26829268 L-0.000253658537,3.80487805 C-0.000253658537,4.50533676 0.567580317,5.07317073 1.26803902,5.07317073 L8.87779512,5.07317073 C9.57825383,5.07317073 10.1460878,4.50533676 10.1460878,3.80487805 L10.1460878,1.26829268 C10.1460878,0.567833976 9.57825383,0 8.87779512,0 C8.17733641,0 7.60950244,0.567833976 7.60950244,1.26829268 L7.60950244,2.53658537 L2.53633171,2.53658537 Z" id="Stroke"></path>
                    </g>
                    <path d="M19.0241366,87.7740976 L41.8534049,87.7740976 C42.2036342,87.7740976 42.4875512,87.4901806 42.4875512,87.1399512 C42.4875512,86.7897219 42.2036342,86.5058049 41.8534049,86.5058049 L19.0241366,86.5058049 C18.6739072,86.5058049 18.3899902,86.7897219 18.3899902,87.1399512 C18.3899902,87.4901806 18.6739072,87.7740976 19.0241366,87.7740976 Z" id="Stroke" fill="#01B784" fill-rule="nonzero"></path>
                    <path d="M19.3325854,91.5789756 L42.1618537,91.5789756 C42.512083,91.5789756 42.796,91.2950586 42.796,90.9448293 C42.796,90.5945999 42.512083,90.3106829 42.1618537,90.3106829 L19.3325854,90.3106829 C18.982356,90.3106829 18.698439,90.5945999 18.698439,90.9448293 C18.698439,91.2950586 18.982356,91.5789756 19.3325854,91.5789756 Z" id="Stroke" fill="#01B784" fill-rule="nonzero"></path>
                    <path d="M19.3325854,95.3838537 L42.1618537,95.3838537 C42.512083,95.3838537 42.796,95.0999367 42.796,94.7497073 C42.796,94.399478 42.512083,94.115561 42.1618537,94.115561 L19.3325854,94.115561 C18.982356,94.115561 18.698439,94.399478 18.698439,94.7497073 C18.698439,95.0999367 18.982356,95.3838537 19.3325854,95.3838537 Z" id="Stroke" fill="#01B784" fill-rule="nonzero"></path>
                    <path d="M24.7228293,89.6765366 L24.7228293,98.5545854 C24.7228293,98.9048147 25.0067463,99.1887317 25.3569756,99.1887317 C25.707205,99.1887317 25.991122,98.9048147 25.991122,98.5545854 L25.991122,89.6765366 C25.991122,89.3263072 25.707205,89.0423902 25.3569756,89.0423902 C25.0067463,89.0423902 24.7228293,89.3263072 24.7228293,89.6765366 Z" id="Stroke" fill="#01B784" fill-rule="nonzero"></path>
                    <path d="M78.4338829,21.1373659 C78.4338829,12.5079024 73.2085171,5.10234146 65.7509561,1.90243902 L65.7509561,18.6007805 C65.7509561,23.1539512 62.0602244,26.8446829 57.5070537,26.8446829 C52.9538829,26.8446829 49.2631512,23.1539512 49.2631512,18.6007805 L49.2631512,1.90243902 C41.8055902,5.10234146 36.5802244,12.5079024 36.5802244,21.1373659 C36.5802244,30.6165854 42.8874439,38.6131707 51.5308585,41.1865366 L49.5637366,41.1865366 L49.5637366,94.4167805 C49.5637366,98.8038049 53.1212976,102.360098 57.5070537,102.360098 C61.894078,102.360098 65.4503707,98.8038049 65.4503707,94.4167805 L65.4503707,41.1865366 L63.4845171,41.1865366 C72.1279317,38.6131707 78.4338829,30.6165854 78.4338829,21.1373659" id="Fill" fill="#F7F7F7"></path>
                    <path d="M35.3119317,21.1373659 C35.3119317,12.1800076 40.6698354,4.20955664 48.7630439,0.736909524 C49.6000115,0.377782089 50.5314439,0.991677081 50.5314439,1.90243902 L50.5314439,18.6007805 C50.5314439,22.4534925 53.6543416,25.5763902 57.5070537,25.5763902 C61.3597657,25.5763902 64.4826634,22.4534925 64.4826634,18.6007805 L64.4826634,1.90243902 C64.4826634,0.991677081 65.4140958,0.377782089 66.2510634,0.736909524 C74.3442719,4.20955664 79.7021756,12.1800076 79.7021756,21.1373659 C79.7021756,29.9711782 74.4924752,37.7825451 66.7186634,41.3260673 L66.7186634,94.4167805 C66.7186634,99.5042636 62.5945368,103.62839 57.5070537,103.62839 C52.4204321,103.62839 48.2954439,99.5038569 48.2954439,94.4167805 L48.2954439,41.3255112 C40.5218707,37.7816411 35.3119317,29.9704676 35.3119317,21.1373659 Z M63.4845171,42.4548293 C62.0219958,42.4548293 61.7208974,40.3883009 63.122613,39.9709742 C71.3906233,37.5093759 77.1655902,29.8894795 77.1655902,21.1373659 C77.1655902,13.8756203 73.1900995,7.34649341 67.0192488,3.93361443 L67.0192488,18.6007805 C67.0192488,23.8544099 62.7606831,28.1129756 57.5070537,28.1129756 C52.2534242,28.1129756 47.9948585,23.8544099 47.9948585,18.6007805 L47.9948585,3.93361443 C41.8240079,7.34649341 37.8485171,13.8756203 37.8485171,21.1373659 C37.8485171,29.889109 43.6243671,37.5092612 51.8927626,39.9709742 C53.2944783,40.3883009 52.9933798,42.4548293 51.5308585,42.4548293 L50.8320293,42.4548293 L50.8320293,94.4167805 C50.8320293,98.1028769 53.8212869,101.091805 57.5070537,101.091805 C61.1936193,101.091805 64.182078,98.1033462 64.182078,94.4167805 L64.182078,42.4548293 L63.4845171,42.4548293 Z" id="Stroke" fill="#01B784" fill-rule="nonzero"></path>
                    <g id="Group" transform="translate(53.902439, 53.530195)" fill-rule="nonzero" fill="#01B784">
                        <path d="M0.433882927,1.17228293 L0.433882927,31.0215512 C0.433882927,31.3717806 0.717799915,31.6556976 1.06802927,31.6556976 C1.41825862,31.6556976 1.70217561,31.3717806 1.70217561,31.0215512 L1.70217561,1.17228293 C1.70217561,0.822053573 1.41825862,0.538136585 1.06802927,0.538136585 C0.717799915,0.538136585 0.433882927,0.822053573 0.433882927,1.17228293 Z" id="Stroke"></path>
                    </g>
                    <g id="Group" transform="translate(53.902439, 45.920439)" fill-rule="nonzero" fill="#01B784">
                        <path d="M1.70217561,5.08623415 L1.70217561,0.947795122 C1.70217561,0.597565768 1.41825862,0.31364878 1.06802927,0.31364878 C0.717799915,0.31364878 0.433882927,0.597565768 0.433882927,0.947795122 L0.433882927,5.08623415 C0.433882927,5.4364635 0.717799915,5.72038049 1.06802927,5.72038049 C1.41825862,5.72038049 1.70217561,5.4364635 1.70217561,5.08623415 Z" id="Stroke"></path>
                    </g>
                    <path d="M59.4094927,94.0641951 C59.4094927,93.0142294 58.5570194,92.1617561 57.5070537,92.1617561 C56.4570879,92.1617561 55.6046146,93.0142294 55.6046146,94.0641951 C55.6046146,95.1141609 56.4570879,95.9666341 57.5070537,95.9666341 C58.5570194,95.9666341 59.4094927,95.1141609 59.4094927,94.0641951 Z M60.6777854,94.0641951 C60.6777854,95.8146196 59.2574781,97.2349268 57.5070537,97.2349268 C55.7566292,97.2349268 54.336322,95.8146196 54.336322,94.0641951 C54.336322,92.3137706 55.7566292,90.8934634 57.5070537,90.8934634 C59.2574781,90.8934634 60.6777854,92.3137706 60.6777854,94.0641951 Z" id="Stroke" fill="#01B784" fill-rule="nonzero"></path>
                </g>
            </g>
        </g>
    </g>
</svg>