<?xml version="1.0" encoding="UTF-8"?>
<svg width="28px" height="35px" viewBox="0 0 28 35" version="1.1" xmlns="http://www.w3.org/2000/svg" xmlns:xlink="http://www.w3.org/1999/xlink">
    <!-- Generator: Sketch 43.1 (39012) - http://www.bohemiancoding.com/sketch -->
    <title>mark</title>
    <desc>Created with Sketch.</desc>
    <defs></defs>
    <g id="Page-1" stroke="none" stroke-width="1" fill="none" fill-rule="evenodd">
        <g id="Home-1" transform="translate(-28.000000, -15.000000)" fill="#DFE3E2">
            <path d="M46.0181509,40.7659438 C44.9222915,41.8776851 43.5333368,42.4342777 41.8483989,42.4342777 C40.163461,42.4342777 38.7730624,41.895011 37.6786469,40.8164775 C36.5835095,39.7386659 36.0363018,38.2558628 36.0363018,36.3687902 C36.0363018,35.4931134 36.178518,34.6751894 36.4658382,33.9179058 C36.7517145,33.1591785 37.1559841,32.5018794 37.6786469,31.9463697 C38.2005878,31.390499 38.8156551,30.9530216 39.5231269,30.6324936 C40.2305987,30.3126875 41.00593,30.1524234 41.8483989,30.1524234 C43.5333368,30.1524234 44.9222915,30.733561 46.0181509,31.895836 C47.1125664,33.0581111 47.6604961,34.5495771 47.6604961,36.3687902 C47.6604961,38.1887252 47.1125664,39.6542024 46.0181509,40.7659438 M55.0145929,30.733561 C54.3576548,29.065227 53.4639303,27.6423425 52.335585,26.4627416 C51.2065178,25.2838626 49.8839788,24.3648712 48.3679678,23.7079332 C46.8519569,23.0509951 45.2348786,22.7225261 43.5160109,22.7225261 L36.0861135,22.7225261 L36.0861135,15.4103 L28.0108286,15.4103 C28.0101067,15.4579461 28,15.4969292 28,15.5452972 L28,35.1559814 C28,37.3123265 28.2187387,39.1827952 28.6569381,40.7659438 C29.0944155,42.3498143 29.7181457,43.6810162 30.5266849,44.7588278 C31.8066313,46.4434047 33.4410354,47.724434 35.4291755,48.6001108 C37.4173155,49.4757875 39.6249162,49.9139869 42.0505337,49.9139869 C44.0379518,49.9139869 45.8831537,49.5855179 47.5846955,48.9285798 C49.2855154,48.2709198 50.7596555,47.3533722 52.007116,46.1737714 C53.2531326,44.9948924 54.2313206,43.5633449 54.9380704,41.8776851 C55.6462641,40.1934692 56,38.3403263 56,36.3182565 C56,34.2637007 55.671531,32.401173 55.0145929,30.733561" id="mark"></path>
        </g>
    </g>
</svg>