<?xml version="1.0" encoding="UTF-8"?>
<svg width="301px" height="96px" viewBox="0 0 301 96" version="1.1" xmlns="http://www.w3.org/2000/svg" xmlns:xlink="http://www.w3.org/1999/xlink">
    <!-- Generator: Sketch 42 (36781) - http://www.bohemiancoding.com/sketch -->
    <title>logo</title>
    <desc>Created with Sketch.</desc>
    <defs></defs>
    <g id="Page-1" stroke="none" stroke-width="1" fill="none" fill-rule="evenodd">
        <g id="Home-1" transform="translate(-128.000000, -145.000000)">
            <g id="logo" transform="translate(128.000000, 145.000000)">
                <path d="M196.0293,0 C196.0273,0.132 196.0003,0.241 196.0003,0.375 L196.0003,94 L218.0003,94 L218.0003,0 L196.0293,0 Z" id="Fill-1" fill="#03312E"></path>
                <path d="M162.3594,0 C162.1454,0.935 162.0004,1.903 162.0004,2.938 C162.0004,6.373 163.1884,9.239 165.5604,11.543 C167.9364,13.848 170.8904,15 174.4314,15 C177.9674,15 180.9464,13.848 183.3674,11.543 C185.7874,9.239 187.0004,6.373 187.0004,2.938 C187.0004,1.907 186.8764,0.933 186.6594,0 L162.3594,0 Z" id="Fill-4" fill="#03312E"></path>
                <path d="M163.1426,22 C163.0746,22.668 162.9996,23.331 162.9996,24.077 L162.9996,94 L184.9996,94 L184.9996,22 L163.1426,22 Z" id="Fill-7" fill="#03312E"></path>
                <path d="M131.7314,22 C131.6614,22.586 131.5854,23.166 131.5854,23.822 L131.5854,59.839 C131.5854,69.516 127.2214,74.351 118.5004,74.351 C109.7744,74.351 105.4144,69.516 105.4144,59.839 L105.4144,22 L83.1454,22 C83.0754,22.586 83.0004,23.166 83.0004,23.822 L83.0004,64.024 C83.0004,69.236 83.9044,73.771 85.7144,77.629 C87.5254,81.491 90.0074,84.7 93.1634,87.257 C96.3164,89.816 100.0744,91.747 104.4394,93.047 C108.8004,94.349 113.4874,95 118.5004,95 C123.5104,95 128.1974,94.349 132.5604,93.047 C136.9204,91.747 140.6814,89.816 143.8364,87.257 C146.9904,84.7 149.4764,81.491 151.2864,77.629 C153.0954,73.771 154.0004,69.236 154.0004,64.024 L154.0004,22 L131.7314,22 Z" id="Fill-9" fill="#03312E"></path>
                <path d="M49.918,70.6563 C46.882,73.7363 43.034,75.2783 38.366,75.2783 C33.698,75.2783 29.846,73.7843 26.814,70.7963 C23.78,67.8103 22.264,63.7023 22.264,58.4743 C22.264,56.0483 22.658,53.7823 23.454,51.6843 C24.246,49.5823 25.366,47.7613 26.814,46.2223 C28.26,44.6823 29.964,43.4703 31.924,42.5823 C33.884,41.6963 36.032,41.2523 38.366,41.2523 C43.034,41.2523 46.882,42.8623 49.918,46.0823 C52.95,49.3023 54.468,53.4343 54.468,58.4743 C54.468,63.5163 52.95,67.5763 49.918,70.6563 M74.842,42.8623 C73.022,38.2403 70.546,34.2983 67.42,31.0303 C64.292,27.7643 60.628,25.2183 56.428,23.3983 C52.228,21.5783 47.748,20.6683 42.986,20.6683 L22.402,20.6683 L22.402,0.4103 L0.03,0.4103 C0.028,0.5423 0,0.6503 0,0.7843 L0,55.1143 C0,61.0883 0.606,66.2703 1.82,70.6563 C3.032,75.0443 4.76,78.7323 7,81.7183 C10.546,86.3853 15.074,89.9343 20.582,92.3603 C26.09,94.7863 32.206,96.0003 38.926,96.0003 C44.432,96.0003 49.544,95.0903 54.258,93.2703 C58.97,91.4483 63.054,88.9063 66.51,85.6383 C69.962,82.3723 72.672,78.4063 74.63,73.7363 C76.592,69.0703 77.572,63.9363 77.572,58.3343 C77.572,52.6423 76.662,47.4823 74.842,42.8623" id="Fill-11" fill="#00B784"></path>
                <path d="M272.918,70.2462 C269.882,73.3262 266.034,74.8682 261.366,74.8682 C256.698,74.8682 252.846,73.3742 249.814,70.3862 C246.78,67.4002 245.264,63.2922 245.264,58.0642 C245.264,55.6382 245.658,53.3722 246.454,51.2742 C247.246,49.1722 248.366,47.3512 249.814,45.8122 C251.26,44.2722 252.964,43.0602 254.924,42.1722 C256.884,41.2862 259.032,40.8422 261.366,40.8422 C266.034,40.8422 269.882,42.4522 272.918,45.6722 C275.95,48.8922 277.468,53.0242 277.468,58.0642 C277.468,63.1062 275.95,67.1662 272.918,70.2462 M297.842,42.4522 C296.022,37.8302 293.546,33.8882 290.42,30.6202 C287.292,27.3542 283.628,24.8082 279.428,22.9882 C275.228,21.1682 270.748,20.2582 265.986,20.2582 L245.402,20.2582 L245.402,0.0002 L223.03,0.0002 C223.028,0.1322 223,0.2402 223,0.3742 L223,54.7042 C223,60.6782 223.606,65.8602 224.82,70.2462 C226.032,74.6342 227.76,78.3222 230,81.3082 C233.546,85.9752 238.074,89.5242 243.582,91.9502 C249.09,94.3762 255.206,95.5902 261.926,95.5902 C267.432,95.5902 272.544,94.6802 277.258,92.8602 C281.97,91.0382 286.054,88.4962 289.51,85.2282 C292.962,81.9622 295.672,77.9962 297.63,73.3262 C299.592,68.6602 300.572,63.5262 300.572,57.9242 C300.572,52.2322 299.662,47.0722 297.842,42.4522" id="Fill-11" fill="#03312E" transform="translate(261.786000, 47.795200) scale(-1, 1) translate(-261.786000, -47.795200) "></path>
            </g>
        </g>
    </g>
</svg>