<?xml version="1.0" encoding="UTF-8"?>
<svg width="302px" height="96px" viewBox="0 0 302 96" version="1.1" xmlns="http://www.w3.org/2000/svg" xmlns:xlink="http://www.w3.org/1999/xlink">
    <!-- Generator: Sketch 42 (36781) - http://www.bohemiancoding.com/sketch -->
    <title>logo</title>
    <desc>Created with Sketch.</desc>
    <defs>
        <polygon id="path-1" points="0 48.2051 0 96 77.572 96 77.572 0.4102 0 0.4102 0 48.2051"></polygon>
    </defs>
    <g id="Page-1" stroke="none" stroke-width="1" fill="none" fill-rule="evenodd">
        <g id="Home-1" transform="translate(-128.000000, -169.000000)">
            <g id="Group-4" transform="translate(128.000000, 169.000000)">
                <g id="logo">
                    <g id="Group-3" transform="translate(224.000000, 0.000000)" fill="#475763">
                        <path d="M50.871,70.7958 C47.837,73.7858 43.987,75.2778 39.321,75.2778 C34.651,75.2778 30.801,73.7358 27.767,70.6558 C24.735,67.5758 23.217,63.5158 23.217,58.4738 C23.217,53.4338 24.735,49.3018 27.767,46.0818 C30.801,42.8618 34.651,41.2518 39.321,41.2518 C41.653,41.2518 43.801,41.6958 45.761,42.5818 C47.721,43.4698 49.423,44.6818 50.871,46.2218 C52.319,47.7618 53.437,49.5838 54.233,51.6838 C55.023,53.7838 55.421,56.0478 55.421,58.4738 C55.421,63.7038 53.905,67.8098 50.871,70.7958 L50.871,70.7958 Z M55.313,0.4098 C55.311,0.5418 55.283,0.6498 55.283,0.7858 L55.283,28.3698 C53.601,26.6898 51.059,24.9878 47.651,23.2578 C44.243,21.5318 39.925,20.6678 34.699,20.6678 C29.937,20.6678 25.457,21.5778 21.257,23.3978 C17.057,25.2178 13.393,27.7638 10.265,31.0298 C7.137,34.2978 4.663,38.2418 2.843,42.8618 C1.023,47.4818 0.113,52.6418 0.113,58.3338 C0.113,63.9358 1.093,69.0698 3.055,73.7358 C5.013,78.4058 7.721,82.3718 11.175,85.6378 C14.627,88.9078 18.713,91.4498 23.427,93.2698 C28.141,95.0898 33.249,95.9998 38.759,95.9998 C45.481,95.9998 51.593,94.7858 57.103,92.3598 C62.609,89.9338 67.137,86.3858 70.685,81.7178 C72.925,78.7318 74.653,75.0458 75.865,70.6558 C77.079,66.2698 77.685,61.0878 77.685,55.1138 L77.685,0.4098 L55.313,0.4098 Z" id="Fill-1"></path>
                    </g>
                    <g id="Group-6">
                        <mask id="mask-2" fill="white">
                            <use xlink:href="#path-1"></use>
                        </mask>
                        <g id="Clip-5"></g>
                        <path d="M49.918,70.6562 C46.882,73.7362 43.034,75.2782 38.366,75.2782 C33.698,75.2782 29.846,73.7842 26.814,70.7962 C23.78,67.8102 22.264,63.7022 22.264,58.4742 C22.264,56.0482 22.658,53.7822 23.454,51.6842 C24.246,49.5822 25.366,47.7622 26.814,46.2222 C28.26,44.6822 29.964,43.4702 31.924,42.5822 C33.884,41.6962 36.032,41.2522 38.366,41.2522 C43.034,41.2522 46.882,42.8622 49.918,46.0822 C52.95,49.3022 54.468,53.4342 54.468,58.4742 C54.468,63.5162 52.95,67.5762 49.918,70.6562 M74.842,42.8622 C73.022,38.2402 70.546,34.2982 67.42,31.0302 C64.292,27.7642 60.628,25.2182 56.428,23.3982 C52.228,21.5782 47.748,20.6682 42.986,20.6682 C37.758,20.6682 33.442,21.5322 30.036,23.2582 C26.626,24.9882 24.084,26.6902 22.402,28.3682 L22.402,0.4102 L0.03,0.4102 C0.028,0.5422 0,0.6502 0,0.7842 L0,55.1142 C0,61.0882 0.606,66.2702 1.82,70.6562 C3.032,75.0442 4.76,78.7322 7,81.7182 C10.546,86.3862 15.074,89.9342 20.582,92.3602 C26.09,94.7862 32.206,96.0002 38.926,96.0002 C44.432,96.0002 49.544,95.0902 54.258,93.2702 C58.97,91.4482 63.054,88.9062 66.51,85.6382 C69.962,82.3722 72.672,78.4062 74.63,73.7362 C76.592,69.0702 77.572,63.9362 77.572,58.3342 C77.572,52.6422 76.662,47.4822 74.842,42.8622" id="Fill-4" fill="#00C8D6" mask="url(#mask-2)"></path>
                    </g>
                    <path d="M196.029273,0 C196.027322,0.132521628 196,0.240948414 196,0.375477945 L196,94 L218,94 L218,0 L196.029273,0 Z" id="Fill-7" fill="#475763"></path>
                    <path d="M162.359052,0 C162.145616,0.93495935 162,1.90282617 162,2.93844367 C162,6.37243515 163.188861,9.23925668 165.5606,11.5427797 C167.936328,13.8482385 170.890529,15 174.431182,15 C177.967845,15 180.945983,13.8482385 183.36759,11.5427797 C185.787202,9.23925668 187,6.37243515 187,2.93844367 C187,1.90669764 186.876326,0.933023616 186.658901,0 L162.359052,0 Z" id="Fill-9" fill="#475763"></path>
                    <path d="M163.142477,22 C163.074166,22.6683527 163,23.3307023 163,24.0770962 L163,94 L185,94 L185,22 L163.142477,22 Z" id="Fill-11" fill="#475763"></path>
                    <path d="M131.731222,22 C131.661625,22.5859452 131.586064,23.1659113 131.586064,23.8216119 L131.586064,59.8393033 C131.586064,69.5153708 127.221391,74.350415 118.5,74.350415 C109.774632,74.350415 105.413936,69.5153708 105.413936,59.8393033 L105.413936,22 L83.1451577,22 C83.0755615,22.5859452 83,23.1659113 83,23.8216119 L83,64.024626 C83,69.2363492 83.9047499,73.7704488 85.7142497,77.6289178 C87.525738,81.4913727 90.0073377,84.7001201 93.1630258,87.257153 C96.3167255,89.8161789 100.074917,91.7474064 104.43959,93.0468494 C108.800286,94.3482855 113.487089,95 118.5,95 C123.510923,95 128.197726,94.3482855 132.56041,93.0468494 C136.921106,91.7474064 140.681286,89.8161789 143.836974,87.257153 C146.990674,84.7001201 149.47625,81.4913727 151.28575,77.6289178 C153.09525,73.7704488 154,69.2363492 154,64.024626 L154,22 L131.731222,22 Z" id="Fill-13" fill="#475763"></path>
                </g>
            </g>
        </g>
    </g>
</svg>